<svg width="80" height="89" viewBox="0 0 80 89" fill="none" xmlns="http://www.w3.org/2000/svg">
<mask id="path-1-inside-1" fill="white">
<path fill-rule="evenodd" clip-rule="evenodd" d="M22.5 73.161C22.5 76.9035 19.4715 79.9492 15.75 79.9492C12.0285 79.9492 9 76.9035 9 73.161C9 69.4185 12.0285 66.3729 15.75 66.3729C19.4715 66.3729 22.5 69.4185 22.5 73.161ZM19.5 73.161C19.5 71.0808 17.817 69.3898 15.75 69.3898C13.683 69.3898 12 71.0808 12 73.161C12 75.2412 13.683 76.9322 15.75 76.9322C17.817 76.9322 19.5 75.2412 19.5 73.161Z"/>
<path d="M75 72.4068C75.8284 72.4068 76.5 71.7314 76.5 70.8983C76.5 70.0652 75.8284 69.3898 75 69.3898C74.1716 69.3898 73.5 70.0652 73.5 70.8983C73.5 71.7314 74.1716 72.4068 75 72.4068Z"/>
<path d="M70.5 70.8983C70.5 71.7314 69.8284 72.4068 69 72.4068C68.1716 72.4068 67.5 71.7314 67.5 70.8983C67.5 70.0652 68.1716 69.3898 69 69.3898C69.8284 69.3898 70.5 70.0652 70.5 70.8983Z"/>
<path d="M78 76.9322C78.8284 76.9322 79.5 76.2568 79.5 75.4237C79.5 74.5906 78.8284 73.9153 78 73.9153C77.1716 73.9153 76.5 74.5906 76.5 75.4237C76.5 76.2568 77.1716 76.9322 78 76.9322Z"/>
<path d="M73.5 75.4237C73.5 76.2568 72.8284 76.9322 72 76.9322C71.1716 76.9322 70.5 76.2568 70.5 75.4237C70.5 74.5906 71.1716 73.9153 72 73.9153C72.8284 73.9153 73.5 74.5906 73.5 75.4237Z"/>
<path d="M63 72.4068C63.8284 72.4068 64.5 71.7314 64.5 70.8983C64.5 70.0652 63.8284 69.3898 63 69.3898C62.1716 69.3898 61.5 70.0652 61.5 70.8983C61.5 71.7314 62.1716 72.4068 63 72.4068Z"/>
<path d="M67.5 75.4237C67.5 76.2568 66.8284 76.9322 66 76.9322C65.1716 76.9322 64.5 76.2568 64.5 75.4237C64.5 74.5906 65.1716 73.9153 66 73.9153C66.8284 73.9153 67.5 74.5906 67.5 75.4237Z"/>
<path d="M57 72.4068C57.8284 72.4068 58.5 71.7314 58.5 70.8983C58.5 70.0652 57.8284 69.3898 57 69.3898C56.1716 69.3898 55.5 70.0652 55.5 70.8983C55.5 71.7314 56.1716 72.4068 57 72.4068Z"/>
<path d="M61.5 75.4237C61.5 76.2568 60.8284 76.9322 60 76.9322C59.1716 76.9322 58.5 76.2568 58.5 75.4237C58.5 74.5906 59.1716 73.9153 60 73.9153C60.8284 73.9153 61.5 74.5906 61.5 75.4237Z"/>
<path d="M51 72.4068C51.8284 72.4068 52.5 71.7314 52.5 70.8983C52.5 70.0652 51.8284 69.3898 51 69.3898C50.1716 69.3898 49.5 70.0652 49.5 70.8983C49.5 71.7314 50.1716 72.4068 51 72.4068Z"/>
<path d="M55.5 75.4237C55.5 76.2568 54.8284 76.9322 54 76.9322C53.1716 76.9322 52.5 76.2568 52.5 75.4237C52.5 74.5906 53.1716 73.9153 54 73.9153C54.8284 73.9153 55.5 74.5906 55.5 75.4237Z"/>
<path fill-rule="evenodd" clip-rule="evenodd" d="M15.75 51.2881C19.4715 51.2881 22.5 48.2425 22.5 44.5C22.5 40.7575 19.4715 37.7119 15.75 37.7119C12.0285 37.7119 9 40.7575 9 44.5C9 48.2425 12.0285 51.2881 15.75 51.2881ZM15.75 40.7288C17.817 40.7288 19.5 42.4198 19.5 44.5C19.5 46.5802 17.817 48.2712 15.75 48.2712C13.683 48.2712 12 46.5802 12 44.5C12 42.4198 13.683 40.7288 15.75 40.7288Z"/>
<path d="M76.5 42.2373C76.5 43.0704 75.8284 43.7458 75 43.7458C74.1716 43.7458 73.5 43.0704 73.5 42.2373C73.5 41.4042 74.1716 40.7288 75 40.7288C75.8284 40.7288 76.5 41.4042 76.5 42.2373Z"/>
<path d="M69 43.7458C69.8284 43.7458 70.5 43.0704 70.5 42.2373C70.5 41.4042 69.8284 40.7288 69 40.7288C68.1716 40.7288 67.5 41.4042 67.5 42.2373C67.5 43.0704 68.1716 43.7458 69 43.7458Z"/>
<path d="M79.5 46.7627C79.5 47.5958 78.8284 48.2712 78 48.2712C77.1716 48.2712 76.5 47.5958 76.5 46.7627C76.5 45.9296 77.1716 45.2542 78 45.2542C78.8284 45.2542 79.5 45.9296 79.5 46.7627Z"/>
<path d="M72 48.2712C72.8284 48.2712 73.5 47.5958 73.5 46.7627C73.5 45.9296 72.8284 45.2542 72 45.2542C71.1716 45.2542 70.5 45.9296 70.5 46.7627C70.5 47.5958 71.1716 48.2712 72 48.2712Z"/>
<path d="M64.5 42.2373C64.5 43.0704 63.8284 43.7458 63 43.7458C62.1716 43.7458 61.5 43.0704 61.5 42.2373C61.5 41.4042 62.1716 40.7288 63 40.7288C63.8284 40.7288 64.5 41.4042 64.5 42.2373Z"/>
<path d="M66 48.2712C66.8284 48.2712 67.5 47.5958 67.5 46.7627C67.5 45.9296 66.8284 45.2542 66 45.2542C65.1716 45.2542 64.5 45.9296 64.5 46.7627C64.5 47.5958 65.1716 48.2712 66 48.2712Z"/>
<path d="M58.5 42.2373C58.5 43.0704 57.8284 43.7458 57 43.7458C56.1716 43.7458 55.5 43.0704 55.5 42.2373C55.5 41.4042 56.1716 40.7288 57 40.7288C57.8284 40.7288 58.5 41.4042 58.5 42.2373Z"/>
<path d="M60 48.2712C60.8284 48.2712 61.5 47.5958 61.5 46.7627C61.5 45.9296 60.8284 45.2542 60 45.2542C59.1716 45.2542 58.5 45.9296 58.5 46.7627C58.5 47.5958 59.1716 48.2712 60 48.2712Z"/>
<path d="M52.5 42.2373C52.5 43.0704 51.8284 43.7458 51 43.7458C50.1716 43.7458 49.5 43.0704 49.5 42.2373C49.5 41.4042 50.1716 40.7288 51 40.7288C51.8284 40.7288 52.5 41.4042 52.5 42.2373Z"/>
<path d="M54 48.2712C54.8284 48.2712 55.5 47.5958 55.5 46.7627C55.5 45.9296 54.8284 45.2542 54 45.2542C53.1716 45.2542 52.5 45.9296 52.5 46.7627C52.5 47.5958 53.1716 48.2712 54 48.2712Z"/>
<path fill-rule="evenodd" clip-rule="evenodd" d="M9 15.839C9 12.0965 12.0285 9.05085 15.75 9.05085C19.4715 9.05085 22.5 12.0965 22.5 15.839C22.5 19.5815 19.4715 22.6271 15.75 22.6271C12.0285 22.6271 9 19.5815 9 15.839ZM12 15.839C12 17.9192 13.683 19.6102 15.75 19.6102C17.817 19.6102 19.5 17.9192 19.5 15.839C19.5 13.7588 17.817 12.0678 15.75 12.0678C13.683 12.0678 12 13.7588 12 15.839Z"/>
<path d="M76.5 13.5763C76.5 14.4094 75.8284 15.0847 75 15.0847C74.1716 15.0847 73.5 14.4094 73.5 13.5763C73.5 12.7432 74.1716 12.0678 75 12.0678C75.8284 12.0678 76.5 12.7432 76.5 13.5763Z"/>
<path d="M69 15.0847C69.8284 15.0847 70.5 14.4094 70.5 13.5763C70.5 12.7432 69.8284 12.0678 69 12.0678C68.1716 12.0678 67.5 12.7432 67.5 13.5763C67.5 14.4094 68.1716 15.0847 69 15.0847Z"/>
<path d="M79.5 18.1017C79.5 18.9348 78.8284 19.6102 78 19.6102C77.1716 19.6102 76.5 18.9348 76.5 18.1017C76.5 17.2686 77.1716 16.5932 78 16.5932C78.8284 16.5932 79.5 17.2686 79.5 18.1017Z"/>
<path d="M72 19.6102C72.8284 19.6102 73.5 18.9348 73.5 18.1017C73.5 17.2686 72.8284 16.5932 72 16.5932C71.1716 16.5932 70.5 17.2686 70.5 18.1017C70.5 18.9348 71.1716 19.6102 72 19.6102Z"/>
<path d="M64.5 13.5763C64.5 14.4094 63.8284 15.0847 63 15.0847C62.1716 15.0847 61.5 14.4094 61.5 13.5763C61.5 12.7432 62.1716 12.0678 63 12.0678C63.8284 12.0678 64.5 12.7432 64.5 13.5763Z"/>
<path d="M66 19.6102C66.8284 19.6102 67.5 18.9348 67.5 18.1017C67.5 17.2686 66.8284 16.5932 66 16.5932C65.1716 16.5932 64.5 17.2686 64.5 18.1017C64.5 18.9348 65.1716 19.6102 66 19.6102Z"/>
<path d="M58.5 13.5763C58.5 14.4094 57.8284 15.0847 57 15.0847C56.1716 15.0847 55.5 14.4094 55.5 13.5763C55.5 12.7432 56.1716 12.0678 57 12.0678C57.8284 12.0678 58.5 12.7432 58.5 13.5763Z"/>
<path d="M60 19.6102C60.8284 19.6102 61.5 18.9348 61.5 18.1017C61.5 17.2686 60.8284 16.5932 60 16.5932C59.1716 16.5932 58.5 17.2686 58.5 18.1017C58.5 18.9348 59.1716 19.6102 60 19.6102Z"/>
<path d="M52.5 13.5763C52.5 14.4094 51.8284 15.0847 51 15.0847C50.1716 15.0847 49.5 14.4094 49.5 13.5763C49.5 12.7432 50.1716 12.0678 51 12.0678C51.8284 12.0678 52.5 12.7432 52.5 13.5763Z"/>
<path d="M54 19.6102C54.8284 19.6102 55.5 18.9348 55.5 18.1017C55.5 17.2686 54.8284 16.5932 54 16.5932C53.1716 16.5932 52.5 17.2686 52.5 18.1017C52.5 18.9348 53.1716 19.6102 54 19.6102Z"/>
<path fill-rule="evenodd" clip-rule="evenodd" d="M83.088 0C86.8995 0 90 3.118 90 6.95105V24.7269C90 26.9413 88.9455 28.8963 87.3345 30.1695C88.9455 31.4426 90 33.3961 90 35.6121V53.3879C90 55.6024 88.9455 57.5574 87.333 58.8305C88.944 60.1037 89.9985 62.0571 89.9985 64.2731V82.049C89.9985 85.882 86.898 89 83.0865 89H6.912C3.10048 89 0 85.882 0 82.0474V64.2731C0 62.0587 1.0545 60.1037 2.66551 58.829C1.0545 57.5558 0 55.6024 0 53.3864V35.6121C0 33.3976 1.0545 31.4426 2.66551 30.168C1.0545 28.8948 0 26.9414 0 24.7254V6.95105C0 3.118 3.10048 0 6.912 0H83.088ZM87 82.0474V64.2731C87 62.1039 85.245 60.339 83.0865 60.339H6.912C4.75502 60.339 3 62.1039 3 64.2731V82.049C3 84.2181 4.75502 85.9831 6.912 85.9815H83.088C85.245 85.9815 87 84.2166 87 82.0474ZM87 53.3864V35.6121C87 33.4429 85.245 31.678 83.0865 31.678H6.912C4.75502 31.678 3 33.4429 3 35.6121V53.3879C3 55.5571 4.75502 57.322 6.912 57.3205H83.088C85.245 57.3205 87 55.5556 87 53.3864ZM3 24.7269C3 26.8961 4.75502 28.661 6.912 28.661V28.6595H83.088C85.245 28.6595 87 26.8946 87 24.7254V6.95105C87 4.78188 85.245 3.01695 83.0865 3.01695H6.912C4.75502 3.01695 3 4.78188 3 6.95105V24.7269Z"/>
</mask>
<path fill-rule="evenodd" clip-rule="evenodd" d="M22.5 73.161C22.5 76.9035 19.4715 79.9492 15.75 79.9492C12.0285 79.9492 9 76.9035 9 73.161C9 69.4185 12.0285 66.3729 15.75 66.3729C19.4715 66.3729 22.5 69.4185 22.5 73.161ZM19.5 73.161C19.5 71.0808 17.817 69.3898 15.75 69.3898C13.683 69.3898 12 71.0808 12 73.161C12 75.2412 13.683 76.9322 15.75 76.9322C17.817 76.9322 19.5 75.2412 19.5 73.161Z" fill="#E7E7E7"/>
<path d="M75 72.4068C75.8284 72.4068 76.5 71.7314 76.5 70.8983C76.5 70.0652 75.8284 69.3898 75 69.3898C74.1716 69.3898 73.5 70.0652 73.5 70.8983C73.5 71.7314 74.1716 72.4068 75 72.4068Z" fill="#E7E7E7"/>
<path d="M70.5 70.8983C70.5 71.7314 69.8284 72.4068 69 72.4068C68.1716 72.4068 67.5 71.7314 67.5 70.8983C67.5 70.0652 68.1716 69.3898 69 69.3898C69.8284 69.3898 70.5 70.0652 70.5 70.8983Z" fill="#E7E7E7"/>
<path d="M78 76.9322C78.8284 76.9322 79.5 76.2568 79.5 75.4237C79.5 74.5906 78.8284 73.9153 78 73.9153C77.1716 73.9153 76.5 74.5906 76.5 75.4237C76.5 76.2568 77.1716 76.9322 78 76.9322Z" fill="#E7E7E7"/>
<path d="M73.5 75.4237C73.5 76.2568 72.8284 76.9322 72 76.9322C71.1716 76.9322 70.5 76.2568 70.5 75.4237C70.5 74.5906 71.1716 73.9153 72 73.9153C72.8284 73.9153 73.5 74.5906 73.5 75.4237Z" fill="#E7E7E7"/>
<path d="M63 72.4068C63.8284 72.4068 64.5 71.7314 64.5 70.8983C64.5 70.0652 63.8284 69.3898 63 69.3898C62.1716 69.3898 61.5 70.0652 61.5 70.8983C61.5 71.7314 62.1716 72.4068 63 72.4068Z" fill="#E7E7E7"/>
<path d="M67.5 75.4237C67.5 76.2568 66.8284 76.9322 66 76.9322C65.1716 76.9322 64.5 76.2568 64.5 75.4237C64.5 74.5906 65.1716 73.9153 66 73.9153C66.8284 73.9153 67.5 74.5906 67.5 75.4237Z" fill="#E7E7E7"/>
<path d="M57 72.4068C57.8284 72.4068 58.5 71.7314 58.5 70.8983C58.5 70.0652 57.8284 69.3898 57 69.3898C56.1716 69.3898 55.5 70.0652 55.5 70.8983C55.5 71.7314 56.1716 72.4068 57 72.4068Z" fill="#E7E7E7"/>
<path d="M61.5 75.4237C61.5 76.2568 60.8284 76.9322 60 76.9322C59.1716 76.9322 58.5 76.2568 58.5 75.4237C58.5 74.5906 59.1716 73.9153 60 73.9153C60.8284 73.9153 61.5 74.5906 61.5 75.4237Z" fill="#E7E7E7"/>
<path d="M51 72.4068C51.8284 72.4068 52.5 71.7314 52.5 70.8983C52.5 70.0652 51.8284 69.3898 51 69.3898C50.1716 69.3898 49.5 70.0652 49.5 70.8983C49.5 71.7314 50.1716 72.4068 51 72.4068Z" fill="#E7E7E7"/>
<path d="M55.5 75.4237C55.5 76.2568 54.8284 76.9322 54 76.9322C53.1716 76.9322 52.5 76.2568 52.5 75.4237C52.5 74.5906 53.1716 73.9153 54 73.9153C54.8284 73.9153 55.5 74.5906 55.5 75.4237Z" fill="#E7E7E7"/>
<path fill-rule="evenodd" clip-rule="evenodd" d="M15.75 51.2881C19.4715 51.2881 22.5 48.2425 22.5 44.5C22.5 40.7575 19.4715 37.7119 15.75 37.7119C12.0285 37.7119 9 40.7575 9 44.5C9 48.2425 12.0285 51.2881 15.75 51.2881ZM15.75 40.7288C17.817 40.7288 19.5 42.4198 19.5 44.5C19.5 46.5802 17.817 48.2712 15.75 48.2712C13.683 48.2712 12 46.5802 12 44.5C12 42.4198 13.683 40.7288 15.75 40.7288Z" fill="#E7E7E7"/>
<path d="M76.5 42.2373C76.5 43.0704 75.8284 43.7458 75 43.7458C74.1716 43.7458 73.5 43.0704 73.5 42.2373C73.5 41.4042 74.1716 40.7288 75 40.7288C75.8284 40.7288 76.5 41.4042 76.5 42.2373Z" fill="#E7E7E7"/>
<path d="M69 43.7458C69.8284 43.7458 70.5 43.0704 70.5 42.2373C70.5 41.4042 69.8284 40.7288 69 40.7288C68.1716 40.7288 67.5 41.4042 67.5 42.2373C67.5 43.0704 68.1716 43.7458 69 43.7458Z" fill="#E7E7E7"/>
<path d="M79.5 46.7627C79.5 47.5958 78.8284 48.2712 78 48.2712C77.1716 48.2712 76.5 47.5958 76.5 46.7627C76.5 45.9296 77.1716 45.2542 78 45.2542C78.8284 45.2542 79.5 45.9296 79.5 46.7627Z" fill="#E7E7E7"/>
<path d="M72 48.2712C72.8284 48.2712 73.5 47.5958 73.5 46.7627C73.5 45.9296 72.8284 45.2542 72 45.2542C71.1716 45.2542 70.5 45.9296 70.5 46.7627C70.5 47.5958 71.1716 48.2712 72 48.2712Z" fill="#E7E7E7"/>
<path d="M64.5 42.2373C64.5 43.0704 63.8284 43.7458 63 43.7458C62.1716 43.7458 61.5 43.0704 61.5 42.2373C61.5 41.4042 62.1716 40.7288 63 40.7288C63.8284 40.7288 64.5 41.4042 64.5 42.2373Z" fill="#E7E7E7"/>
<path d="M66 48.2712C66.8284 48.2712 67.5 47.5958 67.5 46.7627C67.5 45.9296 66.8284 45.2542 66 45.2542C65.1716 45.2542 64.5 45.9296 64.5 46.7627C64.5 47.5958 65.1716 48.2712 66 48.2712Z" fill="#E7E7E7"/>
<path d="M58.5 42.2373C58.5 43.0704 57.8284 43.7458 57 43.7458C56.1716 43.7458 55.5 43.0704 55.5 42.2373C55.5 41.4042 56.1716 40.7288 57 40.7288C57.8284 40.7288 58.5 41.4042 58.5 42.2373Z" fill="#E7E7E7"/>
<path d="M60 48.2712C60.8284 48.2712 61.5 47.5958 61.5 46.7627C61.5 45.9296 60.8284 45.2542 60 45.2542C59.1716 45.2542 58.5 45.9296 58.5 46.7627C58.5 47.5958 59.1716 48.2712 60 48.2712Z" fill="#E7E7E7"/>
<path d="M52.5 42.2373C52.5 43.0704 51.8284 43.7458 51 43.7458C50.1716 43.7458 49.5 43.0704 49.5 42.2373C49.5 41.4042 50.1716 40.7288 51 40.7288C51.8284 40.7288 52.5 41.4042 52.5 42.2373Z" fill="#E7E7E7"/>
<path d="M54 48.2712C54.8284 48.2712 55.5 47.5958 55.5 46.7627C55.5 45.9296 54.8284 45.2542 54 45.2542C53.1716 45.2542 52.5 45.9296 52.5 46.7627C52.5 47.5958 53.1716 48.2712 54 48.2712Z" fill="#E7E7E7"/>
<path fill-rule="evenodd" clip-rule="evenodd" d="M9 15.839C9 12.0965 12.0285 9.05085 15.75 9.05085C19.4715 9.05085 22.5 12.0965 22.5 15.839C22.5 19.5815 19.4715 22.6271 15.75 22.6271C12.0285 22.6271 9 19.5815 9 15.839ZM12 15.839C12 17.9192 13.683 19.6102 15.75 19.6102C17.817 19.6102 19.5 17.9192 19.5 15.839C19.5 13.7588 17.817 12.0678 15.75 12.0678C13.683 12.0678 12 13.7588 12 15.839Z" fill="#E7E7E7"/>
<path d="M76.5 13.5763C76.5 14.4094 75.8284 15.0847 75 15.0847C74.1716 15.0847 73.5 14.4094 73.5 13.5763C73.5 12.7432 74.1716 12.0678 75 12.0678C75.8284 12.0678 76.5 12.7432 76.5 13.5763Z" fill="#E7E7E7"/>
<path d="M69 15.0847C69.8284 15.0847 70.5 14.4094 70.5 13.5763C70.5 12.7432 69.8284 12.0678 69 12.0678C68.1716 12.0678 67.5 12.7432 67.5 13.5763C67.5 14.4094 68.1716 15.0847 69 15.0847Z" fill="#E7E7E7"/>
<path d="M79.5 18.1017C79.5 18.9348 78.8284 19.6102 78 19.6102C77.1716 19.6102 76.5 18.9348 76.5 18.1017C76.5 17.2686 77.1716 16.5932 78 16.5932C78.8284 16.5932 79.5 17.2686 79.5 18.1017Z" fill="#E7E7E7"/>
<path d="M72 19.6102C72.8284 19.6102 73.5 18.9348 73.5 18.1017C73.5 17.2686 72.8284 16.5932 72 16.5932C71.1716 16.5932 70.5 17.2686 70.5 18.1017C70.5 18.9348 71.1716 19.6102 72 19.6102Z" fill="#E7E7E7"/>
<path d="M64.5 13.5763C64.5 14.4094 63.8284 15.0847 63 15.0847C62.1716 15.0847 61.5 14.4094 61.5 13.5763C61.5 12.7432 62.1716 12.0678 63 12.0678C63.8284 12.0678 64.5 12.7432 64.5 13.5763Z" fill="#E7E7E7"/>
<path d="M66 19.6102C66.8284 19.6102 67.5 18.9348 67.5 18.1017C67.5 17.2686 66.8284 16.5932 66 16.5932C65.1716 16.5932 64.5 17.2686 64.5 18.1017C64.5 18.9348 65.1716 19.6102 66 19.6102Z" fill="#E7E7E7"/>
<path d="M58.5 13.5763C58.5 14.4094 57.8284 15.0847 57 15.0847C56.1716 15.0847 55.5 14.4094 55.5 13.5763C55.5 12.7432 56.1716 12.0678 57 12.0678C57.8284 12.0678 58.5 12.7432 58.5 13.5763Z" fill="#E7E7E7"/>
<path d="M60 19.6102C60.8284 19.6102 61.5 18.9348 61.5 18.1017C61.5 17.2686 60.8284 16.5932 60 16.5932C59.1716 16.5932 58.5 17.2686 58.5 18.1017C58.5 18.9348 59.1716 19.6102 60 19.6102Z" fill="#E7E7E7"/>
<path d="M52.5 13.5763C52.5 14.4094 51.8284 15.0847 51 15.0847C50.1716 15.0847 49.5 14.4094 49.5 13.5763C49.5 12.7432 50.1716 12.0678 51 12.0678C51.8284 12.0678 52.5 12.7432 52.5 13.5763Z" fill="#E7E7E7"/>
<path d="M54 19.6102C54.8284 19.6102 55.5 18.9348 55.5 18.1017C55.5 17.2686 54.8284 16.5932 54 16.5932C53.1716 16.5932 52.5 17.2686 52.5 18.1017C52.5 18.9348 53.1716 19.6102 54 19.6102Z" fill="#E7E7E7"/>
<path fill-rule="evenodd" clip-rule="evenodd" d="M83.088 0C86.8995 0 90 3.118 90 6.95105V24.7269C90 26.9413 88.9455 28.8963 87.3345 30.1695C88.9455 31.4426 90 33.3961 90 35.6121V53.3879C90 55.6024 88.9455 57.5574 87.333 58.8305C88.944 60.1037 89.9985 62.0571 89.9985 64.2731V82.049C89.9985 85.882 86.898 89 83.0865 89H6.912C3.10048 89 0 85.882 0 82.0474V64.2731C0 62.0587 1.0545 60.1037 2.66551 58.829C1.0545 57.5558 0 55.6024 0 53.3864V35.6121C0 33.3976 1.0545 31.4426 2.66551 30.168C1.0545 28.8948 0 26.9414 0 24.7254V6.95105C0 3.118 3.10048 0 6.912 0H83.088ZM87 82.0474V64.2731C87 62.1039 85.245 60.339 83.0865 60.339H6.912C4.75502 60.339 3 62.1039 3 64.2731V82.049C3 84.2181 4.75502 85.9831 6.912 85.9815H83.088C85.245 85.9815 87 84.2166 87 82.0474ZM87 53.3864V35.6121C87 33.4429 85.245 31.678 83.0865 31.678H6.912C4.75502 31.678 3 33.4429 3 35.6121V53.3879C3 55.5571 4.75502 57.322 6.912 57.3205H83.088C85.245 57.3205 87 55.5556 87 53.3864ZM3 24.7269C3 26.8961 4.75502 28.661 6.912 28.661V28.6595H83.088C85.245 28.6595 87 26.8946 87 24.7254V6.95105C87 4.78188 85.245 3.01695 83.0865 3.01695H6.912C4.75502 3.01695 3 4.78188 3 6.95105V24.7269Z" fill="#E7E7E7"/>
<path fill-rule="evenodd" clip-rule="evenodd" d="M22.5 73.161C22.5 76.9035 19.4715 79.9492 15.75 79.9492C12.0285 79.9492 9 76.9035 9 73.161C9 69.4185 12.0285 66.3729 15.75 66.3729C19.4715 66.3729 22.5 69.4185 22.5 73.161ZM19.5 73.161C19.5 71.0808 17.817 69.3898 15.75 69.3898C13.683 69.3898 12 71.0808 12 73.161C12 75.2412 13.683 76.9322 15.75 76.9322C17.817 76.9322 19.5 75.2412 19.5 73.161Z" stroke="white" mask="url(#path-1-inside-1)"/>
<path d="M75 72.4068C75.8284 72.4068 76.5 71.7314 76.5 70.8983C76.5 70.0652 75.8284 69.3898 75 69.3898C74.1716 69.3898 73.5 70.0652 73.5 70.8983C73.5 71.7314 74.1716 72.4068 75 72.4068Z" stroke="white" mask="url(#path-1-inside-1)"/>
<path d="M70.5 70.8983C70.5 71.7314 69.8284 72.4068 69 72.4068C68.1716 72.4068 67.5 71.7314 67.5 70.8983C67.5 70.0652 68.1716 69.3898 69 69.3898C69.8284 69.3898 70.5 70.0652 70.5 70.8983Z" stroke="white" mask="url(#path-1-inside-1)"/>
<path d="M78 76.9322C78.8284 76.9322 79.5 76.2568 79.5 75.4237C79.5 74.5906 78.8284 73.9153 78 73.9153C77.1716 73.9153 76.5 74.5906 76.5 75.4237C76.5 76.2568 77.1716 76.9322 78 76.9322Z" stroke="white" mask="url(#path-1-inside-1)"/>
<path d="M73.5 75.4237C73.5 76.2568 72.8284 76.9322 72 76.9322C71.1716 76.9322 70.5 76.2568 70.5 75.4237C70.5 74.5906 71.1716 73.9153 72 73.9153C72.8284 73.9153 73.5 74.5906 73.5 75.4237Z" stroke="white" mask="url(#path-1-inside-1)"/>
<path d="M63 72.4068C63.8284 72.4068 64.5 71.7314 64.5 70.8983C64.5 70.0652 63.8284 69.3898 63 69.3898C62.1716 69.3898 61.5 70.0652 61.5 70.8983C61.5 71.7314 62.1716 72.4068 63 72.4068Z" stroke="white" mask="url(#path-1-inside-1)"/>
<path d="M67.5 75.4237C67.5 76.2568 66.8284 76.9322 66 76.9322C65.1716 76.9322 64.5 76.2568 64.5 75.4237C64.5 74.5906 65.1716 73.9153 66 73.9153C66.8284 73.9153 67.5 74.5906 67.5 75.4237Z" stroke="white" mask="url(#path-1-inside-1)"/>
<path d="M57 72.4068C57.8284 72.4068 58.5 71.7314 58.5 70.8983C58.5 70.0652 57.8284 69.3898 57 69.3898C56.1716 69.3898 55.5 70.0652 55.5 70.8983C55.5 71.7314 56.1716 72.4068 57 72.4068Z" stroke="white" mask="url(#path-1-inside-1)"/>
<path d="M61.5 75.4237C61.5 76.2568 60.8284 76.9322 60 76.9322C59.1716 76.9322 58.5 76.2568 58.5 75.4237C58.5 74.5906 59.1716 73.9153 60 73.9153C60.8284 73.9153 61.5 74.5906 61.5 75.4237Z" stroke="white" mask="url(#path-1-inside-1)"/>
<path d="M51 72.4068C51.8284 72.4068 52.5 71.7314 52.5 70.8983C52.5 70.0652 51.8284 69.3898 51 69.3898C50.1716 69.3898 49.5 70.0652 49.5 70.8983C49.5 71.7314 50.1716 72.4068 51 72.4068Z" stroke="white" mask="url(#path-1-inside-1)"/>
<path d="M55.5 75.4237C55.5 76.2568 54.8284 76.9322 54 76.9322C53.1716 76.9322 52.5 76.2568 52.5 75.4237C52.5 74.5906 53.1716 73.9153 54 73.9153C54.8284 73.9153 55.5 74.5906 55.5 75.4237Z" stroke="white" mask="url(#path-1-inside-1)"/>
<path fill-rule="evenodd" clip-rule="evenodd" d="M15.75 51.2881C19.4715 51.2881 22.5 48.2425 22.5 44.5C22.5 40.7575 19.4715 37.7119 15.75 37.7119C12.0285 37.7119 9 40.7575 9 44.5C9 48.2425 12.0285 51.2881 15.75 51.2881ZM15.75 40.7288C17.817 40.7288 19.5 42.4198 19.5 44.5C19.5 46.5802 17.817 48.2712 15.75 48.2712C13.683 48.2712 12 46.5802 12 44.5C12 42.4198 13.683 40.7288 15.75 40.7288Z" stroke="white" mask="url(#path-1-inside-1)"/>
<path d="M76.5 42.2373C76.5 43.0704 75.8284 43.7458 75 43.7458C74.1716 43.7458 73.5 43.0704 73.5 42.2373C73.5 41.4042 74.1716 40.7288 75 40.7288C75.8284 40.7288 76.5 41.4042 76.5 42.2373Z" stroke="white" mask="url(#path-1-inside-1)"/>
<path d="M69 43.7458C69.8284 43.7458 70.5 43.0704 70.5 42.2373C70.5 41.4042 69.8284 40.7288 69 40.7288C68.1716 40.7288 67.5 41.4042 67.5 42.2373C67.5 43.0704 68.1716 43.7458 69 43.7458Z" stroke="white" mask="url(#path-1-inside-1)"/>
<path d="M79.5 46.7627C79.5 47.5958 78.8284 48.2712 78 48.2712C77.1716 48.2712 76.5 47.5958 76.5 46.7627C76.5 45.9296 77.1716 45.2542 78 45.2542C78.8284 45.2542 79.5 45.9296 79.5 46.7627Z" stroke="white" mask="url(#path-1-inside-1)"/>
<path d="M72 48.2712C72.8284 48.2712 73.5 47.5958 73.5 46.7627C73.5 45.9296 72.8284 45.2542 72 45.2542C71.1716 45.2542 70.5 45.9296 70.5 46.7627C70.5 47.5958 71.1716 48.2712 72 48.2712Z" stroke="white" mask="url(#path-1-inside-1)"/>
<path d="M64.5 42.2373C64.5 43.0704 63.8284 43.7458 63 43.7458C62.1716 43.7458 61.5 43.0704 61.5 42.2373C61.5 41.4042 62.1716 40.7288 63 40.7288C63.8284 40.7288 64.5 41.4042 64.5 42.2373Z" stroke="white" mask="url(#path-1-inside-1)"/>
<path d="M66 48.2712C66.8284 48.2712 67.5 47.5958 67.5 46.7627C67.5 45.9296 66.8284 45.2542 66 45.2542C65.1716 45.2542 64.5 45.9296 64.5 46.7627C64.5 47.5958 65.1716 48.2712 66 48.2712Z" stroke="white" mask="url(#path-1-inside-1)"/>
<path d="M58.5 42.2373C58.5 43.0704 57.8284 43.7458 57 43.7458C56.1716 43.7458 55.5 43.0704 55.5 42.2373C55.5 41.4042 56.1716 40.7288 57 40.7288C57.8284 40.7288 58.5 41.4042 58.5 42.2373Z" stroke="white" mask="url(#path-1-inside-1)"/>
<path d="M60 48.2712C60.8284 48.2712 61.5 47.5958 61.5 46.7627C61.5 45.9296 60.8284 45.2542 60 45.2542C59.1716 45.2542 58.5 45.9296 58.5 46.7627C58.5 47.5958 59.1716 48.2712 60 48.2712Z" stroke="white" mask="url(#path-1-inside-1)"/>
<path d="M52.5 42.2373C52.5 43.0704 51.8284 43.7458 51 43.7458C50.1716 43.7458 49.5 43.0704 49.5 42.2373C49.5 41.4042 50.1716 40.7288 51 40.7288C51.8284 40.7288 52.5 41.4042 52.5 42.2373Z" stroke="white" mask="url(#path-1-inside-1)"/>
<path d="M54 48.2712C54.8284 48.2712 55.5 47.5958 55.5 46.7627C55.5 45.9296 54.8284 45.2542 54 45.2542C53.1716 45.2542 52.5 45.9296 52.5 46.7627C52.5 47.5958 53.1716 48.2712 54 48.2712Z" stroke="white" mask="url(#path-1-inside-1)"/>
<path fill-rule="evenodd" clip-rule="evenodd" d="M9 15.839C9 12.0965 12.0285 9.05085 15.75 9.05085C19.4715 9.05085 22.5 12.0965 22.5 15.839C22.5 19.5815 19.4715 22.6271 15.75 22.6271C12.0285 22.6271 9 19.5815 9 15.839ZM12 15.839C12 17.9192 13.683 19.6102 15.75 19.6102C17.817 19.6102 19.5 17.9192 19.5 15.839C19.5 13.7588 17.817 12.0678 15.75 12.0678C13.683 12.0678 12 13.7588 12 15.839Z" stroke="white" mask="url(#path-1-inside-1)"/>
<path d="M76.5 13.5763C76.5 14.4094 75.8284 15.0847 75 15.0847C74.1716 15.0847 73.5 14.4094 73.5 13.5763C73.5 12.7432 74.1716 12.0678 75 12.0678C75.8284 12.0678 76.5 12.7432 76.5 13.5763Z" stroke="white" mask="url(#path-1-inside-1)"/>
<path d="M69 15.0847C69.8284 15.0847 70.5 14.4094 70.5 13.5763C70.5 12.7432 69.8284 12.0678 69 12.0678C68.1716 12.0678 67.5 12.7432 67.5 13.5763C67.5 14.4094 68.1716 15.0847 69 15.0847Z" stroke="white" mask="url(#path-1-inside-1)"/>
<path d="M79.5 18.1017C79.5 18.9348 78.8284 19.6102 78 19.6102C77.1716 19.6102 76.5 18.9348 76.5 18.1017C76.5 17.2686 77.1716 16.5932 78 16.5932C78.8284 16.5932 79.5 17.2686 79.5 18.1017Z" stroke="white" mask="url(#path-1-inside-1)"/>
<path d="M72 19.6102C72.8284 19.6102 73.5 18.9348 73.5 18.1017C73.5 17.2686 72.8284 16.5932 72 16.5932C71.1716 16.5932 70.5 17.2686 70.5 18.1017C70.5 18.9348 71.1716 19.6102 72 19.6102Z" stroke="white" mask="url(#path-1-inside-1)"/>
<path d="M64.5 13.5763C64.5 14.4094 63.8284 15.0847 63 15.0847C62.1716 15.0847 61.5 14.4094 61.5 13.5763C61.5 12.7432 62.1716 12.0678 63 12.0678C63.8284 12.0678 64.5 12.7432 64.5 13.5763Z" stroke="white" mask="url(#path-1-inside-1)"/>
<path d="M66 19.6102C66.8284 19.6102 67.5 18.9348 67.5 18.1017C67.5 17.2686 66.8284 16.5932 66 16.5932C65.1716 16.5932 64.5 17.2686 64.5 18.1017C64.5 18.9348 65.1716 19.6102 66 19.6102Z" stroke="white" mask="url(#path-1-inside-1)"/>
<path d="M58.5 13.5763C58.5 14.4094 57.8284 15.0847 57 15.0847C56.1716 15.0847 55.5 14.4094 55.5 13.5763C55.5 12.7432 56.1716 12.0678 57 12.0678C57.8284 12.0678 58.5 12.7432 58.5 13.5763Z" stroke="white" mask="url(#path-1-inside-1)"/>
<path d="M60 19.6102C60.8284 19.6102 61.5 18.9348 61.5 18.1017C61.5 17.2686 60.8284 16.5932 60 16.5932C59.1716 16.5932 58.5 17.2686 58.5 18.1017C58.5 18.9348 59.1716 19.6102 60 19.6102Z" stroke="white" mask="url(#path-1-inside-1)"/>
<path d="M52.5 13.5763C52.5 14.4094 51.8284 15.0847 51 15.0847C50.1716 15.0847 49.5 14.4094 49.5 13.5763C49.5 12.7432 50.1716 12.0678 51 12.0678C51.8284 12.0678 52.5 12.7432 52.5 13.5763Z" stroke="white" mask="url(#path-1-inside-1)"/>
<path d="M54 19.6102C54.8284 19.6102 55.5 18.9348 55.5 18.1017C55.5 17.2686 54.8284 16.5932 54 16.5932C53.1716 16.5932 52.5 17.2686 52.5 18.1017C52.5 18.9348 53.1716 19.6102 54 19.6102Z" stroke="white" mask="url(#path-1-inside-1)"/>
<path fill-rule="evenodd" clip-rule="evenodd" d="M83.088 0C86.8995 0 90 3.118 90 6.95105V24.7269C90 26.9413 88.9455 28.8963 87.3345 30.1695C88.9455 31.4426 90 33.3961 90 35.6121V53.3879C90 55.6024 88.9455 57.5574 87.333 58.8305C88.944 60.1037 89.9985 62.0571 89.9985 64.2731V82.049C89.9985 85.882 86.898 89 83.0865 89H6.912C3.10048 89 0 85.882 0 82.0474V64.2731C0 62.0587 1.0545 60.1037 2.66551 58.829C1.0545 57.5558 0 55.6024 0 53.3864V35.6121C0 33.3976 1.0545 31.4426 2.66551 30.168C1.0545 28.8948 0 26.9414 0 24.7254V6.95105C0 3.118 3.10048 0 6.912 0H83.088ZM87 82.0474V64.2731C87 62.1039 85.245 60.339 83.0865 60.339H6.912C4.75502 60.339 3 62.1039 3 64.2731V82.049C3 84.2181 4.75502 85.9831 6.912 85.9815H83.088C85.245 85.9815 87 84.2166 87 82.0474ZM87 53.3864V35.6121C87 33.4429 85.245 31.678 83.0865 31.678H6.912C4.75502 31.678 3 33.4429 3 35.6121V53.3879C3 55.5571 4.75502 57.322 6.912 57.3205H83.088C85.245 57.3205 87 55.5556 87 53.3864ZM3 24.7269C3 26.8961 4.75502 28.661 6.912 28.661V28.6595H83.088C85.245 28.6595 87 26.8946 87 24.7254V6.95105C87 4.78188 85.245 3.01695 83.0865 3.01695H6.912C4.75502 3.01695 3 4.78188 3 6.95105V24.7269Z" stroke="white" mask="url(#path-1-inside-1)"/>
</svg>
