<svg width="82" height="24" viewBox="0 0 82 24" fill="none" xmlns="http://www.w3.org/2000/svg">
<rect width="82" height="24" rx="3" fill="#292E38"/>
<path fill-rule="evenodd" clip-rule="evenodd" d="M26.9294 6.47632H26.4305L26.428 6.98718H26.9423C27.4617 6.98718 27.7591 7.21775 27.7591 7.59061C27.7591 7.95918 27.4445 8.22061 26.9611 8.22061C26.4777 8.22061 26.1503 7.98832 26.1168 7.62747H25.5605L25.5657 7.67032C25.5866 7.83237 25.6393 7.9887 25.7208 8.13033C25.8023 8.27196 25.9109 8.39611 26.0405 8.49565C26.17 8.5952 26.318 8.66818 26.4758 8.71041C26.6337 8.75265 26.7983 8.7633 26.9603 8.74175L26.9868 8.74518C27.1504 8.76127 27.3154 8.74495 27.4727 8.69716C27.6299 8.64937 27.7761 8.57104 27.903 8.46667C28.0299 8.3623 28.135 8.23392 28.2122 8.08889C28.2895 7.94386 28.3373 7.78502 28.3531 7.62147C28.372 7.1389 28.0017 6.73175 27.5243 6.71032V6.66575C27.9228 6.5749 28.2048 6.21661 28.2014 5.80347C28.2014 5.20604 27.6845 4.79032 26.9508 4.79032C26.791 4.77032 26.6287 4.78347 26.4741 4.82897C26.3196 4.87447 26.176 4.95133 26.0525 5.05476C25.929 5.15819 25.8281 5.28596 25.7561 5.43012C25.6842 5.57427 25.6427 5.73171 25.6343 5.89261H26.1828L26.1854 5.87461C26.1968 5.78766 26.2253 5.70381 26.2692 5.62791C26.3131 5.552 26.3716 5.48553 26.4413 5.43231C26.511 5.3791 26.5905 5.34019 26.6753 5.31783C26.7601 5.29548 26.8485 5.29011 26.9354 5.30204C27.3734 5.30204 27.6323 5.52747 27.6323 5.87461C27.6292 5.96153 27.6081 6.04687 27.5704 6.12522C27.5326 6.20358 27.479 6.27324 27.413 6.3298C27.3469 6.38636 27.2698 6.42859 27.1866 6.45381C27.1033 6.47904 27.0158 6.4867 26.9294 6.47632ZM30.0324 6.99922C29.363 7.04036 28.9858 7.33522 28.9858 7.84779C28.9856 7.96716 29.0104 8.08526 29.0587 8.19444C29.107 8.30362 29.1776 8.40144 29.2661 8.48159C29.3546 8.56174 29.4589 8.62242 29.5723 8.65971C29.6857 8.697 29.8056 8.71007 29.9244 8.69808C30.2656 8.7135 30.5878 8.54293 30.7696 8.2515H30.8133V8.65093H31.3481V6.70779C31.3481 6.10693 30.9504 5.75208 30.245 5.75208C29.6064 5.75208 29.1513 6.06579 29.0947 6.55436H29.6321C29.6947 6.35379 29.909 6.23893 30.2184 6.23893C30.599 6.23893 30.7944 6.40779 30.7944 6.70865V6.95465L30.0324 6.99922ZM30.7944 7.36779V7.60522L30.7927 7.6275C30.7843 7.71457 30.7589 7.79914 30.7178 7.87637C30.6767 7.95361 30.6209 8.022 30.5534 8.07763C30.4859 8.13327 30.4081 8.17507 30.3244 8.20063C30.2408 8.2262 30.1529 8.23504 30.0658 8.22665C29.7641 8.22665 29.5438 8.0775 29.5438 7.82207C29.5438 7.57179 29.7196 7.43893 30.107 7.41236L30.7944 7.36779ZM32.8215 6.28003V8.65174H32.2661V5.80774H34.1184V6.28003H32.8215ZM36.3203 8.69801C37.03 8.69801 37.4826 8.13144 37.4826 7.22801C37.4826 6.32458 37.03 5.76058 36.3143 5.76058C35.9475 5.75201 35.6063 5.95172 35.4306 6.27744H35.3895V5.80772H34.8555V9.59715H35.4109V8.22058H35.4546C35.5381 8.37468 35.664 8.50158 35.8175 8.58621C35.9709 8.67084 36.1455 8.70964 36.3203 8.69801ZM36.16 6.26458C36.6306 6.26458 36.9118 6.62715 36.9118 7.22801C36.9118 7.83144 36.6298 8.19487 36.1575 8.19401C35.6929 8.19401 35.4006 7.82287 35.4006 7.23058C35.4006 6.63572 35.6929 6.26458 36.16 6.26458ZM38.2215 9.67088V9.18745C38.2815 9.19517 38.3423 9.19859 38.4023 9.19859C38.5212 9.20717 38.6389 9.17132 38.7329 9.098C38.8268 9.02468 38.8901 8.9191 38.9106 8.80174L38.9518 8.66374L37.9343 5.80859H38.5386L39.244 8.06802H39.2878L39.9906 5.80859H40.5795L39.5303 8.77002C39.2895 9.46259 39.0238 9.68374 38.4503 9.68374C38.4049 9.68374 38.2738 9.67859 38.2215 9.67088ZM41.5651 7.84519H41.0122C41.0636 8.41947 41.5634 8.70404 42.1771 8.70233C42.8722 8.70233 43.3273 8.3449 43.3273 7.80404C43.3308 7.4809 43.0942 7.20661 42.7771 7.16461V7.12004C42.9064 7.08836 43.021 7.01333 43.1018 6.90744C43.1826 6.80155 43.2247 6.67118 43.2211 6.53804C43.2211 6.05804 42.8379 5.75204 42.1693 5.75204C41.9122 5.71745 41.6518 5.78547 41.4444 5.94137C41.237 6.09728 41.0993 6.32855 41.0611 6.58518H41.5959C41.6319 6.36061 41.8591 6.22776 42.1693 6.22776C42.5105 6.22776 42.6759 6.38718 42.6759 6.59633C42.6759 6.83376 42.5045 6.9649 42.1693 6.9649H41.7562V7.40118H42.1771C42.5696 7.40118 42.7736 7.53147 42.7736 7.80576C42.7736 8.06204 42.5465 8.22661 42.1771 8.22661C41.8522 8.22661 41.6191 8.09633 41.5651 7.84519ZM44.1272 8.65174V5.80774H44.6775V7.76374H44.7212L46.0172 5.80774H46.5675V8.65174H46.0172V6.68545H45.9761L44.6775 8.6526H44.1272V8.65174ZM48.7137 6.28003H49.5991H49.6V5.80774H47.272V6.28003H48.1574V8.65174H48.7137V6.28003ZM52.5897 7.88373L52.5895 7.88458H52.054C51.9896 8.00206 51.8915 8.09762 51.7724 8.15901C51.6533 8.2204 51.5185 8.24482 51.3855 8.22916C51.2812 8.22968 51.178 8.20844 51.0824 8.16678C50.9868 8.12513 50.901 8.06398 50.8304 7.98726C50.7598 7.91053 50.706 7.81992 50.6724 7.72121C50.6389 7.6225 50.6263 7.51787 50.6355 7.41401V7.3823H52.6223V7.18687C52.6223 6.29373 52.1492 5.75287 51.3666 5.75287C51.1798 5.75287 50.9952 5.79286 50.8251 5.87014C50.6551 5.94743 50.5035 6.06021 50.3807 6.20093C50.2578 6.34164 50.1665 6.50702 50.1129 6.68595C50.0592 6.86487 50.0445 7.05321 50.0697 7.2383C50.0429 7.42308 50.0567 7.61149 50.1101 7.7904C50.1635 7.9693 50.2554 8.13441 50.3791 8.27419C50.5029 8.41398 50.6557 8.52508 50.8269 8.59976C50.998 8.67444 51.1834 8.71089 51.37 8.70658C51.6377 8.7349 51.9067 8.66791 52.1298 8.51739C52.3527 8.36705 52.5154 8.14299 52.5895 7.88458H52.5897V7.88373ZM50.6372 6.96744H52.0575C52.0717 6.78688 52.0137 6.60805 51.8962 6.47018C51.7788 6.33231 51.6114 6.24666 51.4309 6.23201C51.4086 6.2303 51.3872 6.2303 51.3649 6.2303C51.2683 6.22959 51.1726 6.24824 51.0834 6.28516C50.9941 6.32207 50.9132 6.3765 50.8454 6.44521C50.7775 6.51393 50.7242 6.59555 50.6884 6.68525C50.6526 6.77494 50.6352 6.8709 50.6372 6.96744ZM56.2102 5.80774H54.9425L54.9417 8.65174H56.2222C56.8394 8.65174 57.2088 8.3286 57.2088 7.83231C57.2114 7.66679 57.1505 7.50657 57.0385 7.3846C56.9266 7.26264 56.7722 7.1882 56.6071 7.1766V7.13202C56.7432 7.10143 56.8646 7.02508 56.9512 6.91573C57.0378 6.80638 57.0842 6.67064 57.0828 6.53117C57.0828 6.08974 56.7605 5.80774 56.2102 5.80774ZM55.4928 6.97517V6.23888L56.1048 6.23802C56.3997 6.23802 56.5394 6.38202 56.5394 6.60402C56.5394 6.84402 56.3782 6.97517 56.0431 6.97517H55.4928ZM55.4928 8.2206V7.38745L56.0816 7.3866C56.4562 7.3866 56.6551 7.52031 56.6551 7.80488C56.6551 8.07402 56.4794 8.2206 56.1511 8.2206H55.4928Z" fill="white"/>
<path d="M18.5404 11.8707C18.5226 9.93687 20.1644 8.99607 20.2395 8.95227C19.3097 7.63047 17.8684 7.44987 17.362 7.43547C16.1515 7.31127 14.9774 8.14167 14.3607 8.14167C13.7318 8.14167 12.7823 7.44747 11.7589 7.46787C10.442 7.48767 9.20998 8.23107 8.53428 9.38547C7.13982 11.7393 8.17982 15.1983 9.51582 17.1009C10.1841 18.0327 10.9651 19.0731 11.9872 19.0365C12.9872 18.9963 13.3607 18.4149 14.5675 18.4149C15.7632 18.4149 16.114 19.0365 17.1564 19.0131C18.2297 18.9963 18.9054 18.0771 19.5503 17.1369C20.3226 16.0689 20.6327 15.0171 20.6451 14.9631C20.6198 14.9547 18.5607 14.1885 18.5404 11.8707Z" fill="white"/>
<path d="M16.5712 6.18387C17.1091 5.52807 17.4771 4.63587 17.3749 3.73047C16.5964 3.76407 15.6229 4.25547 15.0623 4.89687C14.5663 5.46207 14.1232 6.38847 14.2377 7.25967C15.1121 7.32327 16.01 6.82947 16.5712 6.18387Z" fill="white"/>
<path fill-rule="evenodd" clip-rule="evenodd" d="M53.4504 18.3218C53.9359 17.8952 54.1778 17.3426 54.1778 16.6634C54.1778 16.1114 54.0122 15.6488 53.6806 15.2792C53.3476 14.9084 52.8301 14.585 52.1255 14.3084C51.5495 14.087 51.1526 13.8818 50.9341 13.6922C50.683 13.487 50.5581 13.226 50.5581 12.9104C50.5581 12.6254 50.6676 12.3848 50.8861 12.1874C51.1446 11.9666 51.5052 11.8556 51.9667 11.8556C52.5507 11.8556 53.0726 11.978 53.5341 12.2228L53.8621 11.18C53.3679 10.9274 52.7489 10.8008 52.0036 10.8008C51.1679 10.8008 50.4996 11.0102 49.9987 11.4296C49.4959 11.8484 49.2449 12.3866 49.2449 13.043C49.2449 14.0474 49.9612 14.8112 51.395 15.3326C51.9218 15.5228 52.299 15.7286 52.5249 15.95C52.7519 16.1714 52.8652 16.4444 52.8652 16.7684C52.8652 17.132 52.7279 17.4236 52.4529 17.6408C52.1766 17.858 51.7919 17.9672 51.2978 17.9672C50.6092 17.9672 49.9772 17.7968 49.4012 17.4572L49.0972 18.5234C49.6319 18.8552 50.3384 19.0208 51.2196 19.0208C52.1741 19.0208 52.9169 18.788 53.4504 18.3218ZM31.6147 18.9026H33.0122L30.363 10.9178H28.7347L26.0984 18.9026H27.459L28.1882 16.5572H30.8492L31.6147 18.9026ZM29.9261 13.4882L30.6184 15.5732H28.4196L29.0996 13.4882C29.2781 12.8252 29.4079 12.3236 29.4885 11.984H29.5132C29.7156 12.7736 29.8528 13.2752 29.9261 13.4882ZM38.9778 18.2743C39.5206 17.7061 39.792 16.9321 39.792 15.9529C39.792 15.0763 39.5594 14.3695 39.0929 13.8319C38.6277 13.2949 38.0461 13.0267 37.3495 13.0267C36.4585 13.0267 35.7945 13.3699 35.3569 14.0575H35.3323L35.2591 13.1449H34.1052C34.1372 13.7929 34.1538 14.4247 34.1538 15.0403V21.2485H35.4658V18.2155H35.4905C35.8308 18.7603 36.3895 19.0327 37.1674 19.0327C37.888 19.0327 38.4917 18.7801 38.9778 18.2743ZM38.0665 14.6137C38.3261 14.9773 38.4554 15.4393 38.4554 15.9997C38.4554 16.6081 38.3175 17.0977 38.0418 17.4691C37.7668 17.8399 37.3821 18.0259 36.888 18.0259C36.4671 18.0259 36.1249 17.8819 35.8615 17.5933C35.5981 17.3047 35.4665 16.9513 35.4665 16.5325V15.5725C35.4665 15.4705 35.4868 15.3409 35.5274 15.1825C35.608 14.8429 35.7803 14.5687 36.0437 14.3587C36.3065 14.1505 36.6006 14.0449 36.9243 14.0449C37.4018 14.0449 37.7828 14.2345 38.0665 14.6137ZM46.5841 15.9529C46.5841 16.9321 46.3127 17.7061 45.7693 18.2743C45.2838 18.7801 44.6801 19.0327 43.9595 19.0327C43.1816 19.0327 42.6229 18.7603 42.2832 18.2155H42.2586V21.2485H40.9466V15.0403C40.9466 14.4247 40.9299 13.7929 40.8979 13.1449H42.0518L42.125 14.0575H42.1496C42.5866 13.3699 43.2506 13.0267 44.1423 13.0267C44.8383 13.0267 45.4198 13.2949 45.8863 13.8319C46.3509 14.3695 46.5841 15.0763 46.5841 15.9529ZM45.2475 15.9997C45.2475 15.4393 45.1176 14.9773 44.8579 14.6137C44.5743 14.2345 44.1946 14.0449 43.7164 14.0449C43.3921 14.0449 43.0986 14.1505 42.8352 14.3587C42.5718 14.5687 42.4001 14.8429 42.3195 15.1825C42.2795 15.3409 42.2586 15.4705 42.2586 15.5725V16.5325C42.2586 16.9513 42.3903 17.3047 42.6524 17.5933C42.9158 17.8813 43.258 18.0259 43.6801 18.0259C44.1743 18.0259 44.5589 17.8399 44.834 17.4691C45.1096 17.0977 45.2475 16.6081 45.2475 15.9997ZM58.5157 14.105H57.0696V16.9004C57.0696 17.6114 57.3244 17.9666 57.8351 17.9666C58.0696 17.9666 58.264 17.9468 58.4179 17.9072L58.4542 18.8786C58.1957 18.9728 57.8554 19.0202 57.4339 19.0202C56.9157 19.0202 56.5108 18.866 56.2185 18.5582C55.9274 18.2498 55.781 17.7326 55.781 17.006V14.1038H54.9194V13.1438H55.781V12.0896L57.0696 11.7104V13.1438H58.5157V14.105ZM64.2627 18.1562C64.7809 17.588 65.0406 16.8614 65.0406 15.9764C65.0406 15.1154 64.7895 14.4128 64.2861 13.8686C63.76 13.3076 63.0627 13.0274 62.1963 13.0274C61.2972 13.0274 60.5821 13.3118 60.0523 13.8806C59.5212 14.4488 59.2566 15.1796 59.2566 16.0718C59.2566 16.9244 59.5138 17.6318 60.0283 18.1922C60.5427 18.7526 61.2326 19.0328 62.0991 19.0328C62.9981 19.0328 63.7194 18.7412 64.2627 18.1562ZM63.3274 14.6516C63.563 15.0314 63.6794 15.4868 63.6794 16.0178C63.6794 16.5482 63.5575 17.0084 63.3157 17.3954C63.032 17.8622 62.6387 18.0962 62.1378 18.0962C61.6264 18.0962 61.2301 17.867 60.9464 17.4074C60.7107 17.0282 60.5944 16.5728 60.5944 16.0418C60.5944 15.4946 60.7107 15.032 60.9464 14.6516C61.2215 14.1926 61.6221 13.9628 62.1495 13.9628C62.659 13.9628 63.0523 14.192 63.3274 14.6516ZM69.3052 14.2699C69.1753 14.2465 69.0368 14.2345 68.8916 14.2345C68.4301 14.2345 68.0731 14.4043 67.8221 14.7445C67.6036 15.0445 67.4941 15.4237 67.4941 15.8815V18.9025H66.1827L66.195 14.9581C66.195 14.2945 66.1784 13.6903 66.1458 13.1455H67.2885L67.3365 14.2471H67.3728C67.5113 13.8685 67.7298 13.5637 68.0288 13.3351C68.3211 13.1293 68.6368 13.0267 68.9771 13.0267C69.0984 13.0267 69.2079 13.0351 69.3052 13.0501V14.2699ZM75.125 16.3316C75.1577 16.1738 75.173 15.9806 75.173 15.7514C75.173 15.0332 74.9989 14.4284 74.6524 13.9394C74.2149 13.3238 73.5706 13.016 72.7195 13.016C71.853 13.016 71.1644 13.3238 70.6549 13.9394C70.1681 14.516 69.925 15.239 69.925 16.1072C69.925 16.9916 70.1866 17.6966 70.7084 18.2216C71.2315 18.7466 71.9503 19.0094 72.866 19.0094C73.6272 19.0094 74.2869 18.8912 74.8457 18.6536L74.6401 17.7656C74.162 17.9474 73.6303 18.038 73.0475 18.038C72.5207 18.038 72.0918 17.9036 71.7601 17.6354C71.3946 17.3354 71.2044 16.9004 71.189 16.3316H75.125ZM73.6672 14.4362C73.845 14.7128 73.9306 15.0404 73.922 15.4196V15.419H71.189C71.229 15.0326 71.3589 14.7008 71.5774 14.4242C71.8438 14.0762 72.1927 13.9028 72.6217 13.9028C73.0912 13.9028 73.4401 14.0804 73.6672 14.4362Z" fill="white"/>
</svg>
