<svg width="61" height="60" viewBox="0 0 61 60" fill="none" xmlns="http://www.w3.org/2000/svg">
<g filter="url(#filter0_d_22_11108)">
<g clip-path="url(#clip0_22_11108)">
<rect width="58" height="58" rx="29" fill="#257441"/>
<rect x="4.35913" y="4.35889" width="49.2819" height="49.2819" rx="24.641" fill="#98E2B2"/>
<g clip-path="url(#clip1_22_11108)">
<g clip-path="url(#clip2_22_11108)">
<path d="M42.9505 33.3439C42.9505 38.3479 36.8761 40.3824 29.3281 40.3824C21.78 40.3824 15.6172 38.3479 15.6172 33.3439C15.6172 28.3399 21.7358 24.2832 29.2838 24.2832C36.8319 24.2832 42.9505 28.3399 42.9505 33.3439Z" fill="#297643"/>
<path d="M41.5577 22.4253C41.5572 21.4418 41.2531 20.4824 40.6869 19.6782C40.1208 18.8739 39.3202 18.2641 38.3945 17.9318C37.4687 17.5996 36.463 17.5613 35.5147 17.822C34.5663 18.0827 33.7216 18.6298 33.0958 19.3886C30.601 18.8378 28.0161 18.8378 25.5212 19.3886C24.761 18.4622 23.6804 17.8555 22.4937 17.6886C21.307 17.5218 20.101 17.8071 19.1148 18.488C18.1286 19.1688 17.4344 20.1955 17.1699 21.3643C16.9053 22.5331 17.0897 23.7586 17.6866 24.7978C17.303 25.6044 17.1024 26.4858 17.0992 27.379C17.0992 32.0203 22.565 35.7824 29.3063 35.7824C36.0477 35.7824 41.5134 32.0203 41.5134 27.379C41.5107 26.4857 41.3101 25.6042 40.9261 24.7978C41.3411 24.0761 41.5589 23.2579 41.5577 22.4253V22.4253Z" fill="#4BC174"/>
<path d="M21.4555 25.0794C23.0676 25.0794 24.3746 23.7725 24.3746 22.1603C24.3746 20.5481 23.0676 19.2412 21.4555 19.2412C19.8433 19.2412 18.5364 20.5481 18.5364 22.1603C18.5364 23.7725 19.8433 25.0794 21.4555 25.0794Z" fill="white"/>
<path d="M37.0243 25.0794C38.6365 25.0794 39.9434 23.7725 39.9434 22.1603C39.9434 20.5481 38.6365 19.2412 37.0243 19.2412C35.4121 19.2412 34.1052 20.5481 34.1052 22.1603C34.1052 23.7725 35.4121 25.0794 37.0243 25.0794Z" fill="white"/>
<path d="M19.8943 40.0285C20.0424 40.0287 20.1889 39.9976 20.3242 39.9372C20.4595 39.8769 20.5806 39.7888 20.6795 39.6785C20.7784 39.5682 20.853 39.4383 20.8983 39.2973C20.9436 39.1563 20.9587 39.0072 20.9425 38.86C20.6966 36.6671 19.6059 31.917 14.8213 29.0598C8.45233 25.2561 13.4944 38.3478 13.4944 38.3478L12.1773 39.1068C12.0829 39.1609 12.0091 39.2447 11.9672 39.3452C11.9254 39.4456 11.9179 39.557 11.946 39.6622C11.974 39.7673 12.036 39.8602 12.1223 39.9264C12.2086 39.9927 12.3144 40.0286 12.4232 40.0285H19.8943Z" fill="#4BC174"/>
<path d="M38.9045 40.0285C38.3367 40.0285 37.8926 39.4836 37.9563 38.86C38.1792 36.6671 39.1646 31.917 43.4893 29.0598C49.2461 25.2561 44.6888 38.3478 44.6888 38.3478L45.8794 39.1068C46.2757 39.3589 46.1138 40.0285 45.6565 40.0285H38.9045Z" fill="#4BC174"/>
<path d="M21.4553 22.6904C21.7484 22.6904 21.986 22.4528 21.986 22.1597C21.986 21.8665 21.7484 21.6289 21.4553 21.6289C21.1622 21.6289 20.9246 21.8665 20.9246 22.1597C20.9246 22.4528 21.1622 22.6904 21.4553 22.6904Z" fill="black"/>
<path d="M37.0242 22.6904C37.3173 22.6904 37.5549 22.4528 37.5549 22.1597C37.5549 21.8665 37.3173 21.6289 37.0242 21.6289C36.731 21.6289 36.4934 21.8665 36.4934 22.1597C36.4934 22.4528 36.731 22.6904 37.0242 22.6904Z" fill="black"/>
</g>
</g>
<g style="mix-blend-mode:overlay">
<path d="M44.2252 -0.000488281L65.2502 -0.000488281L15.2252 57.9995H-5.7998L44.2252 -0.000488281Z" fill="white" fill-opacity="0.2"/>
</g>
</g>
</g>
<defs>
<filter id="filter0_d_22_11108" x="0" y="0" width="60.75" height="59.75" filterUnits="userSpaceOnUse" color-interpolation-filters="sRGB">
<feFlood flood-opacity="0" result="BackgroundImageFix"/>
<feColorMatrix in="SourceAlpha" type="matrix" values="0 0 0 0 0 0 0 0 0 0 0 0 0 0 0 0 0 0 127 0" result="hardAlpha"/>
<feOffset dx="2.75" dy="1.75"/>
<feComposite in2="hardAlpha" operator="out"/>
<feColorMatrix type="matrix" values="0 0 0 0 0.0842187 0 0 0 0 0.190781 0 0 0 0 0.147149 0 0 0 1 0"/>
<feBlend mode="normal" in2="BackgroundImageFix" result="effect1_dropShadow_22_11108"/>
<feBlend mode="normal" in="SourceGraphic" in2="effect1_dropShadow_22_11108" result="shape"/>
</filter>
<clipPath id="clip0_22_11108">
<rect width="58" height="58" rx="29" fill="white"/>
</clipPath>
<clipPath id="clip1_22_11108">
<rect width="34.8" height="34.8" fill="white" transform="translate(11.6003 11.5996)"/>
</clipPath>
<clipPath id="clip2_22_11108">
<rect width="34.8" height="22.7335" fill="white" transform="translate(11.6003 17.6489)"/>
</clipPath>
</defs>
</svg>
