<svg width="36" height="36" viewBox="0 0 36 36" fill="none" xmlns="http://www.w3.org/2000/svg">
    <path d="M13 27C10.7909 27 9 25.2091 9 23L9 17C9 16.4477 9.44771 16 10 16C10.5523 16 11 16.4477 11 17L11 23C11 24.1046 11.8954 25 13 25L23 25C24.1046 25 25 24.1046 25 23L25 17C25 16.4477 25.4477 16 26 16C26.5523 16 27 16.4477 27 17L27 23C27 25.2091 25.2091 27 23 27L13 27Z"
          fill="white"/>
    <path d="M22.7071 15.2919C23.0976 15.6824 23.0976 16.3156 22.7071 16.7061L18.7071 20.7061C18.3166 21.0967 17.6834 21.0967 17.2929 20.7061L13.2929 16.7061C12.9024 16.3156 12.9024 15.6824 13.2929 15.2919C13.6834 14.9014 14.3166 14.9014 14.7071 15.2919L17 17.5848L17 10.999C17 10.4467 17.4477 9.99902 18 9.99902C18.5523 9.99902 19 10.4467 19 10.999L19 17.5848L21.2929 15.2919C21.6834 14.9014 22.3166 14.9014 22.7071 15.2919Z"
          fill="white"/>
</svg>
