<svg width="134" height="48" viewBox="0 0 134 48" fill="none" xmlns="http://www.w3.org/2000/svg">
<g id="PC LOGO TEXTO BLANCO" clip-path="url(#clip0_3813_5211)">
<g id="Group">
<path id="Vector" d="M20.8462 0.00375006C9.49296 -0.211031 0.201468 8.82752 0.00443762 20.0849H0V46.7985C0 47.4624 0.53784 48.0002 1.20171 48.0002H11.1935C11.8573 48.0002 12.3952 47.4624 12.3952 46.7985V40.0613C12.3952 39.677 12.7804 39.4143 13.1398 39.5518C15.4092 40.4207 17.873 40.8982 20.4486 40.8982C31.8408 40.8982 41.0569 31.5828 40.8954 20.1532C40.74 9.18076 31.8169 0.212318 20.8462 0.00375006Z" fill="#5E00CC"/>
<path id="Vector_2" d="M13.5219 28.1915C11.7282 26.2665 10.8389 23.6855 10.8389 20.4487C10.8389 17.2119 11.7575 14.6452 13.5946 12.706C15.4318 10.7809 17.9249 9.81885 21.0747 9.81885C23.5393 9.81885 25.5807 10.5191 27.2137 11.9187C28.8325 13.3334 29.7804 15.1706 30.0573 17.4595H25.523C24.9833 15.0828 23.2775 13.6104 20.8422 13.6104C19.1656 13.6104 17.853 14.2369 16.8758 15.491C15.8986 16.7593 15.4034 18.4074 15.4034 20.4487C15.4034 22.49 15.8844 24.1231 16.8465 25.3914C17.8086 26.6596 19.1212 27.2871 20.7836 27.2871C23.2766 27.2871 24.9833 25.8289 25.5221 23.4379H30.028C29.7804 25.7268 28.8175 27.564 27.1409 28.9645C25.4644 30.3792 23.3494 31.0786 20.8129 31.0786C17.7358 31.0786 15.3013 30.1165 13.5219 28.1915Z" fill="white"/>
<g id="Group_2">
<g id="Group_3">
<path id="Vector_3" d="M48.5377 38.3351C47.731 37.4617 47.3271 36.2911 47.3271 34.8293C47.3271 33.3676 47.7434 32.2103 48.5706 31.3307C49.3977 30.4512 50.5089 30.0083 51.9041 30.0083C52.9825 30.0083 53.8886 30.3056 54.6155 30.9083C55.3424 31.5109 55.7862 32.3105 55.9388 33.3161H54.3315C54.0138 32.1055 53.1076 31.3778 51.8376 31.3778C50.9447 31.3778 50.2365 31.6955 49.7146 32.3301C49.1856 32.9717 48.9211 33.8051 48.9211 34.8302C48.9211 35.8553 49.1794 36.6825 49.7013 37.3242C50.2169 37.9659 50.9181 38.2836 51.7976 38.2836C53.1005 38.2836 54.02 37.5691 54.3173 36.3523H55.9246C55.7728 37.3508 55.3291 38.1513 54.5818 38.7531C53.8345 39.3548 52.915 39.653 51.81 39.653C50.4344 39.653 49.3427 39.2164 48.536 38.3368L48.5377 38.3351Z" fill="black"/>
<path id="Vector_4" d="M60.2003 39.6512C59.1424 39.6512 58.2886 39.3273 57.6407 38.6723C56.9928 38.0244 56.668 37.1706 56.668 36.1056C56.668 35.0406 56.9919 34.1876 57.6469 33.5327C58.2948 32.8777 59.1486 32.5537 60.2003 32.5537C61.252 32.5537 62.1049 32.8848 62.7599 33.5389C63.4149 34.193 63.7389 35.0539 63.7389 36.1056C63.7389 37.1573 63.4149 38.0235 62.7662 38.6723C62.1112 39.3273 61.2582 39.6512 60.1994 39.6512H60.2003ZM60.2003 38.4078C60.8092 38.4078 61.3053 38.1895 61.6816 37.7599C62.0588 37.3304 62.2434 36.781 62.2434 36.1065C62.2434 35.432 62.0579 34.8764 61.6816 34.4459C61.3044 34.0164 60.8083 33.8042 60.2003 33.8042C59.5924 33.8042 59.1024 34.0155 58.7324 34.4459C58.3552 34.8755 58.1705 35.4249 58.1705 36.1065C58.1705 36.7881 58.356 37.3366 58.7324 37.767C59.1024 38.1966 59.5924 38.4087 60.2003 38.4087V38.4078Z" fill="black"/>
<path id="Vector_5" d="M64.7803 39.5714V30.0864H66.242V39.5714H64.7803Z" fill="black"/>
<path id="Vector_6" d="M70.8156 39.6512C69.7576 39.6512 68.9038 39.3273 68.2559 38.6723C67.608 38.0244 67.2832 37.1706 67.2832 36.1056C67.2832 35.0406 67.6072 34.1876 68.2621 33.5327C68.91 32.8777 69.7638 32.5537 70.8156 32.5537C71.8673 32.5537 72.7202 32.8848 73.3752 33.5389C74.0302 34.193 74.3541 35.0539 74.3541 36.1056C74.3541 37.1573 74.0302 38.0235 73.3814 38.6723C72.7264 39.3273 71.8735 39.6512 70.8147 39.6512H70.8156ZM70.8156 38.4078C71.4244 38.4078 71.9205 38.1895 72.2968 37.7599C72.674 37.3304 72.8586 36.781 72.8586 36.1065C72.8586 35.432 72.6731 34.8764 72.2968 34.4459C71.9196 34.0164 71.4235 33.8042 70.8156 33.8042C70.2076 33.8042 69.7177 34.0155 69.3476 34.4459C68.9704 34.8755 68.7858 35.4249 68.7858 36.1065C68.7858 36.7881 68.9713 37.3366 69.3476 37.767C69.7177 38.1966 70.2076 38.4087 70.8156 38.4087V38.4078Z" fill="black"/>
<path id="Vector_7" d="M85.9722 35.5769V39.5717H84.5105V35.6692C84.5105 34.4524 84.0081 33.817 83.062 33.817C82.5597 33.817 82.163 33.9954 81.8648 34.353C81.5666 34.7107 81.4219 35.1997 81.4219 35.821V39.5708H79.9468V35.6683C79.9468 34.4516 79.4374 33.8161 78.4789 33.8161C77.9827 33.8161 77.586 34.0016 77.2949 34.3717C77.0038 34.7418 76.8582 35.2379 76.8582 35.8601V39.5708H75.3965V32.6321H76.6665L76.8316 33.5445C77.3277 32.8895 78.0023 32.5593 78.8623 32.5522C79.8146 32.5522 80.6018 32.9623 80.9985 33.8152C81.468 33.0217 82.2686 32.5522 83.3727 32.5522C84.8078 32.5522 85.9722 33.3794 85.9722 35.5752V35.5769Z" fill="black"/>
<path id="Vector_8" d="M93.2437 33.5061C93.8454 34.1407 94.1499 35.0078 94.1499 36.1057C94.1499 37.2036 93.8454 38.0174 93.2304 38.6724C92.6153 39.3274 91.8352 39.6514 90.8758 39.6514C89.9164 39.6514 89.1229 39.2875 88.6135 38.5668L88.4351 39.5724H87.165V30.0874H88.6268V33.6659C89.1762 32.9248 89.9297 32.5547 90.8758 32.5547C91.8219 32.5547 92.6349 32.8725 93.2437 33.507V33.5061ZM92.1059 37.7787C92.476 37.3491 92.6615 36.7935 92.6615 36.1057C92.6615 35.4179 92.476 34.8756 92.0997 34.4451C91.7225 34.0156 91.2335 33.8035 90.6317 33.8035C90.03 33.8035 89.5401 34.0147 89.17 34.438C88.7999 34.8676 88.6144 35.417 88.6144 36.0915C88.6144 36.766 88.7999 37.3411 89.17 37.7716C89.5401 38.2012 90.03 38.4195 90.6317 38.4195C91.2335 38.4195 91.7296 38.2083 92.1068 37.7778L92.1059 37.7787Z" fill="black"/>
<path id="Vector_9" d="M95.9309 31.6609C95.6727 31.6609 95.4614 31.5748 95.2964 31.4098C95.1242 31.2447 95.0381 31.0397 95.0381 30.7814C95.0381 30.5231 95.1242 30.3119 95.2964 30.1468C95.4614 29.9817 95.6736 29.9019 95.9309 29.9019C96.1883 29.9019 96.4004 29.9808 96.5726 30.1468C96.7377 30.3119 96.8238 30.524 96.8238 30.7814C96.8238 31.0388 96.7377 31.2447 96.5726 31.4098C96.4004 31.5748 96.1892 31.6609 95.9309 31.6609ZM95.1899 39.5714V32.6328H96.6516V39.5714H95.1899Z" fill="black"/>
<path id="Vector_10" d="M104.586 38.2951V39.5714H103.812C102.905 39.5714 102.542 39.1809 102.542 38.4602C102.019 39.2536 101.252 39.6504 100.253 39.6504C99.4787 39.6504 98.8574 39.472 98.3871 39.1081C97.9176 38.7513 97.6797 38.2552 97.6797 37.6197C97.6797 36.1908 98.7119 35.3973 100.643 35.3973H102.389V34.9802C102.389 34.2063 101.827 33.7306 100.874 33.7306C100.021 33.7306 99.4184 34.1344 99.3127 34.7494H97.8776C97.9504 34.0678 98.261 33.5327 98.8104 33.1421C99.3598 32.7516 100.067 32.5537 100.94 32.5537C102.793 32.5537 103.837 33.4403 103.837 35.0734V37.8513C103.837 38.1886 103.97 38.2942 104.287 38.2942H104.585L104.586 38.2951ZM102.39 36.4828H100.577C99.6385 36.4828 99.169 36.8334 99.169 37.5274C99.169 38.1158 99.658 38.5126 100.452 38.5126C101.054 38.5126 101.524 38.3475 101.868 38.0235C102.205 37.6996 102.384 37.2691 102.391 36.7269V36.4819L102.39 36.4828Z" fill="black"/>
</g>
<g id="Group_4">
<path id="Vector_11" d="M73.3054 19.4858C73.3054 21.8803 72.4702 23.0501 70.5212 23.0501C68.5722 23.0501 67.737 21.8803 67.737 19.4858V11.8291H63.8115V19.4858C63.8115 24.5535 66.5407 26.2798 70.5221 26.2798C74.5035 26.2798 77.2327 24.5535 77.2327 19.4858V11.8291H73.3063V19.4858H73.3054Z" fill="black"/>
<path id="Vector_12" d="M54.7051 6.64941H47.3262V26.1403H51.5029V20.154H54.7051C59.1045 20.154 62.0005 17.5092 62.0005 13.4159C62.0005 9.32264 59.1045 6.6503 54.7051 6.6503V6.64941ZM54.3154 16.6731H51.5029V10.1294H54.3154C56.4313 10.1294 57.7963 11.3826 57.7963 13.415C57.7963 15.4474 56.4322 16.6731 54.3154 16.6731Z" fill="black"/>
<path id="Vector_13" d="M87.3107 11.6611C85.1105 11.6611 83.7952 12.5043 82.8846 13.6243L82.5216 11.8289H79.0967V26.1411H83.0231V18.8181C83.0231 16.3402 84.1928 14.8917 86.2253 14.8917C88.2577 14.8917 89.1213 16.1724 89.1213 18.5954V26.1411H93.0477V18.2057C93.0477 13.3048 90.4029 11.662 87.3116 11.662L87.3107 11.6611Z" fill="black"/>
<path id="Vector_14" d="M100.063 21.4073V15.1423H103.349V11.8292H100.063V7.81934H96.1366V11.8292H93.7695V15.1423H96.1366V22.0472C96.1366 24.7755 97.5007 26.1405 100.23 26.1405H103.432V22.8274H101.483C100.453 22.8274 100.063 22.4094 100.063 21.4073Z" fill="black"/>
<path id="Vector_15" d="M127.294 17.3413C125.233 17.091 124.008 16.9792 124.008 15.8937C124.008 14.9751 125.01 14.4178 126.542 14.4178C128.074 14.4178 129.215 15.1136 129.326 16.2558H133.085C132.89 13.3323 130.245 11.6336 126.403 11.6336C122.728 11.6061 120.25 13.4717 120.25 16.3117C120.25 19.1518 122.839 20.0154 126.18 20.405C128.491 20.7112 129.466 20.7946 129.466 21.9644C129.466 22.9664 128.464 23.4954 126.821 23.4954C124.899 23.4954 123.814 22.6318 123.675 21.3795H119.943C120.11 24.4424 122.811 26.3079 126.793 26.3079C130.776 26.3079 133.309 24.4983 133.309 21.6582C133.309 18.4285 130.579 17.6768 127.295 17.3422L127.294 17.3413Z" fill="black"/>
<path id="Vector_16" d="M111.609 26.4083C109.315 26.4083 107.484 25.7391 106.105 24.3874C104.726 23.049 104.029 21.2739 104.029 19.0613C104.029 16.8487 104.726 15.0737 106.105 13.7211C107.484 12.3694 109.315 11.7002 111.609 11.7002C113.903 11.7002 115.746 12.3694 117.126 13.7211C118.505 15.0728 119.188 16.8487 119.188 19.0613C119.188 21.2739 118.505 23.0632 117.126 24.4007C115.746 25.7391 113.903 26.4083 111.609 26.4083ZM111.609 23.199C112.701 23.199 113.576 22.8164 114.231 22.0514C114.872 21.2864 115.201 20.2897 115.201 19.0604C115.201 17.8312 114.873 16.8345 114.231 16.0695C113.575 15.3044 112.701 14.9219 111.609 14.9219C110.516 14.9219 109.656 15.3044 109.014 16.0695C108.372 16.8345 108.058 17.8312 108.058 19.0604C108.058 20.2897 108.372 21.2864 109.014 22.0514C109.655 22.8164 110.516 23.199 111.609 23.199Z" fill="black"/>
</g>
</g>
</g>
</g>
<defs>
<clipPath id="clip0_3813_5211">
<rect width="133.309" height="48" fill="white"/>
</clipPath>
</defs>
</svg>
