<svg width="192" height="40" viewBox="0 0 192 40" fill="none" xmlns="http://www.w3.org/2000/svg">
<path fill-rule="evenodd" clip-rule="evenodd" d="M138.764 31.4293L145.383 2.5011L145.384 2.5H150.888L148.712 12.101C150.088 11.3955 152.354 10.6938 154.884 10.6938C161.14 10.6938 163.677 13.1746 161.721 21.703C159.771 30.3498 155.817 32.9614 148.355 32.9614C145.07 32.9614 141.027 32.3378 138.764 31.4293ZM147.556 17.1934L145.07 28.0743C146.224 28.5339 147.87 28.7407 149.287 28.7407C153.197 28.7407 154.705 27.7857 156.084 21.786C157.284 16.5701 156.349 15.2053 152.489 15.2053C150.042 15.2053 147.825 15.9498 147.556 17.1934Z" fill="white"/>
<path d="M23.6117 7.92225C21.1708 7.92225 20.5049 7.50577 21.078 5.06517C21.5721 2.87408 22.4157 2.53906 24.8586 2.53906C27.2541 2.53906 27.9185 2.87408 27.4303 5.06517C26.8513 7.50577 26.0092 7.92225 23.6117 7.92225Z" fill="white"/>
<path d="M4.79332 11.3145L5.59352 7.7516L11.5899 5.64565L10.2972 11.3145H17.7981L16.7748 15.7851H9.28171L7.19039 24.8487C6.61217 27.4566 7.10544 28.5328 9.76755 28.5328C11.0732 28.5328 12.8352 28.2018 14.025 27.8952L13.0396 32.2269C11.4008 32.6548 9.28171 32.9614 7.41354 32.9614C2.35201 32.9614 0.176125 31.5502 1.59722 25.3009L3.77115 15.7851H-4.49589e-05L1.01821 11.3145H4.79332Z" fill="white"/>
<path fill-rule="evenodd" clip-rule="evenodd" d="M126.777 32.9618C120.249 32.9618 116.384 30.3962 118.335 21.7458H118.334C120.247 13.2999 124.817 10.6942 131.394 10.6942C138.543 10.6942 141.115 12.9674 138.409 23.1924H123.798C122.824 27.7032 124.469 28.6154 128.419 28.6154C130.016 28.6154 133.081 28.2372 134.947 27.7422L134.902 31.8001C132.502 32.5022 129.083 32.9618 126.777 32.9618ZM134.232 19.2628C134.9 15.5359 133.921 14.752 130.766 14.752C127.308 14.752 125.886 15.7855 124.73 19.2628H134.232Z" fill="white"/>
<path fill-rule="evenodd" clip-rule="evenodd" d="M70.7322 32.9618C64.2038 32.9618 60.3402 30.3962 62.2949 21.7458C64.2034 13.2999 68.776 10.6942 75.3518 10.6942C82.4988 10.6942 85.0755 12.9674 82.366 23.1924H67.7558C66.7794 27.7032 68.4244 28.6154 72.3745 28.6154C73.9718 28.6154 77.0375 28.2372 78.9029 27.7422L78.8556 31.8001C76.4581 32.5022 73.0408 32.9618 70.7322 32.9618ZM78.192 19.2628C78.8564 15.5359 77.8808 14.752 74.7293 14.752C71.265 14.752 69.844 15.7855 68.6875 19.2628H78.192Z" fill="white"/>
<path d="M39.5973 10.6942C42.131 10.6942 43.9495 11.1468 45.0585 12.1013H45.0617C47.6823 11.2713 50.8349 10.6942 53.4137 10.6942C59.762 10.6942 61.7582 13.053 60.0251 20.6239L57.3649 32.3809H51.8567L54.3885 21.1616C55.4517 16.4872 54.8351 15.3295 51.1888 15.3295C50.0801 15.3295 48.2163 15.4935 46.6609 15.9067C46.7952 17.1502 46.6609 18.721 46.2162 20.6239L43.5521 32.3809H38.0478L40.5756 21.1616C41.6413 16.4872 41.0223 15.3295 37.3799 15.3295C36.18 15.3295 34.6704 15.5359 33.516 15.8249L29.7373 32.3809H24.233L28.7664 12.5149C31.7363 11.5209 36.0023 10.6942 39.5973 10.6942Z" fill="white"/>
<path d="M106.437 27.1223C109.675 21.8674 112.786 16.5694 115.318 11.3145H120.913C117.314 18.1409 112.827 25.7141 108.388 32.3813H101.548C101.597 28.1167 101.415 21.5755 101.107 18.2655C99.016 22.655 95.8242 28.5763 93.5551 32.3813H86.7621C86.2288 25.0507 85.4322 17.7698 84.2757 11.3145H90.0924C90.893 15.9476 91.4266 21.7034 91.6032 27.1223C94.1361 22.9038 98.3066 15.0837 100.129 11.3145H105.501C106.035 15.4114 106.437 22.6119 106.437 27.1223Z" fill="white"/>
<path d="M15.2688 32.3813L20.0653 11.3145H25.566L20.7731 32.3813H15.2688Z" fill="white"/>
<path d="M171.836 15.0861C171.836 15.0861 171.97 13.7032 172.665 12.7099V12.7117C173.319 11.7677 174.528 11.2117 174.528 11.2117C174.528 11.2117 187.83 19.1207 188.708 19.8404C189.445 20.4492 189.445 21.6826 188.708 22.2914C187.83 23.0093 174.528 30.9272 174.528 30.9272C174.528 30.9272 173.319 30.372 172.665 29.4272C171.97 28.4295 171.836 27.0439 171.836 27.0439C171.836 27.0439 180.128 22.294 180.884 21.8383C181.569 21.4284 181.569 20.7087 180.884 20.2952C180.128 19.8316 171.836 15.0861 171.836 15.0861Z" fill="#7A9C1A"/>
</svg>
