<svg width="82" height="24" viewBox="0 0 82 24" fill="none" xmlns="http://www.w3.org/2000/svg">
<rect width="82" height="24" rx="3" fill="#292E38"/>
<path fill-rule="evenodd" clip-rule="evenodd" d="M33.1046 7.08408C32.7317 7.46722 32.2688 7.65836 31.7151 7.65836C31.1614 7.65836 30.6986 7.46722 30.3266 7.08408C29.9537 6.70093 29.7686 6.23293 29.7686 5.67922C29.7686 5.1255 29.9546 4.65665 30.3266 4.27436C30.6986 3.89122 31.1614 3.69922 31.7151 3.69922C32.2663 3.69922 32.7283 3.89208 33.102 4.27608C33.4757 4.66093 33.6626 5.12808 33.6626 5.67922C33.6617 6.23379 33.4757 6.70179 33.1046 7.08408ZM30.6848 6.76693C30.9651 7.0515 31.308 7.19293 31.7143 7.19293C32.1206 7.19293 32.4643 7.05065 32.7437 6.76693C33.024 6.48236 33.1646 6.11979 33.1646 5.67922C33.1646 5.23865 33.024 4.87522 32.7437 4.5915C32.4634 4.30779 32.1206 4.16636 31.7143 4.16636C31.308 4.16636 30.9651 4.30865 30.6848 4.59236C30.4054 4.87693 30.264 5.2395 30.264 5.68008C30.264 6.12065 30.4046 6.48322 30.6848 6.76693ZM25.9671 8.3784H25.5017V7.10812H25.8729C26.2011 6.82612 26.3614 6.34269 26.3546 5.65783V3.78412H28.8849V7.10812H29.3083V8.3784H28.8429V7.5744H25.9689L25.9671 8.3784ZM26.8397 5.65783C26.8474 6.25698 26.7266 6.74126 26.4806 7.10812H28.3963V4.2504H26.8397V5.65783ZM34.71 7.0927C35.088 7.4707 35.5551 7.65927 36.1131 7.65927C36.4072 7.66183 36.6982 7.59918 36.9651 7.47585C37.2165 7.36179 37.4392 7.19278 37.6166 6.98127L37.278 6.6427C36.9566 7.00956 36.5683 7.19299 36.1131 7.19299C35.7009 7.19299 35.352 7.05327 35.0683 6.7747C34.7846 6.49613 34.6423 6.13013 34.6423 5.67927C34.6423 5.22842 34.7837 4.86242 35.0683 4.58385C35.3511 4.30527 35.7 4.16556 36.1131 4.16556C36.5571 4.16556 36.9086 4.32585 37.1657 4.64727L37.5051 4.31985C37.1486 3.90756 36.684 3.70099 36.1131 3.70099C35.5551 3.70099 35.088 3.88956 34.71 4.26756C34.3329 4.6447 34.1443 5.11527 34.1443 5.68013C34.1443 6.24413 34.332 6.7147 34.71 7.0927ZM39.5855 7.57355H39.0986V4.2504H38.04V3.78412H40.644V4.24955H39.5855V7.57355ZM42.5529 6.98126L43.9869 3.78412H43.4143L42.4989 5.95955H42.4783L41.5414 3.78412H40.9697L42.2452 6.58355L42.1072 6.88526C42.0715 6.97884 42.0124 7.06174 41.9357 7.12612C41.8572 7.17455 41.7656 7.19759 41.6734 7.19212C41.5843 7.19202 41.4968 7.16836 41.4197 7.12355L41.2929 7.57355C41.4113 7.627 41.5393 7.65587 41.6692 7.6584C42.0609 7.6584 42.3549 7.43298 42.5529 6.98126ZM44.5381 7.57355V3.78412H47.2801V7.57355H46.7932V4.2504H45.0258V7.5744L44.5381 7.57355ZM48.1475 3.78412V7.57355C48.1475 7.57355 48.6352 7.57355 48.6343 7.5744V5.8644H50.5295V7.57355H51.0163V3.78412H50.5295V5.4084H48.6343V3.78412H48.1475ZM54.984 7.08408C54.6111 7.46722 54.1482 7.65836 53.5945 7.65836C53.0408 7.65836 52.578 7.46722 52.2059 7.08408C51.8331 6.70093 51.6479 6.23293 51.6479 5.67922C51.6479 5.1255 51.834 4.65665 52.2059 4.27436C52.578 3.89122 53.0408 3.69922 53.5945 3.69922C54.1457 3.69922 54.6077 3.89208 54.9814 4.27608C55.3551 4.66093 55.542 5.12808 55.542 5.67922C55.542 6.23379 55.3551 6.70179 54.984 7.08408ZM52.5642 6.76693C52.8445 7.0515 53.1874 7.19293 53.5937 7.19293C54 7.19293 54.3437 7.05065 54.6231 6.76693C54.9034 6.48236 55.044 6.11979 55.044 5.67922C55.044 5.23865 54.9034 4.87522 54.6231 4.5915C54.3437 4.30779 54 4.16636 53.5937 4.16636C53.1874 4.16636 52.8445 4.30865 52.5642 4.59236C52.2848 4.87693 52.1434 5.2395 52.1434 5.68008C52.1434 6.12065 52.2848 6.48322 52.5642 6.76693ZM57.5332 3.78412V7.57355L58.9775 7.57269C59.276 7.57757 59.565 7.46774 59.7849 7.26583C60.0129 7.06098 60.1269 6.80469 60.1269 6.49355C60.1269 6.28869 60.0661 6.10869 59.9469 5.95355C59.8261 5.79926 59.6726 5.68955 59.4858 5.62612V5.60555C59.6409 5.53526 59.7661 5.43069 59.8595 5.29355C59.9529 5.1564 60.0001 4.99698 60.0001 4.81698C60.0001 4.5204 59.8912 4.2744 59.6744 4.07812C59.4566 3.88183 59.2003 3.78412 58.9038 3.78412H57.5332ZM58.9029 5.40926H58.0192L58.0183 4.2504H58.9244C59.0042 4.24723 59.0838 4.26171 59.1574 4.29283C59.2311 4.32394 59.2969 4.37092 59.3503 4.4304C59.4583 4.5504 59.5123 4.6824 59.5123 4.82726C59.5123 4.97212 59.4566 5.10583 59.3452 5.22669C59.2891 5.28731 59.2205 5.33503 59.1441 5.36655C59.0678 5.39807 58.9855 5.41264 58.9029 5.40926ZM58.9989 7.10812H58.0192H58.0183V5.8644H58.9766C59.0644 5.86087 59.152 5.87626 59.2333 5.90954C59.3147 5.94281 59.3879 5.99319 59.4481 6.05726C59.5681 6.18669 59.6281 6.32812 59.6281 6.48326C59.6281 6.6384 59.5706 6.78155 59.4541 6.91183C59.3973 6.97599 59.3271 7.02684 59.2484 7.06077C59.1697 7.09469 59.0845 7.11086 58.9989 7.10812Z" fill="white"/>
<path d="M41.8716 13.0523C40.4282 13.0523 39.2491 14.1248 39.2491 15.6045C39.2491 17.0723 40.4282 18.156 41.8716 18.156C43.3181 18.156 44.4972 17.0723 44.4972 15.6045C44.4972 14.1248 43.3181 13.0523 41.8716 13.0523ZM41.8716 17.151C41.0796 17.151 40.3983 16.5128 40.3983 15.6045C40.3983 14.6843 41.0796 14.0573 41.8716 14.0573C42.6636 14.0573 43.3481 14.6843 43.3481 15.6045C43.3481 16.5128 42.6636 17.151 41.8716 17.151ZM36.1495 13.0523C34.703 13.0523 33.527 14.1248 33.527 15.6045C33.527 17.0723 34.703 18.156 36.1495 18.156C37.5952 18.156 38.772 17.0723 38.772 15.6045C38.772 14.1248 37.5952 13.0523 36.1495 13.0523ZM36.1495 17.151C35.3567 17.151 34.6731 16.5128 34.6731 15.6045C34.6731 14.6843 35.3567 14.0573 36.1495 14.0573C36.9415 14.0573 37.6229 14.6843 37.6229 15.6045C37.6229 16.5128 36.9415 17.151 36.1495 17.151ZM29.3404 13.8345V14.919H31.9929C31.9153 15.525 31.7079 15.9705 31.3899 16.281C31.0027 16.656 30.3997 17.0723 29.3404 17.0723C27.708 17.0723 26.4298 15.786 26.4298 14.1923C26.4298 12.5985 27.708 11.3123 29.3404 11.3123C30.223 11.3123 30.8652 11.649 31.3392 12.0855L32.122 11.3213C31.459 10.7033 30.5772 10.2285 29.3404 10.2285C27.102 10.2285 25.2207 12.0068 25.2207 14.1923C25.2207 16.3778 27.102 18.156 29.3404 18.156C30.5503 18.156 31.459 17.769 32.1734 17.043C32.9055 16.3283 33.1337 15.3233 33.1337 14.5118C33.1337 14.2598 33.1121 14.028 33.0737 13.8345H29.3404ZM57.1836 14.6753C56.9678 14.1045 56.3018 13.0523 54.9452 13.0523C53.6009 13.0523 52.4816 14.0865 52.4816 15.6045C52.4816 17.034 53.5893 18.156 55.0742 18.156C56.2749 18.156 56.9678 17.4413 57.2528 17.025L56.3617 16.4453C56.0644 16.8698 55.6596 17.151 55.0742 17.151C54.4927 17.151 54.0756 16.8908 53.8083 16.3778L57.3042 14.9655L57.1836 14.6753ZM53.6193 15.525C53.5893 14.541 54.4021 14.037 54.9843 14.037C55.4406 14.037 55.8278 14.2598 55.9568 14.5785L53.6193 15.525ZM50.7778 18.0008H51.927V10.5008H50.7778V18.0008ZM48.8958 13.6208H48.8574C48.5993 13.3223 48.1069 13.0523 47.4831 13.0523C46.1742 13.0523 44.9773 14.1743 44.9773 15.6128C44.9773 17.043 46.1742 18.156 47.4831 18.156C48.1069 18.156 48.5993 17.8838 48.8574 17.5763H48.8958V17.9423C48.8958 18.918 48.3619 19.4423 47.5008 19.4423C46.7987 19.4423 46.3631 18.9473 46.1834 18.531L45.184 18.9383C45.4721 19.6148 46.2348 20.4473 47.5008 20.4473C48.8482 20.4473 49.9851 19.6733 49.9851 17.79V13.2075H48.8958V13.6208ZM47.5815 17.151C46.7895 17.151 46.1265 16.5038 46.1265 15.6128C46.1265 14.7135 46.7895 14.0573 47.5815 14.0573C48.3619 14.0573 48.9772 14.7135 48.9772 15.6128C48.9772 16.5038 48.3619 17.151 47.5815 17.151ZM62.5639 10.5008H59.8154V18.0008H60.9615V15.159H62.5639C63.8368 15.159 65.085 14.2598 65.085 12.8295C65.085 11.4 63.8337 10.5008 62.5639 10.5008ZM62.5939 14.1158H60.9615V11.544H62.5939C63.4496 11.544 63.9382 12.2378 63.9382 12.8295C63.9382 13.41 63.4496 14.1158 62.5939 14.1158ZM69.6787 13.038C68.8506 13.038 67.9895 13.395 67.6354 14.1863L68.6524 14.6025C68.8714 14.1863 69.2739 14.0513 69.6995 14.0513C70.294 14.0513 70.897 14.4 70.9063 15.0158V15.0945C70.6989 14.9775 70.2549 14.8043 69.7087 14.8043C68.6133 14.8043 67.4971 15.393 67.4971 16.4918C67.4971 17.4968 68.3943 18.144 69.4029 18.144C70.1742 18.144 70.5998 17.8043 70.8671 17.409H70.9063V17.9888H72.0132V15.1118C72.0132 13.782 70.9961 13.038 69.6787 13.038ZM69.5405 17.148C69.1656 17.148 68.6432 16.9665 68.6432 16.5128C68.6432 15.9323 69.2946 15.7095 69.8585 15.7095C70.3632 15.7095 70.5998 15.8183 70.9063 15.9615C70.8164 16.656 70.2042 17.148 69.5405 17.148ZM76.0461 13.2023L74.7287 16.4535H74.6895L73.3275 13.2023H72.0916L74.138 17.7458L72.9703 20.274H74.1679L77.3213 13.2023H76.0461ZM65.7149 18.0008H66.8641V10.5008H65.7149V18.0008Z" fill="white"/>
<path d="M6.41268 4.52253C6.23216 4.70703 6.12769 4.99428 6.12769 5.36628V18.6353C6.12769 19.0073 6.23216 19.2945 6.41268 19.479L6.45723 19.5195L14.0729 12.087V11.9115L6.45723 4.47903L6.41268 4.52253Z" fill="url(#paint0_linear)"/>
<path d="M16.6087 14.5664L14.073 12.0877V11.9122L16.6118 9.43341L16.6687 9.46566L19.6753 11.1359C20.5333 11.6099 20.5333 12.3899 19.6753 12.8669L16.6687 14.5342L16.6087 14.5664Z" fill="url(#paint1_linear)"/>
<path d="M16.6685 14.5335L14.0728 11.9993L6.4126 19.479C6.69759 19.7715 7.16233 19.8068 7.69084 19.5143L16.6685 14.5335Z" fill="url(#paint2_linear)"/>
<path d="M16.6685 9.46575L7.69084 4.485C7.16233 4.1955 6.69759 4.23075 6.4126 4.52325L14.0728 12L16.6685 9.46575Z" fill="url(#paint3_linear)"/>
<defs>
<linearGradient id="paint0_linear" x1="13.3967" y1="18.7735" x2="3.33017" y2="8.46299" gradientUnits="userSpaceOnUse">
<stop stop-color="#00A0FF"/>
<stop offset="0.0066" stop-color="#00A1FF"/>
<stop offset="0.2601" stop-color="#00BEFF"/>
<stop offset="0.5122" stop-color="#00D2FF"/>
<stop offset="0.7604" stop-color="#00DFFF"/>
<stop offset="1" stop-color="#00E3FF"/>
</linearGradient>
<linearGradient id="paint1_linear" x1="20.7926" y1="11.9991" x2="5.92268" y2="11.9991" gradientUnits="userSpaceOnUse">
<stop stop-color="#FFE000"/>
<stop offset="0.4087" stop-color="#FFBD00"/>
<stop offset="0.7754" stop-color="#FFA500"/>
<stop offset="1" stop-color="#FF9C00"/>
</linearGradient>
<linearGradient id="paint2_linear" x1="15.257" y1="10.6216" x2="1.60597" y2="-3.36025" gradientUnits="userSpaceOnUse">
<stop stop-color="#FF3A44"/>
<stop offset="1" stop-color="#C31162"/>
</linearGradient>
<linearGradient id="paint3_linear" x1="4.48436" y1="23.8943" x2="10.5802" y2="17.6508" gradientUnits="userSpaceOnUse">
<stop stop-color="#32A071"/>
<stop offset="0.0685" stop-color="#2DA771"/>
<stop offset="0.4762" stop-color="#15CF74"/>
<stop offset="0.8009" stop-color="#06E775"/>
<stop offset="1" stop-color="#00F076"/>
</linearGradient>
</defs>
</svg>
