<svg width="80" height="102" viewBox="0 0 80 102" fill="none" xmlns="http://www.w3.org/2000/svg">
<mask id="path-1-inside-1" fill="white">
<path d="M96.24 28.8537C93.3062 25.5013 89.3485 23.2101 84.9804 22.3351C81.4469 9.47562 69.654 1.40224e-07 55.6875 1.40224e-07C50.6049 -0.000488141 45.6035 1.27423 41.1412 3.7074C36.6789 6.14056 32.8984 9.65442 30.1459 13.9271C28.6233 13.5061 27.0317 13.3949 25.4654 13.5999C23.899 13.8051 22.3897 14.3223 21.0268 15.1212C19.6639 15.92 18.4751 16.9841 17.5309 18.2506C16.5866 19.5171 15.906 20.9601 15.5294 22.4944C12.188 23.2956 9.10538 24.9338 6.57168 27.2549C4.03799 29.576 2.13657 32.5037 1.04636 35.7623C-0.0438548 39.0209 -0.287019 42.5033 0.339782 45.8818C0.966582 49.2603 2.44275 52.4238 4.6293 55.0745L7.23141 52.9255C5.19534 50.4567 3.9032 47.4598 3.50571 44.2845C3.10818 41.1091 3.62173 37.8862 4.98642 34.9917C6.3511 32.0971 8.51068 29.6502 11.2132 27.9365C13.9158 26.2227 17.0499 25.3127 20.25 25.3125C20.7625 25.3125 21.2794 25.3356 21.7861 25.3813L22.0889 22.0199C21.4818 21.9653 20.863 21.9375 20.25 21.9375C19.9169 21.9375 19.5857 21.9457 19.2564 21.9621C20.0059 20.228 21.3161 18.7958 22.9768 17.8951C24.6374 16.9944 26.5525 16.6774 28.4148 16.995C27.9907 17.86 27.6019 18.7453 27.2589 19.6543L30.4168 20.8457C32.6485 14.9316 36.8842 9.98773 42.3861 6.87534C47.8879 3.76291 54.3073 2.67917 60.526 3.81287C66.7447 4.94659 72.3686 8.22589 76.4182 13.0796C80.4678 17.9333 82.6864 24.0538 82.6875 30.375H86.0625C86.0623 28.9089 85.9563 27.4447 85.7454 25.9939C89.2387 27.0316 92.3049 29.1669 94.4897 32.0836C96.6744 35.0004 97.8615 38.5433 97.875 42.1875C97.8827 45.6617 96.8109 49.0525 94.8078 51.8911L97.5673 53.8344C100.175 50.1233 101.462 45.6441 101.221 41.1147C100.981 36.5852 99.2267 32.2676 96.24 28.8537Z"/>
<path d="M15.1875 74.25C16.1195 74.25 16.875 73.4945 16.875 72.5625C16.875 71.6305 16.1195 70.875 15.1875 70.875C14.2555 70.875 13.5 71.6305 13.5 72.5625C13.5 73.4945 14.2555 74.25 15.1875 74.25Z"/>
<path d="M21.9375 72.5625C21.9375 73.4945 21.182 74.25 20.25 74.25C19.318 74.25 18.5625 73.4945 18.5625 72.5625C18.5625 71.6305 19.318 70.875 20.25 70.875C21.182 70.875 21.9375 71.6305 21.9375 72.5625Z"/>
<path d="M25.3125 74.25C26.2445 74.25 27 73.4945 27 72.5625C27 71.6305 26.2445 70.875 25.3125 70.875C24.3805 70.875 23.625 71.6305 23.625 72.5625C23.625 73.4945 24.3805 74.25 25.3125 74.25Z"/>
<path d="M30.375 70.875H40.5V74.25H30.375V70.875Z"/>
<path d="M15.1875 60.75C16.1195 60.75 16.875 59.9945 16.875 59.0625C16.875 58.1305 16.1195 57.375 15.1875 57.375C14.2555 57.375 13.5 58.1305 13.5 59.0625C13.5 59.9945 14.2555 60.75 15.1875 60.75Z"/>
<path d="M21.9375 59.0625C21.9375 59.9945 21.182 60.75 20.25 60.75C19.318 60.75 18.5625 59.9945 18.5625 59.0625C18.5625 58.1305 19.318 57.375 20.25 57.375C21.182 57.375 21.9375 58.1305 21.9375 59.0625Z"/>
<path d="M25.3125 60.75C26.2445 60.75 27 59.9945 27 59.0625C27 58.1305 26.2445 57.375 25.3125 57.375C24.3805 57.375 23.625 58.1305 23.625 59.0625C23.625 59.9945 24.3805 60.75 25.3125 60.75Z"/>
<path d="M30.375 57.375H40.5V60.75H30.375V57.375Z"/>
<path d="M16.875 45.5625C16.875 46.4945 16.1195 47.25 15.1875 47.25C14.2555 47.25 13.5 46.4945 13.5 45.5625C13.5 44.6305 14.2555 43.875 15.1875 43.875C16.1195 43.875 16.875 44.6305 16.875 45.5625Z"/>
<path d="M20.25 47.25C21.182 47.25 21.9375 46.4945 21.9375 45.5625C21.9375 44.6305 21.182 43.875 20.25 43.875C19.318 43.875 18.5625 44.6305 18.5625 45.5625C18.5625 46.4945 19.318 47.25 20.25 47.25Z"/>
<path d="M27 45.5625C27 46.4945 26.2445 47.25 25.3125 47.25C24.3805 47.25 23.625 46.4945 23.625 45.5625C23.625 44.6305 24.3805 43.875 25.3125 43.875C26.2445 43.875 27 44.6305 27 45.5625Z"/>
<path d="M40.5 43.875H30.375V47.25H40.5V43.875Z"/>
<path fill-rule="evenodd" clip-rule="evenodd" d="M40.5 37.125H15.1875C13.3979 37.127 11.6822 37.8389 10.4168 39.1043C9.15137 40.3697 8.43954 42.0854 8.4375 43.875V47.25C8.43738 48.2084 8.64181 49.1557 9.03717 50.0287C9.43252 50.9018 10.0096 51.6804 10.73 52.3125C10.0096 52.9446 9.43252 53.7232 9.03717 54.5962C8.64181 55.4693 8.43738 56.4166 8.4375 57.375V60.75C8.43738 61.7084 8.64181 62.6557 9.03717 63.5288C9.43252 64.4018 10.0096 65.1804 10.73 65.8125C10.0096 66.4446 9.43252 67.2232 9.03717 68.0962C8.64181 68.9693 8.43738 69.9166 8.4375 70.875V74.25C8.43954 76.0396 9.15137 77.7553 10.4168 79.0207C11.6822 80.2861 13.3979 80.998 15.1875 81H40.5C42.2896 80.998 44.0053 80.2861 45.2707 79.0207C46.5361 77.7553 47.248 76.0396 47.25 74.25V70.875C47.2501 69.9166 47.0457 68.9693 46.6503 68.0962C46.255 67.2232 45.6779 66.4446 44.9575 65.8125C45.6779 65.1804 46.255 64.4018 46.6503 63.5288C47.0457 62.6557 47.2501 61.7084 47.25 60.75V57.375C47.2501 56.4166 47.0457 55.4693 46.6503 54.5962C46.255 53.7232 45.6779 52.9446 44.9575 52.3125C45.6779 51.6804 46.255 50.9018 46.6503 50.0287C47.0457 49.1557 47.2501 48.2084 47.25 47.25V43.875C47.248 42.0854 46.5361 40.3697 45.2707 39.1043C44.0053 37.8389 42.2896 37.127 40.5 37.125ZM43.875 70.875V74.25C43.874 75.1448 43.5181 76.0027 42.8853 76.6353C42.2527 77.2681 41.3948 77.624 40.5 77.625H15.1875C14.2927 77.624 13.4348 77.2681 12.8022 76.6353C12.1694 76.0027 11.8135 75.1448 11.8125 74.25V70.875C11.8135 69.9802 12.1694 69.1223 12.8022 68.4897C13.4348 67.8569 14.2927 67.501 15.1875 67.5H40.5C41.3948 67.501 42.2527 67.8569 42.8853 68.4897C43.5181 69.1223 43.874 69.9802 43.875 70.875ZM43.875 57.375V60.75C43.874 61.6448 43.5181 62.5027 42.8853 63.1353C42.2527 63.7681 41.3948 64.124 40.5 64.125H15.1875C14.2927 64.124 13.4348 63.7681 12.8022 63.1353C12.1694 62.5027 11.8135 61.6448 11.8125 60.75V57.375C11.8135 56.4802 12.1694 55.6223 12.8022 54.9897C13.4348 54.3569 14.2927 54.001 15.1875 54H40.5C41.3948 54.001 42.2527 54.3569 42.8853 54.9897C43.5181 55.6223 43.874 56.4802 43.875 57.375ZM15.1875 50.625C14.2927 50.624 13.4348 50.2681 12.8022 49.6353C12.1694 49.0027 11.8135 48.1448 11.8125 47.25V43.875C11.8135 42.9802 12.1694 42.1223 12.8022 41.4897C13.4348 40.8569 14.2927 40.501 15.1875 40.5H40.5C41.3948 40.501 42.2527 40.8569 42.8853 41.4897C43.5181 42.1223 43.874 42.9802 43.875 43.875V47.25C43.874 48.1448 43.5181 49.0027 42.8853 49.6353C42.2527 50.2681 41.3948 50.624 40.5 50.625H15.1875Z"/>
<path fill-rule="evenodd" clip-rule="evenodd" d="M72.5625 45.5625H86.0625C87.8521 45.5645 89.5678 46.2764 90.8332 47.5418C92.0986 48.8072 92.8105 50.5229 92.8125 52.3125V62.4375C92.8105 64.2271 92.0986 65.9428 90.8332 67.2082C89.5678 68.4736 87.8521 69.1855 86.0625 69.1875H72.5625C70.7729 69.1855 69.0572 68.4736 67.7918 67.2082C66.5264 65.9428 65.8145 64.2271 65.8125 62.4375V52.3125C65.8145 50.5229 66.5264 48.8072 67.7918 47.5418C69.0572 46.2764 70.7729 45.5645 72.5625 45.5625ZM89.4375 53.2206V52.3125C89.4365 51.4177 89.0806 50.5598 88.4478 49.9272C87.8152 49.2944 86.9573 48.9385 86.0625 48.9375H78.6523C78.7195 49.0542 78.7853 49.172 78.8461 49.2937L79.4227 50.447C79.7013 51.009 80.1318 51.4816 80.6653 51.8113C81.1989 52.1411 81.8141 52.3147 82.4413 52.3125H86.0625C87.248 52.3116 88.4125 52.6249 89.4375 53.2206ZM88.4478 64.8228C89.0806 64.1902 89.4365 63.3323 89.4375 62.4375V59.0625C89.4365 58.1677 89.0806 57.3098 88.4478 56.6772C87.8152 56.0444 86.9573 55.6885 86.0625 55.6875H82.4413C81.1869 55.6918 79.9564 55.3445 78.8892 54.685C77.8221 54.0255 76.9611 53.0802 76.4039 51.9563L75.8273 50.803C75.5487 50.241 75.1182 49.7684 74.5847 49.4387C74.0511 49.1089 73.4359 48.9353 72.8087 48.9375H72.5625C71.6677 48.9385 70.8098 49.2944 70.1772 49.9272C69.5444 50.5598 69.1885 51.4177 69.1875 52.3125V62.4375C69.1885 63.3323 69.5444 64.1902 70.1772 64.8228C70.8098 65.4556 71.6677 65.8115 72.5625 65.8125H86.0625C86.9573 65.8115 87.8152 65.4556 88.4478 64.8228Z"/>
<path fill-rule="evenodd" clip-rule="evenodd" d="M86.0625 77.625H72.5625C70.7729 77.627 69.0572 78.3389 67.7918 79.6043C66.5264 80.8697 65.8145 82.5854 65.8125 84.375V94.5C65.8145 96.2896 66.5264 98.0053 67.7918 99.2707C69.0572 100.536 70.7729 101.248 72.5625 101.25H86.0625C87.8521 101.248 89.5678 100.536 90.8332 99.2707C92.0986 98.0053 92.8105 96.2896 92.8125 94.5V84.375C92.8105 82.5854 92.0986 80.8697 90.8332 79.6043C89.5678 78.3389 87.8521 77.627 86.0625 77.625ZM89.4375 84.375V85.2831C88.4125 84.6874 87.248 84.3741 86.0625 84.375H82.4413C81.8141 84.3772 81.1989 84.2036 80.6653 83.8738C80.1318 83.5441 79.7013 83.0715 79.4227 82.5095L78.8461 81.3562C78.7853 81.2345 78.7195 81.1167 78.6523 81H86.0625C86.9573 81.001 87.8152 81.3569 88.4478 81.9897C89.0806 82.6223 89.4365 83.4802 89.4375 84.375ZM89.4375 94.5C89.4365 95.3948 89.0806 96.2527 88.4478 96.8853C87.8152 97.5181 86.9573 97.874 86.0625 97.875H72.5625C71.6677 97.874 70.8098 97.5181 70.1772 96.8853C69.5444 96.2527 69.1885 95.3948 69.1875 94.5V84.375C69.1885 83.4802 69.5444 82.6223 70.1772 81.9897C70.8098 81.3569 71.6677 81.001 72.5625 81H72.8087C73.4359 80.9978 74.0511 81.1714 74.5847 81.5012C75.1182 81.8309 75.5487 82.3035 75.8273 82.8655L76.4039 84.0188C76.9611 85.1427 77.8221 86.088 78.8892 86.7475C79.9564 87.407 81.1869 87.7543 82.4413 87.75H86.0625C86.9573 87.751 87.8152 88.1069 88.4478 88.7397C89.0806 89.3723 89.4365 90.2302 89.4375 91.125V94.5Z"/>
<path d="M48.9375 59.0625V55.6875H62.4375V59.0625H57.375V89.4375H62.4375V92.8125H55.6875C55.24 92.8125 54.8107 92.6347 54.4943 92.3182C54.1778 92.0018 54 91.5725 54 91.125V59.0625H48.9375Z"/>
</mask>
<path d="M96.24 28.8537C93.3062 25.5013 89.3485 23.2101 84.9804 22.3351C81.4469 9.47562 69.654 1.40224e-07 55.6875 1.40224e-07C50.6049 -0.000488141 45.6035 1.27423 41.1412 3.7074C36.6789 6.14056 32.8984 9.65442 30.1459 13.9271C28.6233 13.5061 27.0317 13.3949 25.4654 13.5999C23.899 13.8051 22.3897 14.3223 21.0268 15.1212C19.6639 15.92 18.4751 16.9841 17.5309 18.2506C16.5866 19.5171 15.906 20.9601 15.5294 22.4944C12.188 23.2956 9.10538 24.9338 6.57168 27.2549C4.03799 29.576 2.13657 32.5037 1.04636 35.7623C-0.0438548 39.0209 -0.287019 42.5033 0.339782 45.8818C0.966582 49.2603 2.44275 52.4238 4.6293 55.0745L7.23141 52.9255C5.19534 50.4567 3.9032 47.4598 3.50571 44.2845C3.10818 41.1091 3.62173 37.8862 4.98642 34.9917C6.3511 32.0971 8.51068 29.6502 11.2132 27.9365C13.9158 26.2227 17.0499 25.3127 20.25 25.3125C20.7625 25.3125 21.2794 25.3356 21.7861 25.3813L22.0889 22.0199C21.4818 21.9653 20.863 21.9375 20.25 21.9375C19.9169 21.9375 19.5857 21.9457 19.2564 21.9621C20.0059 20.228 21.3161 18.7958 22.9768 17.8951C24.6374 16.9944 26.5525 16.6774 28.4148 16.995C27.9907 17.86 27.6019 18.7453 27.2589 19.6543L30.4168 20.8457C32.6485 14.9316 36.8842 9.98773 42.3861 6.87534C47.8879 3.76291 54.3073 2.67917 60.526 3.81287C66.7447 4.94659 72.3686 8.22589 76.4182 13.0796C80.4678 17.9333 82.6864 24.0538 82.6875 30.375H86.0625C86.0623 28.9089 85.9563 27.4447 85.7454 25.9939C89.2387 27.0316 92.3049 29.1669 94.4897 32.0836C96.6744 35.0004 97.8615 38.5433 97.875 42.1875C97.8827 45.6617 96.8109 49.0525 94.8078 51.8911L97.5673 53.8344C100.175 50.1233 101.462 45.6441 101.221 41.1147C100.981 36.5852 99.2267 32.2676 96.24 28.8537Z" fill="#E7E7E7"/>
<path d="M15.1875 74.25C16.1195 74.25 16.875 73.4945 16.875 72.5625C16.875 71.6305 16.1195 70.875 15.1875 70.875C14.2555 70.875 13.5 71.6305 13.5 72.5625C13.5 73.4945 14.2555 74.25 15.1875 74.25Z" fill="#E7E7E7"/>
<path d="M21.9375 72.5625C21.9375 73.4945 21.182 74.25 20.25 74.25C19.318 74.25 18.5625 73.4945 18.5625 72.5625C18.5625 71.6305 19.318 70.875 20.25 70.875C21.182 70.875 21.9375 71.6305 21.9375 72.5625Z" fill="#E7E7E7"/>
<path d="M25.3125 74.25C26.2445 74.25 27 73.4945 27 72.5625C27 71.6305 26.2445 70.875 25.3125 70.875C24.3805 70.875 23.625 71.6305 23.625 72.5625C23.625 73.4945 24.3805 74.25 25.3125 74.25Z" fill="#E7E7E7"/>
<path d="M30.375 70.875H40.5V74.25H30.375V70.875Z" fill="#E7E7E7"/>
<path d="M15.1875 60.75C16.1195 60.75 16.875 59.9945 16.875 59.0625C16.875 58.1305 16.1195 57.375 15.1875 57.375C14.2555 57.375 13.5 58.1305 13.5 59.0625C13.5 59.9945 14.2555 60.75 15.1875 60.75Z" fill="#E7E7E7"/>
<path d="M21.9375 59.0625C21.9375 59.9945 21.182 60.75 20.25 60.75C19.318 60.75 18.5625 59.9945 18.5625 59.0625C18.5625 58.1305 19.318 57.375 20.25 57.375C21.182 57.375 21.9375 58.1305 21.9375 59.0625Z" fill="#E7E7E7"/>
<path d="M25.3125 60.75C26.2445 60.75 27 59.9945 27 59.0625C27 58.1305 26.2445 57.375 25.3125 57.375C24.3805 57.375 23.625 58.1305 23.625 59.0625C23.625 59.9945 24.3805 60.75 25.3125 60.75Z" fill="#E7E7E7"/>
<path d="M30.375 57.375H40.5V60.75H30.375V57.375Z" fill="#E7E7E7"/>
<path d="M16.875 45.5625C16.875 46.4945 16.1195 47.25 15.1875 47.25C14.2555 47.25 13.5 46.4945 13.5 45.5625C13.5 44.6305 14.2555 43.875 15.1875 43.875C16.1195 43.875 16.875 44.6305 16.875 45.5625Z" fill="#E7E7E7"/>
<path d="M20.25 47.25C21.182 47.25 21.9375 46.4945 21.9375 45.5625C21.9375 44.6305 21.182 43.875 20.25 43.875C19.318 43.875 18.5625 44.6305 18.5625 45.5625C18.5625 46.4945 19.318 47.25 20.25 47.25Z" fill="#E7E7E7"/>
<path d="M27 45.5625C27 46.4945 26.2445 47.25 25.3125 47.25C24.3805 47.25 23.625 46.4945 23.625 45.5625C23.625 44.6305 24.3805 43.875 25.3125 43.875C26.2445 43.875 27 44.6305 27 45.5625Z" fill="#E7E7E7"/>
<path d="M40.5 43.875H30.375V47.25H40.5V43.875Z" fill="#E7E7E7"/>
<path fill-rule="evenodd" clip-rule="evenodd" d="M40.5 37.125H15.1875C13.3979 37.127 11.6822 37.8389 10.4168 39.1043C9.15137 40.3697 8.43954 42.0854 8.4375 43.875V47.25C8.43738 48.2084 8.64181 49.1557 9.03717 50.0287C9.43252 50.9018 10.0096 51.6804 10.73 52.3125C10.0096 52.9446 9.43252 53.7232 9.03717 54.5962C8.64181 55.4693 8.43738 56.4166 8.4375 57.375V60.75C8.43738 61.7084 8.64181 62.6557 9.03717 63.5288C9.43252 64.4018 10.0096 65.1804 10.73 65.8125C10.0096 66.4446 9.43252 67.2232 9.03717 68.0962C8.64181 68.9693 8.43738 69.9166 8.4375 70.875V74.25C8.43954 76.0396 9.15137 77.7553 10.4168 79.0207C11.6822 80.2861 13.3979 80.998 15.1875 81H40.5C42.2896 80.998 44.0053 80.2861 45.2707 79.0207C46.5361 77.7553 47.248 76.0396 47.25 74.25V70.875C47.2501 69.9166 47.0457 68.9693 46.6503 68.0962C46.255 67.2232 45.6779 66.4446 44.9575 65.8125C45.6779 65.1804 46.255 64.4018 46.6503 63.5288C47.0457 62.6557 47.2501 61.7084 47.25 60.75V57.375C47.2501 56.4166 47.0457 55.4693 46.6503 54.5962C46.255 53.7232 45.6779 52.9446 44.9575 52.3125C45.6779 51.6804 46.255 50.9018 46.6503 50.0287C47.0457 49.1557 47.2501 48.2084 47.25 47.25V43.875C47.248 42.0854 46.5361 40.3697 45.2707 39.1043C44.0053 37.8389 42.2896 37.127 40.5 37.125ZM43.875 70.875V74.25C43.874 75.1448 43.5181 76.0027 42.8853 76.6353C42.2527 77.2681 41.3948 77.624 40.5 77.625H15.1875C14.2927 77.624 13.4348 77.2681 12.8022 76.6353C12.1694 76.0027 11.8135 75.1448 11.8125 74.25V70.875C11.8135 69.9802 12.1694 69.1223 12.8022 68.4897C13.4348 67.8569 14.2927 67.501 15.1875 67.5H40.5C41.3948 67.501 42.2527 67.8569 42.8853 68.4897C43.5181 69.1223 43.874 69.9802 43.875 70.875ZM43.875 57.375V60.75C43.874 61.6448 43.5181 62.5027 42.8853 63.1353C42.2527 63.7681 41.3948 64.124 40.5 64.125H15.1875C14.2927 64.124 13.4348 63.7681 12.8022 63.1353C12.1694 62.5027 11.8135 61.6448 11.8125 60.75V57.375C11.8135 56.4802 12.1694 55.6223 12.8022 54.9897C13.4348 54.3569 14.2927 54.001 15.1875 54H40.5C41.3948 54.001 42.2527 54.3569 42.8853 54.9897C43.5181 55.6223 43.874 56.4802 43.875 57.375ZM15.1875 50.625C14.2927 50.624 13.4348 50.2681 12.8022 49.6353C12.1694 49.0027 11.8135 48.1448 11.8125 47.25V43.875C11.8135 42.9802 12.1694 42.1223 12.8022 41.4897C13.4348 40.8569 14.2927 40.501 15.1875 40.5H40.5C41.3948 40.501 42.2527 40.8569 42.8853 41.4897C43.5181 42.1223 43.874 42.9802 43.875 43.875V47.25C43.874 48.1448 43.5181 49.0027 42.8853 49.6353C42.2527 50.2681 41.3948 50.624 40.5 50.625H15.1875Z" fill="#E7E7E7"/>
<path fill-rule="evenodd" clip-rule="evenodd" d="M72.5625 45.5625H86.0625C87.8521 45.5645 89.5678 46.2764 90.8332 47.5418C92.0986 48.8072 92.8105 50.5229 92.8125 52.3125V62.4375C92.8105 64.2271 92.0986 65.9428 90.8332 67.2082C89.5678 68.4736 87.8521 69.1855 86.0625 69.1875H72.5625C70.7729 69.1855 69.0572 68.4736 67.7918 67.2082C66.5264 65.9428 65.8145 64.2271 65.8125 62.4375V52.3125C65.8145 50.5229 66.5264 48.8072 67.7918 47.5418C69.0572 46.2764 70.7729 45.5645 72.5625 45.5625ZM89.4375 53.2206V52.3125C89.4365 51.4177 89.0806 50.5598 88.4478 49.9272C87.8152 49.2944 86.9573 48.9385 86.0625 48.9375H78.6523C78.7195 49.0542 78.7853 49.172 78.8461 49.2937L79.4227 50.447C79.7013 51.009 80.1318 51.4816 80.6653 51.8113C81.1989 52.1411 81.8141 52.3147 82.4413 52.3125H86.0625C87.248 52.3116 88.4125 52.6249 89.4375 53.2206ZM88.4478 64.8228C89.0806 64.1902 89.4365 63.3323 89.4375 62.4375V59.0625C89.4365 58.1677 89.0806 57.3098 88.4478 56.6772C87.8152 56.0444 86.9573 55.6885 86.0625 55.6875H82.4413C81.1869 55.6918 79.9564 55.3445 78.8892 54.685C77.8221 54.0255 76.9611 53.0802 76.4039 51.9563L75.8273 50.803C75.5487 50.241 75.1182 49.7684 74.5847 49.4387C74.0511 49.1089 73.4359 48.9353 72.8087 48.9375H72.5625C71.6677 48.9385 70.8098 49.2944 70.1772 49.9272C69.5444 50.5598 69.1885 51.4177 69.1875 52.3125V62.4375C69.1885 63.3323 69.5444 64.1902 70.1772 64.8228C70.8098 65.4556 71.6677 65.8115 72.5625 65.8125H86.0625C86.9573 65.8115 87.8152 65.4556 88.4478 64.8228Z" fill="#E7E7E7"/>
<path fill-rule="evenodd" clip-rule="evenodd" d="M86.0625 77.625H72.5625C70.7729 77.627 69.0572 78.3389 67.7918 79.6043C66.5264 80.8697 65.8145 82.5854 65.8125 84.375V94.5C65.8145 96.2896 66.5264 98.0053 67.7918 99.2707C69.0572 100.536 70.7729 101.248 72.5625 101.25H86.0625C87.8521 101.248 89.5678 100.536 90.8332 99.2707C92.0986 98.0053 92.8105 96.2896 92.8125 94.5V84.375C92.8105 82.5854 92.0986 80.8697 90.8332 79.6043C89.5678 78.3389 87.8521 77.627 86.0625 77.625ZM89.4375 84.375V85.2831C88.4125 84.6874 87.248 84.3741 86.0625 84.375H82.4413C81.8141 84.3772 81.1989 84.2036 80.6653 83.8738C80.1318 83.5441 79.7013 83.0715 79.4227 82.5095L78.8461 81.3562C78.7853 81.2345 78.7195 81.1167 78.6523 81H86.0625C86.9573 81.001 87.8152 81.3569 88.4478 81.9897C89.0806 82.6223 89.4365 83.4802 89.4375 84.375ZM89.4375 94.5C89.4365 95.3948 89.0806 96.2527 88.4478 96.8853C87.8152 97.5181 86.9573 97.874 86.0625 97.875H72.5625C71.6677 97.874 70.8098 97.5181 70.1772 96.8853C69.5444 96.2527 69.1885 95.3948 69.1875 94.5V84.375C69.1885 83.4802 69.5444 82.6223 70.1772 81.9897C70.8098 81.3569 71.6677 81.001 72.5625 81H72.8087C73.4359 80.9978 74.0511 81.1714 74.5847 81.5012C75.1182 81.8309 75.5487 82.3035 75.8273 82.8655L76.4039 84.0188C76.9611 85.1427 77.8221 86.088 78.8892 86.7475C79.9564 87.407 81.1869 87.7543 82.4413 87.75H86.0625C86.9573 87.751 87.8152 88.1069 88.4478 88.7397C89.0806 89.3723 89.4365 90.2302 89.4375 91.125V94.5Z" fill="#E7E7E7"/>
<path d="M48.9375 59.0625V55.6875H62.4375V59.0625H57.375V89.4375H62.4375V92.8125H55.6875C55.24 92.8125 54.8107 92.6347 54.4943 92.3182C54.1778 92.0018 54 91.5725 54 91.125V59.0625H48.9375Z" fill="#E7E7E7"/>
<path d="M96.24 28.8537C93.3062 25.5013 89.3485 23.2101 84.9804 22.3351C81.4469 9.47562 69.654 1.40224e-07 55.6875 1.40224e-07C50.6049 -0.000488141 45.6035 1.27423 41.1412 3.7074C36.6789 6.14056 32.8984 9.65442 30.1459 13.9271C28.6233 13.5061 27.0317 13.3949 25.4654 13.5999C23.899 13.8051 22.3897 14.3223 21.0268 15.1212C19.6639 15.92 18.4751 16.9841 17.5309 18.2506C16.5866 19.5171 15.906 20.9601 15.5294 22.4944C12.188 23.2956 9.10538 24.9338 6.57168 27.2549C4.03799 29.576 2.13657 32.5037 1.04636 35.7623C-0.0438548 39.0209 -0.287019 42.5033 0.339782 45.8818C0.966582 49.2603 2.44275 52.4238 4.6293 55.0745L7.23141 52.9255C5.19534 50.4567 3.9032 47.4598 3.50571 44.2845C3.10818 41.1091 3.62173 37.8862 4.98642 34.9917C6.3511 32.0971 8.51068 29.6502 11.2132 27.9365C13.9158 26.2227 17.0499 25.3127 20.25 25.3125C20.7625 25.3125 21.2794 25.3356 21.7861 25.3813L22.0889 22.0199C21.4818 21.9653 20.863 21.9375 20.25 21.9375C19.9169 21.9375 19.5857 21.9457 19.2564 21.9621C20.0059 20.228 21.3161 18.7958 22.9768 17.8951C24.6374 16.9944 26.5525 16.6774 28.4148 16.995C27.9907 17.86 27.6019 18.7453 27.2589 19.6543L30.4168 20.8457C32.6485 14.9316 36.8842 9.98773 42.3861 6.87534C47.8879 3.76291 54.3073 2.67917 60.526 3.81287C66.7447 4.94659 72.3686 8.22589 76.4182 13.0796C80.4678 17.9333 82.6864 24.0538 82.6875 30.375H86.0625C86.0623 28.9089 85.9563 27.4447 85.7454 25.9939C89.2387 27.0316 92.3049 29.1669 94.4897 32.0836C96.6744 35.0004 97.8615 38.5433 97.875 42.1875C97.8827 45.6617 96.8109 49.0525 94.8078 51.8911L97.5673 53.8344C100.175 50.1233 101.462 45.6441 101.221 41.1147C100.981 36.5852 99.2267 32.2676 96.24 28.8537Z" stroke="white" stroke-width="2" mask="url(#path-1-inside-1)"/>
<path d="M15.1875 74.25C16.1195 74.25 16.875 73.4945 16.875 72.5625C16.875 71.6305 16.1195 70.875 15.1875 70.875C14.2555 70.875 13.5 71.6305 13.5 72.5625C13.5 73.4945 14.2555 74.25 15.1875 74.25Z" stroke="white" stroke-width="2" mask="url(#path-1-inside-1)"/>
<path d="M21.9375 72.5625C21.9375 73.4945 21.182 74.25 20.25 74.25C19.318 74.25 18.5625 73.4945 18.5625 72.5625C18.5625 71.6305 19.318 70.875 20.25 70.875C21.182 70.875 21.9375 71.6305 21.9375 72.5625Z" stroke="white" stroke-width="2" mask="url(#path-1-inside-1)"/>
<path d="M25.3125 74.25C26.2445 74.25 27 73.4945 27 72.5625C27 71.6305 26.2445 70.875 25.3125 70.875C24.3805 70.875 23.625 71.6305 23.625 72.5625C23.625 73.4945 24.3805 74.25 25.3125 74.25Z" stroke="white" stroke-width="2" mask="url(#path-1-inside-1)"/>
<path d="M30.375 70.875H40.5V74.25H30.375V70.875Z" stroke="white" stroke-width="2" mask="url(#path-1-inside-1)"/>
<path d="M15.1875 60.75C16.1195 60.75 16.875 59.9945 16.875 59.0625C16.875 58.1305 16.1195 57.375 15.1875 57.375C14.2555 57.375 13.5 58.1305 13.5 59.0625C13.5 59.9945 14.2555 60.75 15.1875 60.75Z" stroke="white" stroke-width="2" mask="url(#path-1-inside-1)"/>
<path d="M21.9375 59.0625C21.9375 59.9945 21.182 60.75 20.25 60.75C19.318 60.75 18.5625 59.9945 18.5625 59.0625C18.5625 58.1305 19.318 57.375 20.25 57.375C21.182 57.375 21.9375 58.1305 21.9375 59.0625Z" stroke="white" stroke-width="2" mask="url(#path-1-inside-1)"/>
<path d="M25.3125 60.75C26.2445 60.75 27 59.9945 27 59.0625C27 58.1305 26.2445 57.375 25.3125 57.375C24.3805 57.375 23.625 58.1305 23.625 59.0625C23.625 59.9945 24.3805 60.75 25.3125 60.75Z" stroke="white" stroke-width="2" mask="url(#path-1-inside-1)"/>
<path d="M30.375 57.375H40.5V60.75H30.375V57.375Z" stroke="white" stroke-width="2" mask="url(#path-1-inside-1)"/>
<path d="M16.875 45.5625C16.875 46.4945 16.1195 47.25 15.1875 47.25C14.2555 47.25 13.5 46.4945 13.5 45.5625C13.5 44.6305 14.2555 43.875 15.1875 43.875C16.1195 43.875 16.875 44.6305 16.875 45.5625Z" stroke="white" stroke-width="2" mask="url(#path-1-inside-1)"/>
<path d="M20.25 47.25C21.182 47.25 21.9375 46.4945 21.9375 45.5625C21.9375 44.6305 21.182 43.875 20.25 43.875C19.318 43.875 18.5625 44.6305 18.5625 45.5625C18.5625 46.4945 19.318 47.25 20.25 47.25Z" stroke="white" stroke-width="2" mask="url(#path-1-inside-1)"/>
<path d="M27 45.5625C27 46.4945 26.2445 47.25 25.3125 47.25C24.3805 47.25 23.625 46.4945 23.625 45.5625C23.625 44.6305 24.3805 43.875 25.3125 43.875C26.2445 43.875 27 44.6305 27 45.5625Z" stroke="white" stroke-width="2" mask="url(#path-1-inside-1)"/>
<path d="M40.5 43.875H30.375V47.25H40.5V43.875Z" stroke="white" stroke-width="2" mask="url(#path-1-inside-1)"/>
<path fill-rule="evenodd" clip-rule="evenodd" d="M40.5 37.125H15.1875C13.3979 37.127 11.6822 37.8389 10.4168 39.1043C9.15137 40.3697 8.43954 42.0854 8.4375 43.875V47.25C8.43738 48.2084 8.64181 49.1557 9.03717 50.0287C9.43252 50.9018 10.0096 51.6804 10.73 52.3125C10.0096 52.9446 9.43252 53.7232 9.03717 54.5962C8.64181 55.4693 8.43738 56.4166 8.4375 57.375V60.75C8.43738 61.7084 8.64181 62.6557 9.03717 63.5288C9.43252 64.4018 10.0096 65.1804 10.73 65.8125C10.0096 66.4446 9.43252 67.2232 9.03717 68.0962C8.64181 68.9693 8.43738 69.9166 8.4375 70.875V74.25C8.43954 76.0396 9.15137 77.7553 10.4168 79.0207C11.6822 80.2861 13.3979 80.998 15.1875 81H40.5C42.2896 80.998 44.0053 80.2861 45.2707 79.0207C46.5361 77.7553 47.248 76.0396 47.25 74.25V70.875C47.2501 69.9166 47.0457 68.9693 46.6503 68.0962C46.255 67.2232 45.6779 66.4446 44.9575 65.8125C45.6779 65.1804 46.255 64.4018 46.6503 63.5288C47.0457 62.6557 47.2501 61.7084 47.25 60.75V57.375C47.2501 56.4166 47.0457 55.4693 46.6503 54.5962C46.255 53.7232 45.6779 52.9446 44.9575 52.3125C45.6779 51.6804 46.255 50.9018 46.6503 50.0287C47.0457 49.1557 47.2501 48.2084 47.25 47.25V43.875C47.248 42.0854 46.5361 40.3697 45.2707 39.1043C44.0053 37.8389 42.2896 37.127 40.5 37.125ZM43.875 70.875V74.25C43.874 75.1448 43.5181 76.0027 42.8853 76.6353C42.2527 77.2681 41.3948 77.624 40.5 77.625H15.1875C14.2927 77.624 13.4348 77.2681 12.8022 76.6353C12.1694 76.0027 11.8135 75.1448 11.8125 74.25V70.875C11.8135 69.9802 12.1694 69.1223 12.8022 68.4897C13.4348 67.8569 14.2927 67.501 15.1875 67.5H40.5C41.3948 67.501 42.2527 67.8569 42.8853 68.4897C43.5181 69.1223 43.874 69.9802 43.875 70.875ZM43.875 57.375V60.75C43.874 61.6448 43.5181 62.5027 42.8853 63.1353C42.2527 63.7681 41.3948 64.124 40.5 64.125H15.1875C14.2927 64.124 13.4348 63.7681 12.8022 63.1353C12.1694 62.5027 11.8135 61.6448 11.8125 60.75V57.375C11.8135 56.4802 12.1694 55.6223 12.8022 54.9897C13.4348 54.3569 14.2927 54.001 15.1875 54H40.5C41.3948 54.001 42.2527 54.3569 42.8853 54.9897C43.5181 55.6223 43.874 56.4802 43.875 57.375ZM15.1875 50.625C14.2927 50.624 13.4348 50.2681 12.8022 49.6353C12.1694 49.0027 11.8135 48.1448 11.8125 47.25V43.875C11.8135 42.9802 12.1694 42.1223 12.8022 41.4897C13.4348 40.8569 14.2927 40.501 15.1875 40.5H40.5C41.3948 40.501 42.2527 40.8569 42.8853 41.4897C43.5181 42.1223 43.874 42.9802 43.875 43.875V47.25C43.874 48.1448 43.5181 49.0027 42.8853 49.6353C42.2527 50.2681 41.3948 50.624 40.5 50.625H15.1875Z" stroke="white" stroke-width="2" mask="url(#path-1-inside-1)"/>
<path fill-rule="evenodd" clip-rule="evenodd" d="M72.5625 45.5625H86.0625C87.8521 45.5645 89.5678 46.2764 90.8332 47.5418C92.0986 48.8072 92.8105 50.5229 92.8125 52.3125V62.4375C92.8105 64.2271 92.0986 65.9428 90.8332 67.2082C89.5678 68.4736 87.8521 69.1855 86.0625 69.1875H72.5625C70.7729 69.1855 69.0572 68.4736 67.7918 67.2082C66.5264 65.9428 65.8145 64.2271 65.8125 62.4375V52.3125C65.8145 50.5229 66.5264 48.8072 67.7918 47.5418C69.0572 46.2764 70.7729 45.5645 72.5625 45.5625ZM89.4375 53.2206V52.3125C89.4365 51.4177 89.0806 50.5598 88.4478 49.9272C87.8152 49.2944 86.9573 48.9385 86.0625 48.9375H78.6523C78.7195 49.0542 78.7853 49.172 78.8461 49.2937L79.4227 50.447C79.7013 51.009 80.1318 51.4816 80.6653 51.8113C81.1989 52.1411 81.8141 52.3147 82.4413 52.3125H86.0625C87.248 52.3116 88.4125 52.6249 89.4375 53.2206ZM88.4478 64.8228C89.0806 64.1902 89.4365 63.3323 89.4375 62.4375V59.0625C89.4365 58.1677 89.0806 57.3098 88.4478 56.6772C87.8152 56.0444 86.9573 55.6885 86.0625 55.6875H82.4413C81.1869 55.6918 79.9564 55.3445 78.8892 54.685C77.8221 54.0255 76.9611 53.0802 76.4039 51.9563L75.8273 50.803C75.5487 50.241 75.1182 49.7684 74.5847 49.4387C74.0511 49.1089 73.4359 48.9353 72.8087 48.9375H72.5625C71.6677 48.9385 70.8098 49.2944 70.1772 49.9272C69.5444 50.5598 69.1885 51.4177 69.1875 52.3125V62.4375C69.1885 63.3323 69.5444 64.1902 70.1772 64.8228C70.8098 65.4556 71.6677 65.8115 72.5625 65.8125H86.0625C86.9573 65.8115 87.8152 65.4556 88.4478 64.8228Z" stroke="white" stroke-width="2" mask="url(#path-1-inside-1)"/>
<path fill-rule="evenodd" clip-rule="evenodd" d="M86.0625 77.625H72.5625C70.7729 77.627 69.0572 78.3389 67.7918 79.6043C66.5264 80.8697 65.8145 82.5854 65.8125 84.375V94.5C65.8145 96.2896 66.5264 98.0053 67.7918 99.2707C69.0572 100.536 70.7729 101.248 72.5625 101.25H86.0625C87.8521 101.248 89.5678 100.536 90.8332 99.2707C92.0986 98.0053 92.8105 96.2896 92.8125 94.5V84.375C92.8105 82.5854 92.0986 80.8697 90.8332 79.6043C89.5678 78.3389 87.8521 77.627 86.0625 77.625ZM89.4375 84.375V85.2831C88.4125 84.6874 87.248 84.3741 86.0625 84.375H82.4413C81.8141 84.3772 81.1989 84.2036 80.6653 83.8738C80.1318 83.5441 79.7013 83.0715 79.4227 82.5095L78.8461 81.3562C78.7853 81.2345 78.7195 81.1167 78.6523 81H86.0625C86.9573 81.001 87.8152 81.3569 88.4478 81.9897C89.0806 82.6223 89.4365 83.4802 89.4375 84.375ZM89.4375 94.5C89.4365 95.3948 89.0806 96.2527 88.4478 96.8853C87.8152 97.5181 86.9573 97.874 86.0625 97.875H72.5625C71.6677 97.874 70.8098 97.5181 70.1772 96.8853C69.5444 96.2527 69.1885 95.3948 69.1875 94.5V84.375C69.1885 83.4802 69.5444 82.6223 70.1772 81.9897C70.8098 81.3569 71.6677 81.001 72.5625 81H72.8087C73.4359 80.9978 74.0511 81.1714 74.5847 81.5012C75.1182 81.8309 75.5487 82.3035 75.8273 82.8655L76.4039 84.0188C76.9611 85.1427 77.8221 86.088 78.8892 86.7475C79.9564 87.407 81.1869 87.7543 82.4413 87.75H86.0625C86.9573 87.751 87.8152 88.1069 88.4478 88.7397C89.0806 89.3723 89.4365 90.2302 89.4375 91.125V94.5Z" stroke="white" stroke-width="2" mask="url(#path-1-inside-1)"/>
<path d="M48.9375 59.0625V55.6875H62.4375V59.0625H57.375V89.4375H62.4375V92.8125H55.6875C55.24 92.8125 54.8107 92.6347 54.4943 92.3182C54.1778 92.0018 54 91.5725 54 91.125V59.0625H48.9375Z" stroke="white" stroke-width="2" mask="url(#path-1-inside-1)"/>
</svg>
