<svg width="80" height="100" viewBox="0 0 80 100" fill="none" xmlns="http://www.w3.org/2000/svg">
<mask id="path-1-inside-1" fill="white">
<path fill-rule="evenodd" clip-rule="evenodd" d="M70.7168 61.2903C73.3751 61.2903 75.5384 59.1194 75.5384 56.4516C75.5384 53.7839 73.3751 51.6129 70.7168 51.6129C68.0585 51.6129 65.8952 53.7839 65.8952 56.4516C65.8952 59.1194 68.0585 61.2903 70.7168 61.2903ZM70.7168 54.8387C71.6024 54.8387 72.324 55.5629 72.324 56.4516C72.324 57.3403 71.6024 58.0645 70.7168 58.0645C69.8312 58.0645 69.1096 57.3403 69.1096 56.4516C69.1096 55.5629 69.8312 54.8387 70.7168 54.8387Z"/>
<path fill-rule="evenodd" clip-rule="evenodd" d="M70.7168 67.7419C76.9206 67.7419 81.9672 62.6774 81.9672 56.4516C81.9672 50.2258 76.9206 45.1613 70.7168 45.1613C64.513 45.1613 59.4664 50.2258 59.4664 56.4516C59.4664 62.6774 64.513 67.7419 70.7168 67.7419ZM70.7168 48.3871C75.1479 48.3871 78.7528 52.0048 78.7528 56.4516C78.7528 60.8984 75.1479 64.5161 70.7168 64.5161C66.2858 64.5161 62.6808 60.8984 62.6808 56.4516C62.6808 52.0048 66.2858 48.3871 70.7168 48.3871Z"/>
<path fill-rule="evenodd" clip-rule="evenodd" d="M16.072 6.45161H6.4288V16.129H16.072V6.45161ZM12.8576 12.9032H9.6432V9.67742H12.8576V12.9032Z"/>
<path fill-rule="evenodd" clip-rule="evenodd" d="M19.2864 6.45161H28.9296V16.129H19.2864V6.45161ZM22.5008 12.9032H25.7152V9.67742H22.5008V12.9032Z"/>
<path fill-rule="evenodd" clip-rule="evenodd" d="M41.7872 6.45161H32.144V16.129H41.7872V6.45161ZM38.5728 12.9032H35.3584V9.67742H38.5728V12.9032Z"/>
<path fill-rule="evenodd" clip-rule="evenodd" d="M35.3584 25.8065H45.0016V58.0645H48.216V61.2903H6.4288V58.0645H9.6432V45.1613H19.2864V58.0645H22.5008V38.7097H32.144V58.0645H35.3584V25.8065ZM41.7872 29.0323H38.5728V58.0645H41.7872V29.0323ZM28.9296 41.9355H25.7152V58.0645H28.9296V41.9355ZM16.072 48.3871H12.8576V58.0645H16.072V48.3871Z"/>
<path d="M6.4288 25.8065H9.6432V29.0323H6.4288V25.8065Z"/>
<path d="M28.9296 25.8065H12.8576V29.0323H28.9296V25.8065Z"/>
<path d="M6.4288 32.2581H9.6432V35.4839H6.4288V32.2581Z"/>
<path d="M28.9296 32.2581H12.8576V35.4839H28.9296V32.2581Z"/>
<path fill-rule="evenodd" clip-rule="evenodd" d="M81.6522 80.6452L80.548 82.4193L80.9402 83.4016C82.7081 87.8387 81.9592 92.9129 78.9842 96.6451L76.3098 100H72.324V98.3871C72.324 95.7758 71.3404 93.3161 69.5484 91.4355L66.4706 97.6113L63.4282 95.321C59.947 92.7016 58.6451 88.0403 60.262 83.9855L60.8856 82.4193L59.7814 80.6452H41.4336L42.0765 77.4193H4.8216C2.16329 77.4193 0 75.2484 0 72.5806V4.83871C0 2.17097 2.16329 0 4.8216 0H83.5744C86.2327 0 88.396 2.17097 88.396 4.83871V58.0645H88.3847C88.3855 58.1114 88.3879 58.1576 88.3902 58.2038C88.3931 58.2591 88.396 58.3147 88.396 58.371C88.396 59.5855 88.3205 60.7919 88.2112 61.9952L97.8962 70.0935L100 80.6452H81.6522ZM61.8081 77.8145L63.5712 80.6452H77.8624L79.6239 77.8145C80.3536 76.6435 80.9932 75.429 81.5831 74.1936H59.8489C60.4388 75.4306 61.0784 76.6435 61.8081 77.8145ZM81.2857 41.9355H60.1479C57.602 47.021 56.252 52.6193 56.252 58.371C56.252 62.6935 57.0106 66.9516 58.4748 70.9677H82.9588C84.423 66.9516 85.1816 62.6935 85.1816 58.371C85.1816 52.6193 83.8316 47.021 81.2857 41.9355ZM62.1541 38.4048C62.0933 38.5071 62.0326 38.6093 61.9688 38.7097V38.7113H79.4632C79.4015 38.6136 79.3427 38.5148 79.284 38.416C79.2052 38.2834 79.126 38.1502 79.0405 38.021L74.3764 30.9984C73.5599 29.7677 72.1906 29.0323 70.7168 29.0323C69.243 29.0323 67.8737 29.7677 67.0556 30.9968L62.3915 38.0194C62.308 38.1455 62.231 38.2752 62.1541 38.4048ZM96.0784 77.4193L94.9678 71.8419L87.6888 65.7548C86.9254 69.8258 85.5432 73.7597 83.5615 77.4193H96.0784ZM83.5744 3.22581H4.8216C3.93603 3.22581 3.2144 3.95 3.2144 4.83871V19.3548H85.1816V4.83871C85.1816 3.95 84.46 3.22581 83.5744 3.22581ZM4.8216 74.1936H42.7194L43.5374 70.0919L53.2224 61.9935C53.1131 60.7919 53.0376 59.5855 53.0376 58.371C53.0376 50.4645 55.3471 42.8097 59.7187 36.2306L64.3828 29.2081C65.7972 27.079 68.1646 25.8065 70.7168 25.8065C73.269 25.8065 75.6364 27.079 77.0524 29.2064L81.7165 36.229C83.0842 38.2887 84.2253 40.4629 85.1816 42.7081V22.5806H3.2144V72.5806C3.2144 73.4694 3.93603 74.1936 4.8216 74.1936ZM53.7448 65.7548L46.4658 71.8419L45.3552 77.4193H57.8721C55.8904 73.7597 54.5082 69.8258 53.7448 65.7548ZM75.3375 96.0564L76.4754 94.6306C78.7271 91.8032 79.2944 87.9613 77.9556 84.6016L77.6647 83.871H63.7689L63.2481 85.1823C62.1761 87.871 63.0296 90.9597 65.3214 92.7113L68.6708 85.9871L71.6586 88.9855C73.6049 90.9387 74.8714 93.3919 75.3375 96.0564Z"/>
</mask>
<path fill-rule="evenodd" clip-rule="evenodd" d="M70.7168 61.2903C73.3751 61.2903 75.5384 59.1194 75.5384 56.4516C75.5384 53.7839 73.3751 51.6129 70.7168 51.6129C68.0585 51.6129 65.8952 53.7839 65.8952 56.4516C65.8952 59.1194 68.0585 61.2903 70.7168 61.2903ZM70.7168 54.8387C71.6024 54.8387 72.324 55.5629 72.324 56.4516C72.324 57.3403 71.6024 58.0645 70.7168 58.0645C69.8312 58.0645 69.1096 57.3403 69.1096 56.4516C69.1096 55.5629 69.8312 54.8387 70.7168 54.8387Z" fill="#E7E7E7"/>
<path fill-rule="evenodd" clip-rule="evenodd" d="M70.7168 67.7419C76.9206 67.7419 81.9672 62.6774 81.9672 56.4516C81.9672 50.2258 76.9206 45.1613 70.7168 45.1613C64.513 45.1613 59.4664 50.2258 59.4664 56.4516C59.4664 62.6774 64.513 67.7419 70.7168 67.7419ZM70.7168 48.3871C75.1479 48.3871 78.7528 52.0048 78.7528 56.4516C78.7528 60.8984 75.1479 64.5161 70.7168 64.5161C66.2858 64.5161 62.6808 60.8984 62.6808 56.4516C62.6808 52.0048 66.2858 48.3871 70.7168 48.3871Z" fill="#E7E7E7"/>
<path fill-rule="evenodd" clip-rule="evenodd" d="M16.072 6.45161H6.4288V16.129H16.072V6.45161ZM12.8576 12.9032H9.6432V9.67742H12.8576V12.9032Z" fill="#E7E7E7"/>
<path fill-rule="evenodd" clip-rule="evenodd" d="M19.2864 6.45161H28.9296V16.129H19.2864V6.45161ZM22.5008 12.9032H25.7152V9.67742H22.5008V12.9032Z" fill="#E7E7E7"/>
<path fill-rule="evenodd" clip-rule="evenodd" d="M41.7872 6.45161H32.144V16.129H41.7872V6.45161ZM38.5728 12.9032H35.3584V9.67742H38.5728V12.9032Z" fill="#E7E7E7"/>
<path fill-rule="evenodd" clip-rule="evenodd" d="M35.3584 25.8065H45.0016V58.0645H48.216V61.2903H6.4288V58.0645H9.6432V45.1613H19.2864V58.0645H22.5008V38.7097H32.144V58.0645H35.3584V25.8065ZM41.7872 29.0323H38.5728V58.0645H41.7872V29.0323ZM28.9296 41.9355H25.7152V58.0645H28.9296V41.9355ZM16.072 48.3871H12.8576V58.0645H16.072V48.3871Z" fill="#E7E7E7"/>
<path d="M6.4288 25.8065H9.6432V29.0323H6.4288V25.8065Z" fill="#E7E7E7"/>
<path d="M28.9296 25.8065H12.8576V29.0323H28.9296V25.8065Z" fill="#E7E7E7"/>
<path d="M6.4288 32.2581H9.6432V35.4839H6.4288V32.2581Z" fill="#E7E7E7"/>
<path d="M28.9296 32.2581H12.8576V35.4839H28.9296V32.2581Z" fill="#E7E7E7"/>
<path fill-rule="evenodd" clip-rule="evenodd" d="M81.6522 80.6452L80.548 82.4193L80.9402 83.4016C82.7081 87.8387 81.9592 92.9129 78.9842 96.6451L76.3098 100H72.324V98.3871C72.324 95.7758 71.3404 93.3161 69.5484 91.4355L66.4706 97.6113L63.4282 95.321C59.947 92.7016 58.6451 88.0403 60.262 83.9855L60.8856 82.4193L59.7814 80.6452H41.4336L42.0765 77.4193H4.8216C2.16329 77.4193 0 75.2484 0 72.5806V4.83871C0 2.17097 2.16329 0 4.8216 0H83.5744C86.2327 0 88.396 2.17097 88.396 4.83871V58.0645H88.3847C88.3855 58.1114 88.3879 58.1576 88.3902 58.2038C88.3931 58.2591 88.396 58.3147 88.396 58.371C88.396 59.5855 88.3205 60.7919 88.2112 61.9952L97.8962 70.0935L100 80.6452H81.6522ZM61.8081 77.8145L63.5712 80.6452H77.8624L79.6239 77.8145C80.3536 76.6435 80.9932 75.429 81.5831 74.1936H59.8489C60.4388 75.4306 61.0784 76.6435 61.8081 77.8145ZM81.2857 41.9355H60.1479C57.602 47.021 56.252 52.6193 56.252 58.371C56.252 62.6935 57.0106 66.9516 58.4748 70.9677H82.9588C84.423 66.9516 85.1816 62.6935 85.1816 58.371C85.1816 52.6193 83.8316 47.021 81.2857 41.9355ZM62.1541 38.4048C62.0933 38.5071 62.0326 38.6093 61.9688 38.7097V38.7113H79.4632C79.4015 38.6136 79.3427 38.5148 79.284 38.416C79.2052 38.2834 79.126 38.1502 79.0405 38.021L74.3764 30.9984C73.5599 29.7677 72.1906 29.0323 70.7168 29.0323C69.243 29.0323 67.8737 29.7677 67.0556 30.9968L62.3915 38.0194C62.308 38.1455 62.231 38.2752 62.1541 38.4048ZM96.0784 77.4193L94.9678 71.8419L87.6888 65.7548C86.9254 69.8258 85.5432 73.7597 83.5615 77.4193H96.0784ZM83.5744 3.22581H4.8216C3.93603 3.22581 3.2144 3.95 3.2144 4.83871V19.3548H85.1816V4.83871C85.1816 3.95 84.46 3.22581 83.5744 3.22581ZM4.8216 74.1936H42.7194L43.5374 70.0919L53.2224 61.9935C53.1131 60.7919 53.0376 59.5855 53.0376 58.371C53.0376 50.4645 55.3471 42.8097 59.7187 36.2306L64.3828 29.2081C65.7972 27.079 68.1646 25.8065 70.7168 25.8065C73.269 25.8065 75.6364 27.079 77.0524 29.2064L81.7165 36.229C83.0842 38.2887 84.2253 40.4629 85.1816 42.7081V22.5806H3.2144V72.5806C3.2144 73.4694 3.93603 74.1936 4.8216 74.1936ZM53.7448 65.7548L46.4658 71.8419L45.3552 77.4193H57.8721C55.8904 73.7597 54.5082 69.8258 53.7448 65.7548ZM75.3375 96.0564L76.4754 94.6306C78.7271 91.8032 79.2944 87.9613 77.9556 84.6016L77.6647 83.871H63.7689L63.2481 85.1823C62.1761 87.871 63.0296 90.9597 65.3214 92.7113L68.6708 85.9871L71.6586 88.9855C73.6049 90.9387 74.8714 93.3919 75.3375 96.0564Z" fill="#E7E7E7"/>
<path fill-rule="evenodd" clip-rule="evenodd" d="M70.7168 61.2903C73.3751 61.2903 75.5384 59.1194 75.5384 56.4516C75.5384 53.7839 73.3751 51.6129 70.7168 51.6129C68.0585 51.6129 65.8952 53.7839 65.8952 56.4516C65.8952 59.1194 68.0585 61.2903 70.7168 61.2903ZM70.7168 54.8387C71.6024 54.8387 72.324 55.5629 72.324 56.4516C72.324 57.3403 71.6024 58.0645 70.7168 58.0645C69.8312 58.0645 69.1096 57.3403 69.1096 56.4516C69.1096 55.5629 69.8312 54.8387 70.7168 54.8387Z" stroke="white" stroke-width="2.4" mask="url(#path-1-inside-1)"/>
<path fill-rule="evenodd" clip-rule="evenodd" d="M70.7168 67.7419C76.9206 67.7419 81.9672 62.6774 81.9672 56.4516C81.9672 50.2258 76.9206 45.1613 70.7168 45.1613C64.513 45.1613 59.4664 50.2258 59.4664 56.4516C59.4664 62.6774 64.513 67.7419 70.7168 67.7419ZM70.7168 48.3871C75.1479 48.3871 78.7528 52.0048 78.7528 56.4516C78.7528 60.8984 75.1479 64.5161 70.7168 64.5161C66.2858 64.5161 62.6808 60.8984 62.6808 56.4516C62.6808 52.0048 66.2858 48.3871 70.7168 48.3871Z" stroke="white" stroke-width="2.4" mask="url(#path-1-inside-1)"/>
<path fill-rule="evenodd" clip-rule="evenodd" d="M16.072 6.45161H6.4288V16.129H16.072V6.45161ZM12.8576 12.9032H9.6432V9.67742H12.8576V12.9032Z" stroke="white" stroke-width="2.4" mask="url(#path-1-inside-1)"/>
<path fill-rule="evenodd" clip-rule="evenodd" d="M19.2864 6.45161H28.9296V16.129H19.2864V6.45161ZM22.5008 12.9032H25.7152V9.67742H22.5008V12.9032Z" stroke="white" stroke-width="2.4" mask="url(#path-1-inside-1)"/>
<path fill-rule="evenodd" clip-rule="evenodd" d="M41.7872 6.45161H32.144V16.129H41.7872V6.45161ZM38.5728 12.9032H35.3584V9.67742H38.5728V12.9032Z" stroke="white" stroke-width="2.4" mask="url(#path-1-inside-1)"/>
<path fill-rule="evenodd" clip-rule="evenodd" d="M35.3584 25.8065H45.0016V58.0645H48.216V61.2903H6.4288V58.0645H9.6432V45.1613H19.2864V58.0645H22.5008V38.7097H32.144V58.0645H35.3584V25.8065ZM41.7872 29.0323H38.5728V58.0645H41.7872V29.0323ZM28.9296 41.9355H25.7152V58.0645H28.9296V41.9355ZM16.072 48.3871H12.8576V58.0645H16.072V48.3871Z" stroke="white" stroke-width="2.4" mask="url(#path-1-inside-1)"/>
<path d="M6.4288 25.8065H9.6432V29.0323H6.4288V25.8065Z" stroke="white" stroke-width="2.4" mask="url(#path-1-inside-1)"/>
<path d="M28.9296 25.8065H12.8576V29.0323H28.9296V25.8065Z" stroke="white" stroke-width="2.4" mask="url(#path-1-inside-1)"/>
<path d="M6.4288 32.2581H9.6432V35.4839H6.4288V32.2581Z" stroke="white" stroke-width="2.4" mask="url(#path-1-inside-1)"/>
<path d="M28.9296 32.2581H12.8576V35.4839H28.9296V32.2581Z" stroke="white" stroke-width="2.4" mask="url(#path-1-inside-1)"/>
<path fill-rule="evenodd" clip-rule="evenodd" d="M81.6522 80.6452L80.548 82.4193L80.9402 83.4016C82.7081 87.8387 81.9592 92.9129 78.9842 96.6451L76.3098 100H72.324V98.3871C72.324 95.7758 71.3404 93.3161 69.5484 91.4355L66.4706 97.6113L63.4282 95.321C59.947 92.7016 58.6451 88.0403 60.262 83.9855L60.8856 82.4193L59.7814 80.6452H41.4336L42.0765 77.4193H4.8216C2.16329 77.4193 0 75.2484 0 72.5806V4.83871C0 2.17097 2.16329 0 4.8216 0H83.5744C86.2327 0 88.396 2.17097 88.396 4.83871V58.0645H88.3847C88.3855 58.1114 88.3879 58.1576 88.3902 58.2038C88.3931 58.2591 88.396 58.3147 88.396 58.371C88.396 59.5855 88.3205 60.7919 88.2112 61.9952L97.8962 70.0935L100 80.6452H81.6522ZM61.8081 77.8145L63.5712 80.6452H77.8624L79.6239 77.8145C80.3536 76.6435 80.9932 75.429 81.5831 74.1936H59.8489C60.4388 75.4306 61.0784 76.6435 61.8081 77.8145ZM81.2857 41.9355H60.1479C57.602 47.021 56.252 52.6193 56.252 58.371C56.252 62.6935 57.0106 66.9516 58.4748 70.9677H82.9588C84.423 66.9516 85.1816 62.6935 85.1816 58.371C85.1816 52.6193 83.8316 47.021 81.2857 41.9355ZM62.1541 38.4048C62.0933 38.5071 62.0326 38.6093 61.9688 38.7097V38.7113H79.4632C79.4015 38.6136 79.3427 38.5148 79.284 38.416C79.2052 38.2834 79.126 38.1502 79.0405 38.021L74.3764 30.9984C73.5599 29.7677 72.1906 29.0323 70.7168 29.0323C69.243 29.0323 67.8737 29.7677 67.0556 30.9968L62.3915 38.0194C62.308 38.1455 62.231 38.2752 62.1541 38.4048ZM96.0784 77.4193L94.9678 71.8419L87.6888 65.7548C86.9254 69.8258 85.5432 73.7597 83.5615 77.4193H96.0784ZM83.5744 3.22581H4.8216C3.93603 3.22581 3.2144 3.95 3.2144 4.83871V19.3548H85.1816V4.83871C85.1816 3.95 84.46 3.22581 83.5744 3.22581ZM4.8216 74.1936H42.7194L43.5374 70.0919L53.2224 61.9935C53.1131 60.7919 53.0376 59.5855 53.0376 58.371C53.0376 50.4645 55.3471 42.8097 59.7187 36.2306L64.3828 29.2081C65.7972 27.079 68.1646 25.8065 70.7168 25.8065C73.269 25.8065 75.6364 27.079 77.0524 29.2064L81.7165 36.229C83.0842 38.2887 84.2253 40.4629 85.1816 42.7081V22.5806H3.2144V72.5806C3.2144 73.4694 3.93603 74.1936 4.8216 74.1936ZM53.7448 65.7548L46.4658 71.8419L45.3552 77.4193H57.8721C55.8904 73.7597 54.5082 69.8258 53.7448 65.7548ZM75.3375 96.0564L76.4754 94.6306C78.7271 91.8032 79.2944 87.9613 77.9556 84.6016L77.6647 83.871H63.7689L63.2481 85.1823C62.1761 87.871 63.0296 90.9597 65.3214 92.7113L68.6708 85.9871L71.6586 88.9855C73.6049 90.9387 74.8714 93.3919 75.3375 96.0564Z" stroke="white" stroke-width="2.4" mask="url(#path-1-inside-1)"/>
</svg>
