<?xml version="1.0" encoding="utf-8"?>
<!-- Generator: Adobe Illustrator 28.1.0, SVG Export Plug-In . SVG Version: 6.00 Build 0)  -->
<svg version="1.1" xmlns="http://www.w3.org/2000/svg" xmlns:xlink="http://www.w3.org/1999/xlink" x="0px" y="0px" width="170px"
	 height="65px" viewBox="0 0 170 65" style="enable-background:new 0 0 170 65;" xml:space="preserve">
<style type="text/css">
	.st0{fill:none;}
	.st1{fill:#FFFFFF;stroke:#FFFFFF;stroke-width:2;stroke-linecap:round;stroke-linejoin:round;stroke-miterlimit:10;}
	.st2{fill:#131D3C;}
</style>
<g id="レイヤー_1">
	<rect class="st0" width="170" height="65"/>
</g>
<g id="レイヤー_15のコピー">
	<g>
		<path class="st1" d="M41.307774,39.049316c1.308594,0.664062,3.128418,1.109863,5.458984,1.337891
			c-0.3125,0.292969-0.638184,0.706543-0.976562,1.240234c-0.169434,0.253906-0.322266,0.380859-0.458984,0.380859
			s-0.296387-0.013184-0.478516-0.039062c-0.963379-0.143066-1.979004-0.410156-3.046875-0.800781
			c-0.9375-0.351562-1.744629-0.73877-2.421875-1.162109c-0.078125-0.052246-0.117188-0.097656-0.117188-0.136719
			c0-0.052246,0.074707-0.104004,0.224609-0.15625l1.513672-0.722656h-6.71875
			c0.429688,0.169434,0.996094,0.416504,1.699219,0.742188c0.188965,0.052246,0.283203,0.143066,0.283203,0.273438
			c0,0.117188-0.101074,0.19873-0.302734,0.244141c-0.143066,0.025879-0.416504,0.146484-0.820312,0.361328
			c-1.328125,0.67041-2.848145,1.13623-4.560547,1.396484c-0.208496,0.025879-0.341797,0.039062-0.400391,0.039062
			c-0.169434,0-0.335449-0.140137-0.498047-0.419922c-0.247559-0.442871-0.546875-0.82666-0.898438-1.152344
			c1.816406-0.182129,3.316895-0.51123,4.501953-0.986328c0.364746-0.15625,0.664062-0.322266,0.898438-0.498047l-2.421875,0.039062
			c-0.104004,0-0.166016-0.013184-0.185547-0.039062c-0.019531-0.032715-0.029297-0.101074-0.029297-0.205078l0.039062-1.962891
			v-3.417969l-0.039062-1.982422c0-0.104004,0.013184-0.166016,0.039062-0.185547s0.084473-0.029297,0.175781-0.029297
			l2.617188,0.039062c-0.064941-0.091309-0.123535-0.19873-0.175781-0.322266
			c-0.260254-0.442871-0.494629-0.748535-0.703125-0.917969c1.582031-0.273438,2.776855-0.673828,3.583984-1.201172
			c0.755371-0.488281,1.289062-1.152344,1.601562-1.992188h-1.679688c-0.390625,0.46875-0.816895,0.885254-1.279297,1.25
			c-0.253906,0.188965-0.406738,0.283203-0.458984,0.283203c-0.084473,0-0.240723-0.133301-0.46875-0.400391
			c-0.26709-0.292969-0.560059-0.51123-0.878906-0.654297c1.165527-0.839844,2.041016-1.773926,2.626953-2.802734
			c0.149902-0.26709,0.276855-0.566406,0.380859-0.898438c0.618652,0.097656,1.145996,0.20166,1.582031,0.3125
			c0.228027,0.058594,0.341797,0.133301,0.341797,0.224609c0,0.104004-0.062012,0.19873-0.185547,0.283203
			c-0.130371,0.078125-0.263672,0.257324-0.400391,0.537109l-0.224609,0.380859h5.927734
			c0.240723,0,0.406738-0.025879,0.498047-0.078125c0.104004-0.052246,0.195312-0.078125,0.273438-0.078125
			c0.117188,0,0.364746,0.133301,0.742188,0.400391c0.442871,0.292969,0.664062,0.527344,0.664062,0.703125
			c0,0.104004-0.055176,0.188965-0.166016,0.253906c-0.143066,0.084473-0.260254,0.205078-0.351562,0.361328
			c-0.214844,0.351562-0.543457,0.82373-0.986328,1.416016c-0.208496,0.26709-0.367676,0.400391-0.478516,0.400391
			c-0.097656,0-0.276855-0.058594-0.537109-0.175781c-0.449219-0.20166-0.82373-0.335449-1.123047-0.400391
			c0.455566-0.436035,0.836426-0.875488,1.142578-1.318359h-2.958984c0.73584,1.939941,2.841797,3.066406,6.318359,3.378906
			c-0.214844,0.286621-0.400391,0.719238-0.556641,1.298828c-0.071777,0.240723-0.130371,0.394043-0.175781,0.458984
			s-0.120605,0.097656-0.224609,0.097656c-0.064941,0-0.19873-0.019531-0.400391-0.058594
			c-0.494629-0.091309-1.021973-0.224609-1.582031-0.400391c-0.025879,0.345215-0.039062,0.950684-0.039062,1.816406v3.417969
			l0.039062,1.962891c0,0.11084-0.01123,0.179199-0.03418,0.205078s-0.086426,0.039062-0.19043,0.039062l-2.675781-0.039062
			L41.307774,39.049316z M34.081211,27.643066c0.013184,0.221191,0.062012,0.602051,0.146484,1.142578
			c0.052246,0.240723,0.078125,0.400391,0.078125,0.478516c0,0.143066-0.166016,0.306152-0.498047,0.488281
			c-0.787598,0.416504-1.82959,0.862793-3.125,1.337891c-0.279785,0.11084-0.458984,0.205078-0.537109,0.283203
			c-0.11084,0.104004-0.205078,0.15625-0.283203,0.15625c-0.11084,0-0.205078-0.074707-0.283203-0.224609
			c-0.208496-0.384277-0.439453-0.950684-0.693359-1.699219c0.585938-0.117188,1.077637-0.237793,1.474609-0.361328
			C31.858067,28.756348,33.098301,28.222656,34.081211,27.643066z M30.926914,24.146973
			c0.89209,0.371094,1.810059,0.89209,2.753906,1.5625c0.097656,0.071777,0.146484,0.130371,0.146484,0.175781
			c0,0.039062-0.048828,0.107422-0.146484,0.205078l-0.859375,0.976562c-0.104004,0.123535-0.185547,0.185547-0.244141,0.185547
			c-0.04541,0-0.104004-0.029297-0.175781-0.087891c-0.943848-0.755371-1.849121-1.314941-2.714844-1.679688
			c-0.104004-0.064941-0.15625-0.117188-0.15625-0.15625c0-0.058594,0.04541-0.133301,0.136719-0.224609l0.839844-0.839844
			c0.104004-0.11084,0.185547-0.166016,0.244141-0.166016C30.790195,24.098145,30.848789,24.114258,30.926914,24.146973z
			 M42.089024,32.662598h-8.583984v0.839844h8.583984V32.662598z M33.505039,35.523926h8.583984v-0.839844h-8.583984V35.523926z
			 M42.089024,37.574707v-0.869141h-8.583984v0.869141H42.089024z M41.09293,31.246582
			c1.061035,0,1.741699-0.006348,2.041016-0.019531c-1.556152-0.644531-2.669434-1.556152-3.339844-2.734375
			c-0.696777,1.289062-2.03125,2.207031-4.003906,2.753906H41.09293z"/>
		<path class="st1" d="M54.018711,41.441895l-2.724609,0.039062c-0.117188,0-0.185547-0.016113-0.205078-0.048828
			c-0.019531-0.025879-0.029297-0.087891-0.029297-0.185547v-1.367188c0-0.097656,0.01123-0.157715,0.03418-0.180664
			s0.089355-0.03418,0.200195-0.03418l2.724609,0.039062h3.339844v-1.71875h-1.064453l-2.578125,0.039062
			c-0.104004,0-0.169434-0.013184-0.195312-0.039062c-0.019531-0.025879-0.029297-0.087891-0.029297-0.185547v-1.318359
			c0-0.104004,0.016113-0.166016,0.048828-0.185547c0.019531-0.019531,0.078125-0.029297,0.175781-0.029297l2.578125,0.039062
			h1.064453v-1.523438h-3.261719c-0.351562,0.631348-0.804199,1.298828-1.357422,2.001953
			c-0.175781,0.228027-0.296387,0.341797-0.361328,0.341797c-0.058594,0-0.159668-0.094238-0.302734-0.283203
			c-0.279785-0.377441-0.618652-0.703125-1.015625-0.976562l-0.185547,1.259766
			c-0.234375,1.523438-0.706543,2.975098-1.416016,4.355469c-0.15625,0.253906-0.27002,0.380859-0.341797,0.380859
			s-0.179199-0.081543-0.322266-0.244141c-0.429688-0.553223-0.862793-0.950684-1.298828-1.191406
			c0.722656-1.100098,1.20752-2.408691,1.455078-3.925781c0.20166-1.197754,0.302734-2.708496,0.302734-4.53125l-0.039062-2.763672
			c0-0.104004,0.013184-0.166016,0.039062-0.185547s0.087891-0.029297,0.185547-0.029297l2.65625,0.039062h1.484375
			c-0.247559-0.599121-0.550293-1.194824-0.908203-1.787109h-0.556641l-2.675781,0.039062
			c-0.117188,0-0.188965-0.013184-0.214844-0.039062c-0.019531-0.025879-0.029297-0.084473-0.029297-0.175781V25.73877
			c0-0.11084,0.016113-0.179199,0.048828-0.205078c0.025879-0.019531,0.091309-0.029297,0.195312-0.029297l2.675781,0.039062
			h3.964844v-0.175781c0-0.716309-0.048828-1.298828-0.146484-1.748047c0.657715,0,1.351074,0.035645,2.080078,0.107422
			c0.214844,0.019531,0.322266,0.084473,0.322266,0.195312c0,0.064941-0.039062,0.191895-0.117188,0.380859
			c-0.071777,0.149902-0.107422,0.498047-0.107422,1.044922v0.195312h3.984375l2.705074-0.039062
			c0.104004,0,0.166016,0.016113,0.185547,0.048828c0.019531,0.025879,0.029297,0.087891,0.029297,0.185547v1.328125
			c0,0.104004-0.013184,0.166016-0.039062,0.185547s-0.084473,0.029297-0.175781,0.029297l-2.724606-0.039062h-0.341797
			c-0.078125,0.097656-0.143066,0.211426-0.195312,0.341797c-0.260254,0.540527-0.527344,1.021973-0.800781,1.445312h2.099609
			l2.636715-0.039062c0.136719,0,0.205078,0.071777,0.205078,0.214844v1.328125c0,0.143066-0.068359,0.214844-0.205078,0.214844
			l-2.656246-0.039062h-11.5625l0.019531,1.259766c0,1.243652-0.071777,2.493652-0.214844,3.75
			c0.931152-0.89209,1.695801-2.070312,2.294922-3.535156c0.11084-0.260254,0.19873-0.605469,0.263672-1.035156
			c0.833496,0.162598,1.409668,0.302734,1.728516,0.419922c0.175781,0.058594,0.263672,0.136719,0.263672,0.234375
			c0,0.071777-0.04541,0.152832-0.136719,0.244141c-0.104004,0.097656-0.230957,0.335449-0.380859,0.712891l-0.117188,0.302734
			h2.382812v-0.214844c0-0.625-0.055176-1.210938-0.166016-1.757812c0.709473,0.019531,1.402832,0.058594,2.080078,0.117188
			c0.214844,0.019531,0.322266,0.084473,0.322266,0.195312c0,0.084473-0.039062,0.218262-0.117188,0.400391
			c-0.064941,0.182129-0.097656,0.530762-0.097656,1.044922v0.214844h2.138672l2.597652-0.039062
			c0.104004,0,0.166016,0.013184,0.185547,0.039062s0.029297,0.084473,0.029297,0.175781v1.367188
			c0,0.097656-0.01123,0.157715-0.03418,0.180664s-0.083008,0.03418-0.180664,0.03418l-2.597652-0.039062h-2.138672v1.523438
			h1.416016l2.578125-0.039062c0.104004,0,0.169434,0.013184,0.195312,0.039062
			c0.019531,0.025879,0.029297,0.084473,0.029297,0.175781v1.318359c0,0.104004-0.01123,0.16748-0.03418,0.19043
			s-0.086426,0.03418-0.19043,0.03418l-2.578125-0.039062h-1.416016v1.71875h3.251953l2.744137-0.039062
			c0.104004,0,0.166016,0.013184,0.185547,0.039062s0.029297,0.084473,0.029297,0.175781v1.367188
			c0,0.11084-0.013184,0.179199-0.039062,0.205078c-0.025879,0.019531-0.084473,0.029297-0.175781,0.029297l-2.744137-0.039062
			H54.018711z M59.516758,27.242676h-4.638672c0.26709,0.527344,0.527344,1.123047,0.78125,1.787109h2.998047
			C58.989414,28.4375,59.276035,27.841797,59.516758,27.242676z"/>
		<path class="st1" d="M85.450348,39.449707c-0.279785,0.384277-0.452637,0.810547-0.517578,1.279297
			c-0.064941,0.338379-0.133301,0.533691-0.205078,0.585938c-0.064941,0.058594-0.250488,0.097656-0.556641,0.117188
			c-2.5,0.117188-4.759277,0.175781-6.777344,0.175781c-2.304688,0-3.938965-0.19873-4.902344-0.595703
			c-0.813965-0.338379-1.500488-0.921387-2.060547-1.748047c-0.403809,0.390625-1.05127,0.943848-1.943359,1.660156
			c-0.195312,0.149902-0.348145,0.289551-0.458984,0.419922c-0.11084,0.136719-0.20166,0.205078-0.273438,0.205078
			c-0.097656,0-0.19873-0.094238-0.302734-0.283203c-0.234375-0.455566-0.494629-1.04834-0.78125-1.777344
			c0.494629-0.240723,0.89502-0.455566,1.201172-0.644531c0.449219-0.273438,0.957031-0.680176,1.523438-1.220703v-4.501953
			H68.52652l-1.416016,0.048828c-0.117188,0-0.185547-0.016113-0.205078-0.048828
			c-0.025879-0.025879-0.039062-0.091309-0.039062-0.195312v-1.523438c0-0.104004,0.016113-0.166016,0.048828-0.185547
			c0.025879-0.019531,0.091309-0.029297,0.195312-0.029297l1.416016,0.039062h1.162109l1.464844-0.039062
			c0.104004,0,0.169434,0.013184,0.195312,0.039062c0.019531,0.025879,0.029297,0.084473,0.029297,0.175781l-0.039062,1.962891
			v4.482422c0.384277,0.722656,0.970215,1.243652,1.757812,1.5625c0.742188,0.26709,2.096191,0.400391,4.0625,0.400391
			C79.939117,39.811035,82.702789,39.69043,85.450348,39.449707z M68.946442,24.342285
			c0.98291,0.924316,1.822754,1.914062,2.519531,2.96875c0.04541,0.064941,0.068359,0.117188,0.068359,0.15625
			c0,0.058594-0.064941,0.136719-0.195312,0.234375l-1.113281,0.908203c-0.117188,0.091309-0.19873,0.136719-0.244141,0.136719
			c-0.032715,0-0.091309-0.052246-0.175781-0.15625c-0.696777-1.158691-1.51709-2.200684-2.460938-3.125
			c-0.058594-0.058594-0.087891-0.104004-0.087891-0.136719c0-0.04541,0.062012-0.11377,0.185547-0.205078l1.064453-0.761719
			c0.11084-0.091309,0.195312-0.136719,0.253906-0.136719C68.799957,24.225098,68.861969,24.26416,68.946442,24.342285z
			 M75.001129,37.789551l-2.734375,0.039062c-0.11084,0-0.175781-0.013184-0.195312-0.039062s-0.029297-0.084473-0.029297-0.175781
			v-1.152344c0-0.104004,0.013184-0.166016,0.039062-0.185547s0.087891-0.029297,0.185547-0.029297l2.734375,0.039062h2.226562
			v-0.878906h-1.367188l-2.597656,0.039062c-0.130371,0-0.195312-0.071777-0.195312-0.214844l0.019531-1.660156v-2.021484
			l-0.019531-1.669922c0-0.143066,0.064941-0.214844,0.195312-0.214844l2.597656,0.039062h1.367188v-0.898438H75.64566
			l-1.923828,0.048828c-0.104004,0-0.166016-0.013184-0.185547-0.039062s-0.029297-0.087891-0.029297-0.185547v-0.537109h-1.445312
			c-0.149902,0-0.224609-0.068359-0.224609-0.205078l0.048828-1.835938v-0.498047l-0.048828-0.917969
			c0-0.117188,0.016113-0.188965,0.048828-0.214844c0.019531-0.019531,0.078125-0.029297,0.175781-0.029297l2.783203,0.039062
			h6.738281l2.783203-0.039062c0.104004,0,0.166016,0.016113,0.185547,0.048828
			c0.019531,0.025879,0.029297,0.091309,0.029297,0.195312l-0.029297,0.800781v0.615234l0.029297,1.835938
			c0,0.136719-0.071777,0.205078-0.214844,0.205078h-1.494141v0.537109c0,0.11084-0.016113,0.175781-0.048828,0.195312
			c-0.019531,0.019531-0.078125,0.029297-0.175781,0.029297l-1.923828-0.048828h-1.699219v0.898438h1.464844l2.578125-0.039062
			c0.104004,0,0.166016,0.013184,0.185547,0.039062s0.029297,0.084473,0.029297,0.175781l-0.029297,1.669922v2.021484
			l0.029297,1.660156c0,0.097656-0.01123,0.157715-0.03418,0.180664s-0.083008,0.03418-0.180664,0.03418l-2.578125-0.039062
			h-1.464844v0.878906h2.480469l2.763672-0.039062c0.104004,0,0.166016,0.013184,0.185547,0.039062
			s0.029297,0.084473,0.029297,0.175781v1.152344c0,0.097656-0.01123,0.157715-0.03418,0.180664s-0.083008,0.03418-0.180664,0.03418
			l-2.763672-0.039062h-2.480469l0.039062,1.396484c0,0.149902-0.071777,0.224609-0.214844,0.224609h-1.445312
			c-0.143066,0-0.214844-0.074707-0.214844-0.224609c0-0.019531,0.003418-0.172363,0.009766-0.458984
			c0.013184-0.306152,0.022949-0.618652,0.029297-0.9375H75.001129z M82.647614,26.012207h-8.925781v1.376953l1.923828,0.039062
			h1.5625c-0.025879-0.377441-0.068359-0.722656-0.126953-1.035156c0.689941,0.019531,1.312012,0.058594,1.865234,0.117188
			c0.20166,0.025879,0.302734,0.087891,0.302734,0.185547c0,0.064941-0.035645,0.175781-0.107422,0.332031
			c-0.058594,0.11084-0.097656,0.244141-0.117188,0.400391h1.699219l1.923828-0.039062V26.012207z M74.844879,31.949707h2.382812
			v-1.005859h-2.382812V31.949707z M74.844879,34.146973h2.382812v-1.015625h-2.382812V34.146973z M81.465973,30.943848h-2.441406
			v1.005859h2.441406V30.943848z M81.465973,34.146973v-1.015625h-2.441406v1.015625H81.465973z"/>
		<path class="st1" d="M98.23941,39.713379c0.728516,0.052246,1.347656,0.078125,1.855469,0.078125
			c0.429688,0,0.644531-0.218262,0.644531-0.654297v-3.320312h-4.707031v2.382812l0.039062,2.958984
			c0,0.104004-0.013672,0.166016-0.039062,0.185547c-0.026367,0.019531-0.084961,0.029297-0.175781,0.029297h-1.728516
			c-0.104492,0-0.166016-0.013184-0.185547-0.039062S93.913239,41.25,93.913239,41.158691l0.039062-2.958984v-2.382812h-4.560547
			c-0.240723,2.181152-0.820312,4.026855-1.738281,5.537109c-0.149902,0.26709-0.27002,0.400391-0.361328,0.400391
			c-0.064941,0-0.205078-0.107422-0.419922-0.322266c-0.410156-0.410156-0.882324-0.748535-1.416016-1.015625
			c0.787598-1.015625,1.334473-2.259277,1.640625-3.730469c0.279785-1.341309,0.419922-3.121582,0.419922-5.341797v-3.28125
			l-0.039062-3.271484c0-0.117188,0.016113-0.188965,0.048828-0.214844c0.025879-0.019531,0.091309-0.029297,0.195312-0.029297
			l2.734375,0.039062h9.404297l2.753906-0.039062c0.110352,0,0.175781,0.016113,0.195312,0.048828
			c0.019531,0.025879,0.029297,0.091309,0.029297,0.195312l-0.039062,3.271484v8.857422l0.039062,2.753906
			c0,0.716309-0.22168,1.256348-0.664062,1.621094c-0.384766,0.345215-1.263672,0.517578-2.636719,0.517578
			c-0.326172,0-0.514648-0.025879-0.566406-0.078125c-0.052734-0.04541-0.111328-0.211426-0.175781-0.498047
			C98.665192,40.657227,98.479645,40.149414,98.23941,39.713379z M89.538239,33.961426h4.414062V31.13916h-4.355469v0.224609
			C89.596832,32.314453,89.577301,33.180176,89.538239,33.961426z M89.596832,29.283691h4.355469v-2.773438h-4.355469V29.283691z
			 M100.73941,26.510254h-4.707031v2.773438h4.707031V26.510254z M96.032379,33.961426h4.707031V31.13916h-4.707031V33.961426z"/>
		<path class="st1" d="M107.571442,41.002441l-2.480469,0.039062c-0.130859,0-0.195312-0.071777-0.195312-0.214844v-1.689453
			c0-0.143066,0.064453-0.214844,0.195312-0.214844l2.480469,0.039062h7.021484
			c0.774414-1.953125,1.523438-4.280762,2.246094-6.982422c0.162109-0.689941,0.266602-1.328125,0.3125-1.914062
			c1.054688,0.26709,1.8125,0.491699,2.275391,0.673828c0.162109,0.052246,0.244141,0.146484,0.244141,0.283203
			c0,0.130371-0.06543,0.263672-0.195312,0.400391c-0.136719,0.149902-0.263672,0.416504-0.380859,0.800781
			c-0.664062,2.285156-1.429688,4.53125-2.294922,6.738281h3.378906l2.480469-0.039062
			c0.103516,0,0.166016,0.013184,0.185547,0.039062s0.029297,0.084473,0.029297,0.175781v1.689453
			c0,0.097656-0.011719,0.157715-0.03418,0.180664c-0.023438,0.022949-0.083008,0.03418-0.180664,0.03418l-2.480469-0.039062
			H107.571442z M108.694489,29.205566l-2.65625,0.039062c-0.104492,0-0.169922-0.016113-0.195312-0.048828
			c-0.019531-0.025879-0.029297-0.091309-0.029297-0.195312v-1.621094c0-0.11084,0.012695-0.179199,0.039062-0.205078
			c0.025391-0.019531,0.087891-0.029297,0.185547-0.029297l2.65625,0.039062h3.964844v-1.542969
			c0-0.833496-0.048828-1.445312-0.146484-1.835938c0.669922,0,1.402344,0.032715,2.197266,0.097656
			c0.214844,0.025879,0.322266,0.101074,0.322266,0.224609c0,0.04541-0.039062,0.179199-0.117188,0.400391
			c-0.06543,0.175781-0.097656,0.546875-0.097656,1.113281v1.542969h4.277344l2.685547-0.039062
			c0.103516,0,0.166016,0.016113,0.185547,0.048828c0.019531,0.025879,0.029297,0.087891,0.029297,0.185547v1.621094
			c0,0.117188-0.013672,0.188965-0.039062,0.214844c-0.026367,0.019531-0.084961,0.029297-0.175781,0.029297l-2.685547-0.039062
			H108.694489z M110.237457,30.367676c0.989258,2.278809,1.65625,4.518066,2.001953,6.71875
			c0.012695,0.064941,0.019531,0.11084,0.019531,0.136719c0,0.084473-0.087891,0.152832-0.263672,0.205078l-1.5625,0.517578
			c-0.104492,0.039062-0.179688,0.058594-0.224609,0.058594c-0.078125,0-0.130859-0.064941-0.15625-0.195312
			c-0.326172-2.324219-0.951172-4.563965-1.875-6.71875c-0.026367-0.071777-0.039062-0.120605-0.039062-0.146484
			c0-0.058594,0.083984-0.117188,0.253906-0.175781l1.464844-0.517578c0.097656-0.039062,0.168945-0.058594,0.214844-0.058594
			C110.135895,30.191895,110.191559,30.250488,110.237457,30.367676z"/>
		<path class="st1" d="M126.473785,42.047363h-1.699219c-0.097656,0-0.158203-0.01123-0.180664-0.03418
			c-0.023438-0.022949-0.03418-0.086426-0.03418-0.19043l0.039062-7.675781v-3.974609l-0.039062-5.478516
			c0-0.11084,0.012695-0.175781,0.039062-0.195312c0.025391-0.019531,0.087891-0.029297,0.185547-0.029297l2.65625,0.039062
			h10.859375l2.65625-0.039062c0.110352,0,0.175781,0.013184,0.195312,0.039062s0.029297,0.087891,0.029297,0.185547
			l-0.039062,4.794922v4.638672l0.039062,7.675781c0,0.104004-0.013672,0.169434-0.039062,0.195312
			c-0.026367,0.019531-0.084961,0.029297-0.175781,0.029297h-1.71875c-0.111328,0-0.175781-0.013184-0.195312-0.039062
			s-0.029297-0.087891-0.029297-0.185547v-0.9375h-12.324219v0.957031c0,0.104004-0.013672,0.169434-0.039062,0.195312
			C126.632965,42.037598,126.571442,42.047363,126.473785,42.047363z M126.698395,26.393066v12.617188h12.324219V26.393066
			H126.698395z M137.059723,31.510254c0.103516,0,0.168945,0.013184,0.195312,0.039062
			c0.019531,0.025879,0.029297,0.084473,0.029297,0.175781v1.318359c0,0.11084-0.016602,0.175781-0.048828,0.195312
			c-0.019531,0.019531-0.078125,0.029297-0.175781,0.029297l-2.275391-0.039062h-1.044922v2.65625h1.640625l2.578125-0.039062
			c0.117188,0,0.188477,0.013184,0.214844,0.039062c0.019531,0.025879,0.029297,0.084473,0.029297,0.175781v1.386719
			c0,0.097656-0.013672,0.157715-0.039062,0.180664c-0.026367,0.022949-0.094727,0.03418-0.205078,0.03418l-2.578125-0.039062
			h-5.039062l-2.578125,0.039062c-0.117188,0-0.189453-0.013184-0.214844-0.039062
			c-0.019531-0.025879-0.029297-0.084473-0.029297-0.175781v-1.386719c0-0.104004,0.015625-0.166016,0.048828-0.185547
			c0.025391-0.019531,0.09082-0.029297,0.195312-0.029297l2.578125,0.039062h1.376953v-2.65625h-0.78125l-2.314453,0.039062
			c-0.111328,0-0.175781-0.013184-0.195312-0.039062s-0.029297-0.087891-0.029297-0.185547v-1.318359
			c0-0.104004,0.012695-0.166016,0.039062-0.185547c0.025391-0.019531,0.087891-0.029297,0.185547-0.029297l2.314453,0.039062
			h0.78125v-2.099609h-1.162109l-2.539062,0.039062c-0.130859,0-0.195312-0.074707-0.195312-0.224609V27.92627
			c0-0.143066,0.064453-0.214844,0.195312-0.214844l2.539062,0.039062h4.648438l2.558594-0.039062
			c0.129883,0,0.195312,0.071777,0.195312,0.214844v1.337891c0,0.149902-0.06543,0.224609-0.195312,0.224609l-2.558594-0.039062
			h-1.464844v2.099609h1.044922L137.059723,31.510254z M136.376129,33.502441
			c0.357422,0.416504,0.686523,0.898438,0.986328,1.445312c0.032227,0.064941,0.048828,0.11084,0.048828,0.136719
			c0,0.052246-0.072266,0.11377-0.214844,0.185547l-0.859375,0.458984c-0.091797,0.04541-0.160156,0.068359-0.205078,0.068359
			c-0.06543,0-0.130859-0.071777-0.195312-0.214844c-0.253906-0.585938-0.560547-1.077637-0.917969-1.474609
			c-0.045898-0.052246-0.068359-0.094238-0.068359-0.126953s0.074219-0.091309,0.224609-0.175781l0.800781-0.419922
			c0.071289-0.032715,0.126953-0.048828,0.166016-0.048828C136.200348,33.336426,136.278473,33.391602,136.376129,33.502441z"/>
	</g>
	<g>
		<path class="st2" d="M41.307774,39.049316c1.308594,0.664062,3.128418,1.109863,5.458984,1.337891
			c-0.3125,0.292969-0.638184,0.706543-0.976562,1.240234c-0.169434,0.253906-0.322266,0.380859-0.458984,0.380859
			s-0.296387-0.013184-0.478516-0.039062c-0.963379-0.143066-1.979004-0.410156-3.046875-0.800781
			c-0.9375-0.351562-1.744629-0.73877-2.421875-1.162109c-0.078125-0.052246-0.117188-0.097656-0.117188-0.136719
			c0-0.052246,0.074707-0.104004,0.224609-0.15625l1.513672-0.722656h-6.71875
			c0.429688,0.169434,0.996094,0.416504,1.699219,0.742188c0.188965,0.052246,0.283203,0.143066,0.283203,0.273438
			c0,0.117188-0.101074,0.19873-0.302734,0.244141c-0.143066,0.025879-0.416504,0.146484-0.820312,0.361328
			c-1.328125,0.67041-2.848145,1.13623-4.560547,1.396484c-0.208496,0.025879-0.341797,0.039062-0.400391,0.039062
			c-0.169434,0-0.335449-0.140137-0.498047-0.419922c-0.247559-0.442871-0.546875-0.82666-0.898438-1.152344
			c1.816406-0.182129,3.316895-0.51123,4.501953-0.986328c0.364746-0.15625,0.664062-0.322266,0.898438-0.498047l-2.421875,0.039062
			c-0.104004,0-0.166016-0.013184-0.185547-0.039062c-0.019531-0.032715-0.029297-0.101074-0.029297-0.205078l0.039062-1.962891
			v-3.417969l-0.039062-1.982422c0-0.104004,0.013184-0.166016,0.039062-0.185547s0.084473-0.029297,0.175781-0.029297
			l2.617188,0.039062c-0.064941-0.091309-0.123535-0.19873-0.175781-0.322266
			c-0.260254-0.442871-0.494629-0.748535-0.703125-0.917969c1.582031-0.273438,2.776855-0.673828,3.583984-1.201172
			c0.755371-0.488281,1.289062-1.152344,1.601562-1.992188h-1.679688c-0.390625,0.46875-0.816895,0.885254-1.279297,1.25
			c-0.253906,0.188965-0.406738,0.283203-0.458984,0.283203c-0.084473,0-0.240723-0.133301-0.46875-0.400391
			c-0.26709-0.292969-0.560059-0.51123-0.878906-0.654297c1.165527-0.839844,2.041016-1.773926,2.626953-2.802734
			c0.149902-0.26709,0.276855-0.566406,0.380859-0.898438c0.618652,0.097656,1.145996,0.20166,1.582031,0.3125
			c0.228027,0.058594,0.341797,0.133301,0.341797,0.224609c0,0.104004-0.062012,0.19873-0.185547,0.283203
			c-0.130371,0.078125-0.263672,0.257324-0.400391,0.537109l-0.224609,0.380859h5.927734
			c0.240723,0,0.406738-0.025879,0.498047-0.078125c0.104004-0.052246,0.195312-0.078125,0.273438-0.078125
			c0.117188,0,0.364746,0.133301,0.742188,0.400391c0.442871,0.292969,0.664062,0.527344,0.664062,0.703125
			c0,0.104004-0.055176,0.188965-0.166016,0.253906c-0.143066,0.084473-0.260254,0.205078-0.351562,0.361328
			c-0.214844,0.351562-0.543457,0.82373-0.986328,1.416016c-0.208496,0.26709-0.367676,0.400391-0.478516,0.400391
			c-0.097656,0-0.276855-0.058594-0.537109-0.175781c-0.449219-0.20166-0.82373-0.335449-1.123047-0.400391
			c0.455566-0.436035,0.836426-0.875488,1.142578-1.318359h-2.958984c0.73584,1.939941,2.841797,3.066406,6.318359,3.378906
			c-0.214844,0.286621-0.400391,0.719238-0.556641,1.298828c-0.071777,0.240723-0.130371,0.394043-0.175781,0.458984
			s-0.120605,0.097656-0.224609,0.097656c-0.064941,0-0.19873-0.019531-0.400391-0.058594
			c-0.494629-0.091309-1.021973-0.224609-1.582031-0.400391c-0.025879,0.345215-0.039062,0.950684-0.039062,1.816406v3.417969
			l0.039062,1.962891c0,0.11084-0.01123,0.179199-0.03418,0.205078s-0.086426,0.039062-0.19043,0.039062l-2.675781-0.039062
			L41.307774,39.049316z M34.081211,27.643066c0.013184,0.221191,0.062012,0.602051,0.146484,1.142578
			c0.052246,0.240723,0.078125,0.400391,0.078125,0.478516c0,0.143066-0.166016,0.306152-0.498047,0.488281
			c-0.787598,0.416504-1.82959,0.862793-3.125,1.337891c-0.279785,0.11084-0.458984,0.205078-0.537109,0.283203
			c-0.11084,0.104004-0.205078,0.15625-0.283203,0.15625c-0.11084,0-0.205078-0.074707-0.283203-0.224609
			c-0.208496-0.384277-0.439453-0.950684-0.693359-1.699219c0.585938-0.117188,1.077637-0.237793,1.474609-0.361328
			C31.858067,28.756348,33.098301,28.222656,34.081211,27.643066z M30.926914,24.146973
			c0.89209,0.371094,1.810059,0.89209,2.753906,1.5625c0.097656,0.071777,0.146484,0.130371,0.146484,0.175781
			c0,0.039062-0.048828,0.107422-0.146484,0.205078l-0.859375,0.976562c-0.104004,0.123535-0.185547,0.185547-0.244141,0.185547
			c-0.04541,0-0.104004-0.029297-0.175781-0.087891c-0.943848-0.755371-1.849121-1.314941-2.714844-1.679688
			c-0.104004-0.064941-0.15625-0.117188-0.15625-0.15625c0-0.058594,0.04541-0.133301,0.136719-0.224609l0.839844-0.839844
			c0.104004-0.11084,0.185547-0.166016,0.244141-0.166016C30.790195,24.098145,30.848789,24.114258,30.926914,24.146973z
			 M42.089024,32.662598h-8.583984v0.839844h8.583984V32.662598z M33.505039,35.523926h8.583984v-0.839844h-8.583984V35.523926z
			 M42.089024,37.574707v-0.869141h-8.583984v0.869141H42.089024z M41.09293,31.246582
			c1.061035,0,1.741699-0.006348,2.041016-0.019531c-1.556152-0.644531-2.669434-1.556152-3.339844-2.734375
			c-0.696777,1.289062-2.03125,2.207031-4.003906,2.753906H41.09293z"/>
		<path class="st2" d="M54.018711,41.441895l-2.724609,0.039062c-0.117188,0-0.185547-0.016113-0.205078-0.048828
			c-0.019531-0.025879-0.029297-0.087891-0.029297-0.185547v-1.367188c0-0.097656,0.01123-0.157715,0.03418-0.180664
			s0.089355-0.03418,0.200195-0.03418l2.724609,0.039062h3.339844v-1.71875h-1.064453l-2.578125,0.039062
			c-0.104004,0-0.169434-0.013184-0.195312-0.039062c-0.019531-0.025879-0.029297-0.087891-0.029297-0.185547v-1.318359
			c0-0.104004,0.016113-0.166016,0.048828-0.185547c0.019531-0.019531,0.078125-0.029297,0.175781-0.029297l2.578125,0.039062
			h1.064453v-1.523438h-3.261719c-0.351562,0.631348-0.804199,1.298828-1.357422,2.001953
			c-0.175781,0.228027-0.296387,0.341797-0.361328,0.341797c-0.058594,0-0.159668-0.094238-0.302734-0.283203
			c-0.279785-0.377441-0.618652-0.703125-1.015625-0.976562l-0.185547,1.259766
			c-0.234375,1.523438-0.706543,2.975098-1.416016,4.355469c-0.15625,0.253906-0.27002,0.380859-0.341797,0.380859
			s-0.179199-0.081543-0.322266-0.244141c-0.429688-0.553223-0.862793-0.950684-1.298828-1.191406
			c0.722656-1.100098,1.20752-2.408691,1.455078-3.925781c0.20166-1.197754,0.302734-2.708496,0.302734-4.53125l-0.039062-2.763672
			c0-0.104004,0.013184-0.166016,0.039062-0.185547s0.087891-0.029297,0.185547-0.029297l2.65625,0.039062h1.484375
			c-0.247559-0.599121-0.550293-1.194824-0.908203-1.787109h-0.556641l-2.675781,0.039062
			c-0.117188,0-0.188965-0.013184-0.214844-0.039062c-0.019531-0.025879-0.029297-0.084473-0.029297-0.175781V25.73877
			c0-0.11084,0.016113-0.179199,0.048828-0.205078c0.025879-0.019531,0.091309-0.029297,0.195312-0.029297l2.675781,0.039062
			h3.964844v-0.175781c0-0.716309-0.048828-1.298828-0.146484-1.748047c0.657715,0,1.351074,0.035645,2.080078,0.107422
			c0.214844,0.019531,0.322266,0.084473,0.322266,0.195312c0,0.064941-0.039062,0.191895-0.117188,0.380859
			c-0.071777,0.149902-0.107422,0.498047-0.107422,1.044922v0.195312h3.984375l2.705074-0.039062
			c0.104004,0,0.166016,0.016113,0.185547,0.048828c0.019531,0.025879,0.029297,0.087891,0.029297,0.185547v1.328125
			c0,0.104004-0.013184,0.166016-0.039062,0.185547s-0.084473,0.029297-0.175781,0.029297l-2.724606-0.039062h-0.341797
			c-0.078125,0.097656-0.143066,0.211426-0.195312,0.341797c-0.260254,0.540527-0.527344,1.021973-0.800781,1.445312h2.099609
			l2.636715-0.039062c0.136719,0,0.205078,0.071777,0.205078,0.214844v1.328125c0,0.143066-0.068359,0.214844-0.205078,0.214844
			l-2.656246-0.039062h-11.5625l0.019531,1.259766c0,1.243652-0.071777,2.493652-0.214844,3.75
			c0.931152-0.89209,1.695801-2.070312,2.294922-3.535156c0.11084-0.260254,0.19873-0.605469,0.263672-1.035156
			c0.833496,0.162598,1.409668,0.302734,1.728516,0.419922c0.175781,0.058594,0.263672,0.136719,0.263672,0.234375
			c0,0.071777-0.04541,0.152832-0.136719,0.244141c-0.104004,0.097656-0.230957,0.335449-0.380859,0.712891l-0.117188,0.302734
			h2.382812v-0.214844c0-0.625-0.055176-1.210938-0.166016-1.757812c0.709473,0.019531,1.402832,0.058594,2.080078,0.117188
			c0.214844,0.019531,0.322266,0.084473,0.322266,0.195312c0,0.084473-0.039062,0.218262-0.117188,0.400391
			c-0.064941,0.182129-0.097656,0.530762-0.097656,1.044922v0.214844h2.138672l2.597652-0.039062
			c0.104004,0,0.166016,0.013184,0.185547,0.039062s0.029297,0.084473,0.029297,0.175781v1.367188
			c0,0.097656-0.01123,0.157715-0.03418,0.180664s-0.083008,0.03418-0.180664,0.03418l-2.597652-0.039062h-2.138672v1.523438
			h1.416016l2.578125-0.039062c0.104004,0,0.169434,0.013184,0.195312,0.039062
			c0.019531,0.025879,0.029297,0.084473,0.029297,0.175781v1.318359c0,0.104004-0.01123,0.16748-0.03418,0.19043
			s-0.086426,0.03418-0.19043,0.03418l-2.578125-0.039062h-1.416016v1.71875h3.251953l2.744137-0.039062
			c0.104004,0,0.166016,0.013184,0.185547,0.039062s0.029297,0.084473,0.029297,0.175781v1.367188
			c0,0.11084-0.013184,0.179199-0.039062,0.205078c-0.025879,0.019531-0.084473,0.029297-0.175781,0.029297l-2.744137-0.039062
			H54.018711z M59.516758,27.242676h-4.638672c0.26709,0.527344,0.527344,1.123047,0.78125,1.787109h2.998047
			C58.989414,28.4375,59.276035,27.841797,59.516758,27.242676z"/>
		<path class="st2" d="M85.450348,39.449707c-0.279785,0.384277-0.452637,0.810547-0.517578,1.279297
			c-0.064941,0.338379-0.133301,0.533691-0.205078,0.585938c-0.064941,0.058594-0.250488,0.097656-0.556641,0.117188
			c-2.5,0.117188-4.759277,0.175781-6.777344,0.175781c-2.304688,0-3.938965-0.19873-4.902344-0.595703
			c-0.813965-0.338379-1.500488-0.921387-2.060547-1.748047c-0.403809,0.390625-1.05127,0.943848-1.943359,1.660156
			c-0.195312,0.149902-0.348145,0.289551-0.458984,0.419922c-0.11084,0.136719-0.20166,0.205078-0.273438,0.205078
			c-0.097656,0-0.19873-0.094238-0.302734-0.283203c-0.234375-0.455566-0.494629-1.04834-0.78125-1.777344
			c0.494629-0.240723,0.89502-0.455566,1.201172-0.644531c0.449219-0.273438,0.957031-0.680176,1.523438-1.220703v-4.501953
			H68.52652l-1.416016,0.048828c-0.117188,0-0.185547-0.016113-0.205078-0.048828
			c-0.025879-0.025879-0.039062-0.091309-0.039062-0.195312v-1.523438c0-0.104004,0.016113-0.166016,0.048828-0.185547
			c0.025879-0.019531,0.091309-0.029297,0.195312-0.029297l1.416016,0.039062h1.162109l1.464844-0.039062
			c0.104004,0,0.169434,0.013184,0.195312,0.039062c0.019531,0.025879,0.029297,0.084473,0.029297,0.175781l-0.039062,1.962891
			v4.482422c0.384277,0.722656,0.970215,1.243652,1.757812,1.5625c0.742188,0.26709,2.096191,0.400391,4.0625,0.400391
			C79.939117,39.811035,82.702789,39.69043,85.450348,39.449707z M68.946442,24.342285
			c0.98291,0.924316,1.822754,1.914062,2.519531,2.96875c0.04541,0.064941,0.068359,0.117188,0.068359,0.15625
			c0,0.058594-0.064941,0.136719-0.195312,0.234375l-1.113281,0.908203c-0.117188,0.091309-0.19873,0.136719-0.244141,0.136719
			c-0.032715,0-0.091309-0.052246-0.175781-0.15625c-0.696777-1.158691-1.51709-2.200684-2.460938-3.125
			c-0.058594-0.058594-0.087891-0.104004-0.087891-0.136719c0-0.04541,0.062012-0.11377,0.185547-0.205078l1.064453-0.761719
			c0.11084-0.091309,0.195312-0.136719,0.253906-0.136719C68.799957,24.225098,68.861969,24.26416,68.946442,24.342285z
			 M75.001129,37.789551l-2.734375,0.039062c-0.11084,0-0.175781-0.013184-0.195312-0.039062s-0.029297-0.084473-0.029297-0.175781
			v-1.152344c0-0.104004,0.013184-0.166016,0.039062-0.185547s0.087891-0.029297,0.185547-0.029297l2.734375,0.039062h2.226562
			v-0.878906h-1.367188l-2.597656,0.039062c-0.130371,0-0.195312-0.071777-0.195312-0.214844l0.019531-1.660156v-2.021484
			l-0.019531-1.669922c0-0.143066,0.064941-0.214844,0.195312-0.214844l2.597656,0.039062h1.367188v-0.898438H75.64566
			l-1.923828,0.048828c-0.104004,0-0.166016-0.013184-0.185547-0.039062s-0.029297-0.087891-0.029297-0.185547v-0.537109h-1.445312
			c-0.149902,0-0.224609-0.068359-0.224609-0.205078l0.048828-1.835938v-0.498047l-0.048828-0.917969
			c0-0.117188,0.016113-0.188965,0.048828-0.214844c0.019531-0.019531,0.078125-0.029297,0.175781-0.029297l2.783203,0.039062
			h6.738281l2.783203-0.039062c0.104004,0,0.166016,0.016113,0.185547,0.048828
			c0.019531,0.025879,0.029297,0.091309,0.029297,0.195312l-0.029297,0.800781v0.615234l0.029297,1.835938
			c0,0.136719-0.071777,0.205078-0.214844,0.205078h-1.494141v0.537109c0,0.11084-0.016113,0.175781-0.048828,0.195312
			c-0.019531,0.019531-0.078125,0.029297-0.175781,0.029297l-1.923828-0.048828h-1.699219v0.898438h1.464844l2.578125-0.039062
			c0.104004,0,0.166016,0.013184,0.185547,0.039062s0.029297,0.084473,0.029297,0.175781l-0.029297,1.669922v2.021484
			l0.029297,1.660156c0,0.097656-0.01123,0.157715-0.03418,0.180664s-0.083008,0.03418-0.180664,0.03418l-2.578125-0.039062
			h-1.464844v0.878906h2.480469l2.763672-0.039062c0.104004,0,0.166016,0.013184,0.185547,0.039062
			s0.029297,0.084473,0.029297,0.175781v1.152344c0,0.097656-0.01123,0.157715-0.03418,0.180664s-0.083008,0.03418-0.180664,0.03418
			l-2.763672-0.039062h-2.480469l0.039062,1.396484c0,0.149902-0.071777,0.224609-0.214844,0.224609h-1.445312
			c-0.143066,0-0.214844-0.074707-0.214844-0.224609c0-0.019531,0.003418-0.172363,0.009766-0.458984
			c0.013184-0.306152,0.022949-0.618652,0.029297-0.9375H75.001129z M82.647614,26.012207h-8.925781v1.376953l1.923828,0.039062
			h1.5625c-0.025879-0.377441-0.068359-0.722656-0.126953-1.035156c0.689941,0.019531,1.312012,0.058594,1.865234,0.117188
			c0.20166,0.025879,0.302734,0.087891,0.302734,0.185547c0,0.064941-0.035645,0.175781-0.107422,0.332031
			c-0.058594,0.11084-0.097656,0.244141-0.117188,0.400391h1.699219l1.923828-0.039062V26.012207z M74.844879,31.949707h2.382812
			v-1.005859h-2.382812V31.949707z M74.844879,34.146973h2.382812v-1.015625h-2.382812V34.146973z M81.465973,30.943848h-2.441406
			v1.005859h2.441406V30.943848z M81.465973,34.146973v-1.015625h-2.441406v1.015625H81.465973z"/>
		<path class="st2" d="M98.23941,39.713379c0.728516,0.052246,1.347656,0.078125,1.855469,0.078125
			c0.429688,0,0.644531-0.218262,0.644531-0.654297v-3.320312h-4.707031v2.382812l0.039062,2.958984
			c0,0.104004-0.013672,0.166016-0.039062,0.185547c-0.026367,0.019531-0.084961,0.029297-0.175781,0.029297h-1.728516
			c-0.104492,0-0.166016-0.013184-0.185547-0.039062S93.913239,41.25,93.913239,41.158691l0.039062-2.958984v-2.382812h-4.560547
			c-0.240723,2.181152-0.820312,4.026855-1.738281,5.537109c-0.149902,0.26709-0.27002,0.400391-0.361328,0.400391
			c-0.064941,0-0.205078-0.107422-0.419922-0.322266c-0.410156-0.410156-0.882324-0.748535-1.416016-1.015625
			c0.787598-1.015625,1.334473-2.259277,1.640625-3.730469c0.279785-1.341309,0.419922-3.121582,0.419922-5.341797v-3.28125
			l-0.039062-3.271484c0-0.117188,0.016113-0.188965,0.048828-0.214844c0.025879-0.019531,0.091309-0.029297,0.195312-0.029297
			l2.734375,0.039062h9.404297l2.753906-0.039062c0.110352,0,0.175781,0.016113,0.195312,0.048828
			c0.019531,0.025879,0.029297,0.091309,0.029297,0.195312l-0.039062,3.271484v8.857422l0.039062,2.753906
			c0,0.716309-0.22168,1.256348-0.664062,1.621094c-0.384766,0.345215-1.263672,0.517578-2.636719,0.517578
			c-0.326172,0-0.514648-0.025879-0.566406-0.078125c-0.052734-0.04541-0.111328-0.211426-0.175781-0.498047
			C98.665192,40.657227,98.479645,40.149414,98.23941,39.713379z M89.538239,33.961426h4.414062V31.13916h-4.355469v0.224609
			C89.596832,32.314453,89.577301,33.180176,89.538239,33.961426z M89.596832,29.283691h4.355469v-2.773438h-4.355469V29.283691z
			 M100.73941,26.510254h-4.707031v2.773438h4.707031V26.510254z M96.032379,33.961426h4.707031V31.13916h-4.707031V33.961426z"/>
		<path class="st2" d="M107.571442,41.002441l-2.480469,0.039062c-0.130859,0-0.195312-0.071777-0.195312-0.214844v-1.689453
			c0-0.143066,0.064453-0.214844,0.195312-0.214844l2.480469,0.039062h7.021484
			c0.774414-1.953125,1.523438-4.280762,2.246094-6.982422c0.162109-0.689941,0.266602-1.328125,0.3125-1.914062
			c1.054688,0.26709,1.8125,0.491699,2.275391,0.673828c0.162109,0.052246,0.244141,0.146484,0.244141,0.283203
			c0,0.130371-0.06543,0.263672-0.195312,0.400391c-0.136719,0.149902-0.263672,0.416504-0.380859,0.800781
			c-0.664062,2.285156-1.429688,4.53125-2.294922,6.738281h3.378906l2.480469-0.039062
			c0.103516,0,0.166016,0.013184,0.185547,0.039062s0.029297,0.084473,0.029297,0.175781v1.689453
			c0,0.097656-0.011719,0.157715-0.03418,0.180664c-0.023438,0.022949-0.083008,0.03418-0.180664,0.03418l-2.480469-0.039062
			H107.571442z M108.694489,29.205566l-2.65625,0.039062c-0.104492,0-0.169922-0.016113-0.195312-0.048828
			c-0.019531-0.025879-0.029297-0.091309-0.029297-0.195312v-1.621094c0-0.11084,0.012695-0.179199,0.039062-0.205078
			c0.025391-0.019531,0.087891-0.029297,0.185547-0.029297l2.65625,0.039062h3.964844v-1.542969
			c0-0.833496-0.048828-1.445312-0.146484-1.835938c0.669922,0,1.402344,0.032715,2.197266,0.097656
			c0.214844,0.025879,0.322266,0.101074,0.322266,0.224609c0,0.04541-0.039062,0.179199-0.117188,0.400391
			c-0.06543,0.175781-0.097656,0.546875-0.097656,1.113281v1.542969h4.277344l2.685547-0.039062
			c0.103516,0,0.166016,0.016113,0.185547,0.048828c0.019531,0.025879,0.029297,0.087891,0.029297,0.185547v1.621094
			c0,0.117188-0.013672,0.188965-0.039062,0.214844c-0.026367,0.019531-0.084961,0.029297-0.175781,0.029297l-2.685547-0.039062
			H108.694489z M110.237457,30.367676c0.989258,2.278809,1.65625,4.518066,2.001953,6.71875
			c0.012695,0.064941,0.019531,0.11084,0.019531,0.136719c0,0.084473-0.087891,0.152832-0.263672,0.205078l-1.5625,0.517578
			c-0.104492,0.039062-0.179688,0.058594-0.224609,0.058594c-0.078125,0-0.130859-0.064941-0.15625-0.195312
			c-0.326172-2.324219-0.951172-4.563965-1.875-6.71875c-0.026367-0.071777-0.039062-0.120605-0.039062-0.146484
			c0-0.058594,0.083984-0.117188,0.253906-0.175781l1.464844-0.517578c0.097656-0.039062,0.168945-0.058594,0.214844-0.058594
			C110.135895,30.191895,110.191559,30.250488,110.237457,30.367676z"/>
		<path class="st2" d="M126.473785,42.047363h-1.699219c-0.097656,0-0.158203-0.01123-0.180664-0.03418
			c-0.023438-0.022949-0.03418-0.086426-0.03418-0.19043l0.039062-7.675781v-3.974609l-0.039062-5.478516
			c0-0.11084,0.012695-0.175781,0.039062-0.195312c0.025391-0.019531,0.087891-0.029297,0.185547-0.029297l2.65625,0.039062
			h10.859375l2.65625-0.039062c0.110352,0,0.175781,0.013184,0.195312,0.039062s0.029297,0.087891,0.029297,0.185547
			l-0.039062,4.794922v4.638672l0.039062,7.675781c0,0.104004-0.013672,0.169434-0.039062,0.195312
			c-0.026367,0.019531-0.084961,0.029297-0.175781,0.029297h-1.71875c-0.111328,0-0.175781-0.013184-0.195312-0.039062
			s-0.029297-0.087891-0.029297-0.185547v-0.9375h-12.324219v0.957031c0,0.104004-0.013672,0.169434-0.039062,0.195312
			C126.632965,42.037598,126.571442,42.047363,126.473785,42.047363z M126.698395,26.393066v12.617188h12.324219V26.393066
			H126.698395z M137.059723,31.510254c0.103516,0,0.168945,0.013184,0.195312,0.039062
			c0.019531,0.025879,0.029297,0.084473,0.029297,0.175781v1.318359c0,0.11084-0.016602,0.175781-0.048828,0.195312
			c-0.019531,0.019531-0.078125,0.029297-0.175781,0.029297l-2.275391-0.039062h-1.044922v2.65625h1.640625l2.578125-0.039062
			c0.117188,0,0.188477,0.013184,0.214844,0.039062c0.019531,0.025879,0.029297,0.084473,0.029297,0.175781v1.386719
			c0,0.097656-0.013672,0.157715-0.039062,0.180664c-0.026367,0.022949-0.094727,0.03418-0.205078,0.03418l-2.578125-0.039062
			h-5.039062l-2.578125,0.039062c-0.117188,0-0.189453-0.013184-0.214844-0.039062
			c-0.019531-0.025879-0.029297-0.084473-0.029297-0.175781v-1.386719c0-0.104004,0.015625-0.166016,0.048828-0.185547
			c0.025391-0.019531,0.09082-0.029297,0.195312-0.029297l2.578125,0.039062h1.376953v-2.65625h-0.78125l-2.314453,0.039062
			c-0.111328,0-0.175781-0.013184-0.195312-0.039062s-0.029297-0.087891-0.029297-0.185547v-1.318359
			c0-0.104004,0.012695-0.166016,0.039062-0.185547c0.025391-0.019531,0.087891-0.029297,0.185547-0.029297l2.314453,0.039062
			h0.78125v-2.099609h-1.162109l-2.539062,0.039062c-0.130859,0-0.195312-0.074707-0.195312-0.224609V27.92627
			c0-0.143066,0.064453-0.214844,0.195312-0.214844l2.539062,0.039062h4.648438l2.558594-0.039062
			c0.129883,0,0.195312,0.071777,0.195312,0.214844v1.337891c0,0.149902-0.06543,0.224609-0.195312,0.224609l-2.558594-0.039062
			h-1.464844v2.099609h1.044922L137.059723,31.510254z M136.376129,33.502441
			c0.357422,0.416504,0.686523,0.898438,0.986328,1.445312c0.032227,0.064941,0.048828,0.11084,0.048828,0.136719
			c0,0.052246-0.072266,0.11377-0.214844,0.185547l-0.859375,0.458984c-0.091797,0.04541-0.160156,0.068359-0.205078,0.068359
			c-0.06543,0-0.130859-0.071777-0.195312-0.214844c-0.253906-0.585938-0.560547-1.077637-0.917969-1.474609
			c-0.045898-0.052246-0.068359-0.094238-0.068359-0.126953s0.074219-0.091309,0.224609-0.175781l0.800781-0.419922
			c0.071289-0.032715,0.126953-0.048828,0.166016-0.048828C136.200348,33.336426,136.278473,33.391602,136.376129,33.502441z"/>
	</g>
</g>
</svg>
