<?xml version="1.0" encoding="utf-8"?>
<!-- Generator: Adobe Illustrator 26.5.0, SVG Export Plug-In . SVG Version: 6.00 Build 0)  -->
<svg version="1.1" id="レイヤー_7" xmlns="http://www.w3.org/2000/svg" xmlns:xlink="http://www.w3.org/1999/xlink" x="0px"
	 y="0px" width="170px" height="65px" viewBox="0 0 170 65" style="enable-background:new 0 0 170 65;" xml:space="preserve">
<style type="text/css">
	.st0{fill:none;}
	.st1{display:none;}
	
		.st2{display:inline;fill:#FFFFFF;stroke:#FFFFFF;stroke-width:2;stroke-linecap:round;stroke-linejoin:round;stroke-miterlimit:10;}
	.st3{font-family:'YuGothicUI-Semibold';}
	.st4{font-size:20px;}
	.st5{letter-spacing:-1;}
	.st6{display:none;fill:#231815;}
	.st7{fill:#FFFFFF;stroke:#FFFFFF;stroke-width:2;stroke-linecap:round;stroke-linejoin:round;stroke-miterlimit:10;}
	.st8{fill:#231815;}
</style>
<rect class="st0" width="170" height="65"/>
<g class="st1">
	<text transform="matrix(1 0 0 1 26.7789 39.6211)" class="st2 st3 st4 st5">金融行政方針</text>
</g>
<text transform="matrix(1 0 0 1 26.7789 39.6211)" class="st6 st3 st4 st5">金融行政方針</text>
<g>
	<g>
		<path class="st7" d="M31,40.5l-2.6,0c-0.1,0-0.2,0-0.2,0c0,0,0-0.1,0-0.2v-1.5c0-0.1,0-0.2,0-0.2c0,0,0.1,0,0.2,0l2.6,0h4.6v-4.4
			h-3.8l-2.7,0c-0.1,0-0.2,0-0.2,0c0,0,0-0.1,0-0.2v-1.5c0-0.1,0-0.2,0-0.2c0,0,0.1,0,0.2,0l2.7,0h3.8v-1.8h-0.8l-2.5,0
			c-0.1,0-0.2-0.1-0.2-0.2v-1.2c-0.8,0.5-1.8,1-3.1,1.6c-0.2,0.1-0.4,0.2-0.5,0.2c-0.1,0-0.2-0.2-0.4-0.5c-0.3-0.5-0.6-0.9-1-1.2
			c3.5-1.4,6.1-3.2,7.8-5.4c0.4-0.5,0.7-1,0.8-1.3c1,0.1,1.7,0.3,2.2,0.4c0.2,0.1,0.4,0.2,0.4,0.3c0,0.1-0.1,0.2-0.2,0.3
			c0,0-0.1,0.1-0.1,0.1c2.1,2.5,4.9,4.2,8.4,5.2c-0.3,0.4-0.6,0.9-0.9,1.4c-0.1,0.3-0.3,0.5-0.4,0.5c-0.1,0-0.2,0-0.5-0.1
			c-1.2-0.4-2.2-1-3.2-1.5v1.2c0,0.1-0.1,0.2-0.2,0.2l-2.5,0h-1.1v1.8h4.2l2.7,0c0.1,0,0.2,0,0.2,0s0,0.1,0,0.2v1.5
			c0,0.1,0,0.2-0.1,0.2l-0.1,0l-2.7,0h-4.2v4.4h4.8l2.6,0c0.1,0,0.2,0,0.2,0s0,0.1,0,0.2v1.5c0,0.1-0.1,0.2-0.2,0.2l-2.6,0H31z
			 M32.6,34.7c0.5,0.8,1,1.7,1.4,2.6c0,0.1,0,0.1,0,0.2c0,0.1-0.1,0.1-0.2,0.2l-1.2,0.6c-0.1,0.1-0.2,0.1-0.3,0.1
			c0,0-0.1-0.1-0.1-0.2c-0.4-1.1-0.9-2.1-1.4-2.7c-0.1-0.1-0.1-0.1-0.1-0.2c0,0,0.1-0.1,0.2-0.2l1.1-0.5c0.1-0.1,0.2-0.1,0.2-0.1
			C32.4,34.6,32.5,34.6,32.6,34.7z M32.8,28.7c0.2,0,0.9,0,1.9,0h4c1,0,1.7,0,1.9,0c-1.6-1-2.9-2.2-4-3.5
			C35.6,26.5,34.3,27.7,32.8,28.7z M39,37.8c0.5-0.6,0.9-1.4,1.3-2.3c0.2-0.4,0.3-0.8,0.4-1.1c0.6,0.2,1.2,0.4,1.7,0.6
			c0.2,0.1,0.4,0.2,0.4,0.3c0,0.1-0.1,0.2-0.2,0.3c-0.1,0.1-0.3,0.3-0.5,0.6c-0.4,0.7-0.7,1.3-1.1,1.8c-0.1,0.2-0.2,0.3-0.3,0.3
			c-0.1,0-0.2-0.1-0.5-0.2C39.7,38,39.3,37.9,39,37.8z"/>
		<path class="st7" d="M49.7,25.5l-2.5,0c-0.1,0-0.1,0-0.2,0c0,0,0-0.1,0-0.2v-1.4c0-0.1,0-0.2,0-0.2c0,0,0.1,0,0.2,0l2.5,0h4.2
			l2.5,0c0.1,0,0.2,0,0.2,0c0,0,0,0.1,0,0.2v1.4c0,0.1,0,0.2,0,0.2c0,0-0.1,0-0.2,0l-2.5,0H49.7z M53,39.2c0.3,0.1,0.7,0.1,0.9,0.1
			c0.2,0,0.4,0,0.4-0.1c0.1-0.1,0.1-0.2,0.1-0.4v-3.2c-0.2,0-0.5,0-0.8,0c-0.6,0-0.9-0.1-1.2-0.2c-0.3-0.2-0.4-0.5-0.4-1v-1.6h-0.6
			c0,0.8-0.1,1.5-0.4,2c-0.2,0.4-0.4,0.7-0.8,1.1C50.2,35.9,50.1,36,50,36c-0.1,0-0.2-0.1-0.3-0.3c-0.2-0.2-0.4-0.4-0.6-0.5v3.1
			l0,2.5c0,0.1-0.1,0.2-0.2,0.2h-1.4c-0.1,0-0.2,0-0.2,0s0-0.1,0-0.2l0-2.5v-4.7l0-2.3c0-0.1,0-0.2,0-0.2c0,0,0.1,0,0.2,0l2.4,0h3.7
			l2.4,0c0.1,0,0.2,0,0.2,0s0,0.1,0,0.2l0,2.4v3l0,2.2c0,0.7-0.2,1.2-0.5,1.4c-0.3,0.3-0.9,0.4-1.7,0.4c-0.3,0-0.5,0-0.6-0.1
			c-0.1-0.1-0.1-0.2-0.2-0.5C53.2,39.9,53.1,39.5,53,39.2z M53.1,26.4l2.2,0c0.1,0,0.2,0,0.2,0s0,0.1,0,0.2l0,1.2v1.1l0,1.2
			c0,0.1,0,0.2,0,0.2s-0.1,0-0.2,0l-2.2,0h-2.8l-2.2,0c-0.1,0-0.2,0-0.2,0c0,0,0-0.1,0-0.2l0-1.2v-1.1l0-1.2c0-0.1,0-0.2,0-0.2
			c0,0,0.1,0,0.2,0l2.2,0H53.1z M50.1,32.7H49V35c0.4-0.3,0.7-0.6,0.8-1C50,33.7,50.1,33.3,50.1,32.7z M53.7,36.2c0.1,0,0.2,0,0.2,0
			c0,0,0,0.1,0,0.2v1c0,0.1,0,0.2,0,0.2s-0.1,0-0.2,0l-1.2,0v1.1l0,1.5c0,0.1,0,0.2,0,0.2c0,0-0.1,0-0.2,0h-1.2c-0.1,0-0.2,0-0.2,0
			c0,0,0-0.1,0-0.2l0-1.5v-1.1l-1.1,0c-0.1,0-0.2,0-0.2,0c0,0,0-0.1,0-0.2v-1c0-0.1,0-0.2,0-0.2s0.1,0,0.2,0l1.3,0h1.3L53.7,36.2z
			 M53.8,28.9v-1.1h-4v1.1H53.8z M53.6,34.1c0.1,0.1,0.2,0.1,0.4,0.1c0.2,0,0.3,0,0.4,0v-1.5h-0.9v1C53.5,33.9,53.6,34.1,53.6,34.1z
			 M63.9,35.9c0.6,1.5,1,2.9,1.2,4.2c0,0.1,0,0.1,0,0.1c0,0.1-0.1,0.2-0.2,0.2l-1.1,0.3c-0.1,0-0.2,0-0.2,0c-0.1,0-0.1-0.1-0.2-0.2
			c0-0.2-0.1-0.5-0.2-0.8c-0.1-0.4-0.1-0.6-0.1-0.7c-1.5,0.4-3.1,0.9-4.9,1.3c-0.3,0.1-0.5,0.1-0.7,0.3c-0.1,0.1-0.2,0.1-0.3,0.1
			c-0.1,0-0.2-0.1-0.2-0.3c-0.2-0.6-0.3-1.2-0.4-1.9c0.6,0,1.3-0.1,2.2-0.3c0.3,0,0.7-0.1,1-0.2v-3.9h-1v0.7c0,0.1-0.1,0.2-0.2,0.2
			h-1.3c-0.1,0-0.2-0.1-0.2-0.2l0-2.2v-3.6l0-2.1c0-0.1,0-0.2,0-0.2s0.1,0,0.2,0l2.2,0h0.4v-1.3c0-1.1,0-2-0.1-2.6
			c0.8,0,1.5,0.1,1.9,0.1c0.2,0,0.3,0.1,0.3,0.2c0,0.1,0,0.1,0,0.3c0,0.1-0.1,0.2-0.1,0.2c-0.1,0.3-0.1,0.9-0.1,1.7v1.3h0.5l2.2,0
			c0.1,0,0.2,0,0.2,0c0,0,0,0.1,0,0.2l0,1.9v3.7l0,2.1c0,0.1,0,0.2,0,0.2s-0.1,0-0.2,0h-1.3c-0.1,0-0.2,0-0.2,0c0,0,0-0.1,0-0.2
			v-0.5h-1.1v3.5l1.1-0.2c-0.1-0.3-0.2-0.7-0.4-1.3c0-0.1,0-0.1,0-0.1c0-0.1,0.1-0.1,0.3-0.2l1-0.3c0.1,0,0.1,0,0.2,0
			C63.8,35.7,63.8,35.7,63.9,35.9z M58.7,32.6h1.1v-4.2h-1.1V32.6z M62.7,28.5h-1.1v4.2h1.1V28.5z"/>
		<path class="st7" d="M70.3,27.5c0.6,0.4,1.1,0.7,1.5,1c0.2,0.1,0.2,0.3,0.2,0.4c0,0.1,0,0.2-0.1,0.2c-0.2,0.1-0.3,0.3-0.4,0.5
			c-0.4,0.6-0.7,1-0.9,1.3v7.7l0,2.5c0,0.1,0,0.2,0,0.2c0,0-0.1,0-0.2,0h-1.7c-0.1,0-0.2,0-0.2,0s0-0.1,0-0.2l0-2.5v-2.9
			c0-0.1,0-0.9,0.1-2.5c-0.6,0.5-1.1,1-1.5,1.4c-0.2,0.2-0.4,0.3-0.4,0.3c-0.1,0-0.2-0.1-0.3-0.4c-0.2-0.6-0.5-1.1-0.7-1.4
			c1.7-1.3,3.1-2.7,4.2-4.4C70,28.2,70.2,27.8,70.3,27.5z M70.3,22.8c0.6,0.3,1.2,0.6,1.6,1c0.2,0.1,0.3,0.3,0.3,0.4
			c0,0.1-0.1,0.2-0.3,0.3c-0.1,0.1-0.3,0.3-0.5,0.6c-1.1,1.3-2.4,2.4-3.9,3.4c-0.2,0.1-0.3,0.2-0.4,0.2c-0.1,0-0.2-0.2-0.4-0.5
			c-0.2-0.5-0.5-0.9-0.9-1.2c1.6-1,2.9-2.1,3.9-3.2C69.9,23.5,70.1,23.2,70.3,22.8z M75.4,30.9l-2.7,0c-0.1,0-0.2,0-0.2,0
			c0,0,0-0.1,0-0.2v-1.6c0-0.1,0-0.2,0-0.2c0,0,0.1,0,0.2,0l2.7,0h5.7l2.7,0c0.1,0,0.2,0,0.2,0s0,0.1,0,0.2v1.6c0,0.1,0,0.2,0,0.2
			s-0.1,0-0.2,0l-2.7,0h-0.4v3.8l0.1,3.8c0,1-0.2,1.6-0.7,2c-0.2,0.2-0.6,0.3-1.1,0.4c-0.4,0-1.1,0.1-2.1,0.1c-0.3,0-0.5,0-0.6-0.1
			c-0.1-0.1-0.1-0.2-0.2-0.5c-0.2-0.7-0.4-1.2-0.6-1.5c0.7,0.1,1.4,0.1,2.2,0.1c0.4,0,0.6-0.1,0.7-0.2c0.1-0.1,0.2-0.3,0.2-0.5v-7.3
			H75.4z M76.2,26l-2.5,0c-0.1,0-0.2,0-0.2,0s0-0.1,0-0.2v-1.6c0-0.1,0-0.2,0-0.2s0.1,0,0.2,0l2.5,0h4.2l2.5,0c0.1,0,0.2,0,0.2,0
			c0,0,0,0.1,0,0.2v1.6c0,0.1,0,0.2,0,0.2c0,0-0.1,0-0.2,0l-2.5,0H76.2z"/>
		<path class="st7" d="M91.3,26.5H91v3.8h0.4l1.4,0c0.1,0,0.2,0,0.2,0c0,0,0,0.1,0,0.2v0.2c1.2-1.6,2-3.5,2.6-5.8
			c0.2-1,0.3-1.7,0.3-2.1c0.7,0.1,1.4,0.3,1.9,0.4c0.3,0.1,0.4,0.2,0.4,0.3c0,0.1,0,0.2-0.1,0.3c-0.1,0.2-0.3,0.5-0.4,1
			c-0.2,0.7-0.3,1.2-0.4,1.6h3l2.6,0c0.1,0,0.2,0.1,0.2,0.2V28c0,0.1-0.1,0.2-0.2,0.2l-1.3,0c-0.2,2.9-1,5.5-2.3,7.6
			c1,1.1,2.4,2.2,4.2,3.2c-0.4,0.4-0.8,0.9-1,1.5c-0.1,0.3-0.2,0.5-0.4,0.5c-0.1,0-0.3-0.1-0.5-0.2c-1.5-1-2.7-2.1-3.6-3.3
			c-1.2,1.3-2.8,2.4-4.7,3.4c-0.3,0.1-0.4,0.2-0.4,0.2c-0.1,0-0.2-0.2-0.4-0.5c-0.2-0.4-0.6-0.8-1-1.2c2.3-0.9,4.1-2.1,5.4-3.6
			c-0.8-1.4-1.4-2.9-1.8-4.6c-0.1,0.1-0.3,0.5-0.6,1c-0.2,0.3-0.3,0.4-0.4,0.4c-0.1,0-0.2-0.1-0.3-0.3c-0.2-0.3-0.5-0.6-0.7-0.9V32
			c0,0.1,0,0.2,0,0.2c0,0-0.1,0-0.2,0l-1.4,0H91v4.2c1.1-0.3,2.1-0.7,3-1.1c0,0.5-0.1,0.9-0.1,1.3c0,0.3,0,0.5-0.1,0.6
			s-0.2,0.1-0.5,0.3c-2,0.7-4.3,1.4-6.9,2.1c-0.4,0.1-0.6,0.2-0.8,0.3c-0.2,0.1-0.3,0.2-0.4,0.2c-0.1,0-0.2-0.1-0.3-0.3
			c-0.2-0.6-0.4-1.3-0.6-2c0.3,0,0.8-0.1,1.2-0.2v-6.1c0-0.8,0-1.4-0.1-1.9c0.8,0,1.4,0.1,2,0.1c0.2,0,0.3,0.1,0.3,0.2
			c0,0.1,0,0.2-0.1,0.3c-0.1,0.1-0.1,0.5-0.1,1.2v5.7l1.3-0.3V26.5h-1.4l-2.4,0c-0.1,0-0.2-0.1-0.2-0.2v-1.5c0-0.1,0.1-0.2,0.2-0.2
			l2.4,0h3.8l2.4,0c0.1,0,0.2,0,0.2,0s0,0.1,0,0.2v1.5c0,0.1,0,0.2,0,0.2s-0.1,0-0.2,0L91.3,26.5z M99.4,28.2h-2.9
			c0,0.1-0.1,0.3-0.2,0.5c0.3,2.1,0.9,3.9,1.7,5.3C98.7,32.5,99.2,30.5,99.4,28.2z"/>
		<path class="st7" d="M106.7,28.2l-2.5,0c-0.1,0-0.2,0-0.2,0c0,0,0-0.1,0-0.2v-1.6c0-0.1,0-0.2,0-0.2c0,0,0.1,0,0.2,0l2.5,0h4.9
			v-1.3c0-0.9,0-1.5-0.1-2c0.7,0,1.4,0,2.2,0.1c0.2,0,0.3,0.1,0.3,0.2c0,0.1,0,0.2-0.1,0.4c-0.1,0.2-0.1,0.5-0.1,1.2v1.4h5.3l2.5,0
			c0.1,0,0.1,0,0.2,0c0,0,0,0.1,0,0.2V28c0,0.1,0,0.2,0,0.2c0,0-0.1,0-0.2,0l-2.5,0H112c0,0.8-0.1,1.6-0.2,2.5h4.9l2.4,0
			c0.2,0,0.2,0.1,0.2,0.3c0,0.3-0.1,0.8-0.1,1.6c-0.1,2.7-0.4,4.7-0.7,5.9c-0.2,1-0.6,1.7-1.1,2c-0.5,0.3-1.2,0.5-2.1,0.5
			c-0.6,0-1.1,0-1.6,0c-0.3,0-0.5-0.1-0.5-0.2c0-0.1-0.1-0.3-0.1-0.6c-0.1-0.7-0.2-1.2-0.4-1.5c0.9,0.1,1.7,0.2,2.5,0.2
			c0.6,0,1-0.3,1.2-1c0.3-1,0.5-2.7,0.6-5.1h-5.4c-0.4,2-1.1,3.6-2.1,4.9c-0.9,1.1-2.1,2.2-3.7,3.1c-0.3,0.1-0.4,0.2-0.5,0.2
			c-0.1,0-0.2-0.1-0.4-0.4c-0.3-0.5-0.7-0.9-1.2-1.2c2.4-1.2,4.1-2.7,5-4.5c0.8-1.6,1.2-3.8,1.2-6.6H106.7z"/>
		<path class="st7" d="M126.6,22.9c0.6,0.1,1.2,0.2,1.9,0.3c0.2,0,0.3,0.1,0.3,0.2s-0.1,0.2-0.3,0.4c0.8,1.1,2,2.1,3.5,3.1
			c-0.3,0.3-0.6,0.6-0.9,1.1c-0.2,0.3-0.3,0.4-0.4,0.4c-0.1,0-0.3-0.1-0.5-0.3v1.3c0,0.1,0,0.2,0,0.2c0,0-0.1,0-0.2,0l-1.7,0v1.5
			h0.3l2.2,0c0.1,0,0.2,0,0.2,0c0,0,0,0.1,0,0.2v1.3c0,0.1,0,0.2,0,0.2c0,0-0.1,0-0.2,0l-2.2,0h-0.3v5.1c1.4-0.3,2.5-0.6,3.2-0.8
			c-0.1,0.4-0.1,0.8-0.1,1.1c0,0.3,0,0.5-0.1,0.6c-0.1,0-0.2,0.1-0.5,0.2c-1.5,0.4-3.5,0.9-6,1.4c-0.3,0.1-0.5,0.1-0.7,0.2
			c-0.1,0.1-0.2,0.1-0.3,0.1c-0.1,0-0.3-0.1-0.3-0.3c-0.1-0.3-0.3-0.9-0.5-1.7c0.7-0.1,1.3-0.1,2-0.3l1.5-0.3v-5.4h-0.8l-2.3,0
			c-0.1,0-0.2,0-0.2,0s0-0.1,0-0.2v-1.3c0-0.1,0-0.2,0-0.2s0.1,0,0.2,0l2.3,0h0.8v-1.5l-1.6,0c-0.1,0-0.2,0-0.2,0s0-0.1,0-0.2v-0.9
			l-0.7,0.5c-0.2,0.1-0.3,0.2-0.4,0.2c-0.1,0-0.2-0.2-0.3-0.5c-0.2-0.5-0.4-0.9-0.7-1.3c1.6-1,2.8-2.2,3.6-3.6
			C126.4,23.5,126.5,23.2,126.6,22.9z M124.9,33.9c0.4,1,0.7,2,0.9,3c0,0,0,0.1,0,0.1c0,0.1-0.1,0.2-0.3,0.2l-0.9,0.3
			c-0.1,0-0.2,0-0.2,0c-0.1,0-0.1-0.1-0.1-0.2c-0.2-1.1-0.5-2.1-0.8-2.9c0-0.1,0-0.1,0-0.2c0-0.1,0.1-0.1,0.3-0.2l0.8-0.3
			c0.1,0,0.2-0.1,0.2-0.1C124.8,33.7,124.9,33.8,124.9,33.9z M125.2,28c0.2,0,0.6,0,1.4,0h1.7l1.7,0c-1.1-0.9-1.9-1.7-2.6-2.6
			C126.9,26.3,126.1,27.2,125.2,28z M128.8,36.6c0.3-0.8,0.6-1.5,0.8-2.3c0.1-0.2,0.1-0.4,0.1-0.7c0.6,0.2,1.1,0.4,1.5,0.6
			c0.1,0.1,0.2,0.1,0.2,0.2s0,0.1-0.1,0.2c-0.1,0.1-0.2,0.3-0.3,0.5c-0.2,0.6-0.4,1.1-0.6,1.6c-0.2,0.3-0.3,0.5-0.4,0.5
			c-0.1,0-0.2-0.1-0.5-0.2C129.3,36.7,129.1,36.6,128.8,36.6z M134.8,23c0.9,0,1.6,0.1,2.2,0.1c0.2,0,0.3,0.1,0.3,0.2
			c0,0.1,0,0.2-0.1,0.4c-0.1,0.2-0.1,0.9-0.1,2.2v3.6h1.2l2.5,0c0.1,0,0.2,0,0.2,0s0,0.1,0,0.2v1.6c0,0.1,0,0.2,0,0.2s-0.1,0-0.2,0
			l-2.5,0H137v6l0,3.5c0,0.1,0,0.2,0,0.2s-0.1,0-0.2,0h-1.8c-0.1,0-0.2,0-0.2,0c0,0,0-0.1,0-0.2l0-3.5v-6.1H134l-2.5,0
			c-0.1,0-0.2,0-0.2,0c0,0,0-0.1,0-0.2v-1.6c0-0.1,0-0.2,0-0.2c0,0,0.1,0,0.2,0l2.5,0h0.9V26C134.9,24.7,134.9,23.7,134.8,23z"/>
	</g>
</g>
<g>
	<path class="st8" d="M31,40.5l-2.6,0c-0.1,0-0.2,0-0.2,0c0,0,0-0.1,0-0.2v-1.5c0-0.1,0-0.2,0-0.2c0,0,0.1,0,0.2,0l2.6,0h4.6v-4.4
		h-3.8l-2.7,0c-0.1,0-0.2,0-0.2,0c0,0,0-0.1,0-0.2v-1.5c0-0.1,0-0.2,0-0.2c0,0,0.1,0,0.2,0l2.7,0h3.8v-1.8h-0.8l-2.5,0
		c-0.1,0-0.2-0.1-0.2-0.2v-1.2c-0.8,0.5-1.8,1-3.1,1.6c-0.2,0.1-0.4,0.2-0.5,0.2c-0.1,0-0.2-0.2-0.4-0.5c-0.3-0.5-0.6-0.9-1-1.2
		c3.5-1.4,6.1-3.2,7.8-5.4c0.4-0.5,0.7-1,0.8-1.3c1,0.1,1.7,0.3,2.2,0.4c0.2,0.1,0.4,0.2,0.4,0.3c0,0.1-0.1,0.2-0.2,0.3
		c0,0-0.1,0.1-0.1,0.1c2.1,2.5,4.9,4.2,8.4,5.2c-0.3,0.4-0.6,0.9-0.9,1.4c-0.1,0.3-0.3,0.5-0.4,0.5c-0.1,0-0.2,0-0.5-0.1
		c-1.2-0.4-2.2-1-3.2-1.5v1.2c0,0.1-0.1,0.2-0.2,0.2l-2.5,0h-1.1v1.8h4.2l2.7,0c0.1,0,0.2,0,0.2,0s0,0.1,0,0.2v1.5
		c0,0.1,0,0.2-0.1,0.2l-0.1,0l-2.7,0h-4.2v4.4h4.8l2.6,0c0.1,0,0.2,0,0.2,0s0,0.1,0,0.2v1.5c0,0.1-0.1,0.2-0.2,0.2l-2.6,0H31z
		 M32.6,34.7c0.5,0.8,1,1.7,1.4,2.6c0,0.1,0,0.1,0,0.2c0,0.1-0.1,0.1-0.2,0.2l-1.2,0.6c-0.1,0.1-0.2,0.1-0.3,0.1
		c0,0-0.1-0.1-0.1-0.2c-0.4-1.1-0.9-2.1-1.4-2.7c-0.1-0.1-0.1-0.1-0.1-0.2c0,0,0.1-0.1,0.2-0.2l1.1-0.5c0.1-0.1,0.2-0.1,0.2-0.1
		C32.4,34.6,32.5,34.6,32.6,34.7z M32.8,28.7c0.2,0,0.9,0,1.9,0h4c1,0,1.7,0,1.9,0c-1.6-1-2.9-2.2-4-3.5
		C35.6,26.5,34.3,27.7,32.8,28.7z M39,37.8c0.5-0.6,0.9-1.4,1.3-2.3c0.2-0.4,0.3-0.8,0.4-1.1c0.6,0.2,1.2,0.4,1.7,0.6
		c0.2,0.1,0.4,0.2,0.4,0.3c0,0.1-0.1,0.2-0.2,0.3c-0.1,0.1-0.3,0.3-0.5,0.6c-0.4,0.7-0.7,1.3-1.1,1.8c-0.1,0.2-0.2,0.3-0.3,0.3
		c-0.1,0-0.2-0.1-0.5-0.2C39.7,38,39.3,37.9,39,37.8z"/>
	<path class="st8" d="M49.7,25.5l-2.5,0c-0.1,0-0.1,0-0.2,0c0,0,0-0.1,0-0.2v-1.4c0-0.1,0-0.2,0-0.2c0,0,0.1,0,0.2,0l2.5,0h4.2
		l2.5,0c0.1,0,0.2,0,0.2,0c0,0,0,0.1,0,0.2v1.4c0,0.1,0,0.2,0,0.2c0,0-0.1,0-0.2,0l-2.5,0H49.7z M53,39.2c0.3,0.1,0.7,0.1,0.9,0.1
		c0.2,0,0.4,0,0.4-0.1c0.1-0.1,0.1-0.2,0.1-0.4v-3.2c-0.2,0-0.5,0-0.8,0c-0.6,0-0.9-0.1-1.2-0.2c-0.3-0.2-0.4-0.5-0.4-1v-1.6h-0.6
		c0,0.8-0.1,1.5-0.4,2c-0.2,0.4-0.4,0.7-0.8,1.1C50.2,35.9,50.1,36,50,36c-0.1,0-0.2-0.1-0.3-0.3c-0.2-0.2-0.4-0.4-0.6-0.5v3.1
		l0,2.5c0,0.1-0.1,0.2-0.2,0.2h-1.4c-0.1,0-0.2,0-0.2,0s0-0.1,0-0.2l0-2.5v-4.7l0-2.3c0-0.1,0-0.2,0-0.2c0,0,0.1,0,0.2,0l2.4,0h3.7
		l2.4,0c0.1,0,0.2,0,0.2,0s0,0.1,0,0.2l0,2.4v3l0,2.2c0,0.7-0.2,1.2-0.5,1.4c-0.3,0.3-0.9,0.4-1.7,0.4c-0.3,0-0.5,0-0.6-0.1
		c-0.1-0.1-0.1-0.2-0.2-0.5C53.2,39.9,53.1,39.5,53,39.2z M53.1,26.4l2.2,0c0.1,0,0.2,0,0.2,0s0,0.1,0,0.2l0,1.2v1.1l0,1.2
		c0,0.1,0,0.2,0,0.2s-0.1,0-0.2,0l-2.2,0h-2.8l-2.2,0c-0.1,0-0.2,0-0.2,0c0,0,0-0.1,0-0.2l0-1.2v-1.1l0-1.2c0-0.1,0-0.2,0-0.2
		c0,0,0.1,0,0.2,0l2.2,0H53.1z M50.1,32.7H49V35c0.4-0.3,0.7-0.6,0.8-1C50,33.7,50.1,33.3,50.1,32.7z M53.7,36.2c0.1,0,0.2,0,0.2,0
		c0,0,0,0.1,0,0.2v1c0,0.1,0,0.2,0,0.2s-0.1,0-0.2,0l-1.2,0v1.1l0,1.5c0,0.1,0,0.2,0,0.2c0,0-0.1,0-0.2,0h-1.2c-0.1,0-0.2,0-0.2,0
		c0,0,0-0.1,0-0.2l0-1.5v-1.1l-1.1,0c-0.1,0-0.2,0-0.2,0c0,0,0-0.1,0-0.2v-1c0-0.1,0-0.2,0-0.2s0.1,0,0.2,0l1.3,0h1.3L53.7,36.2z
		 M53.8,28.9v-1.1h-4v1.1H53.8z M53.6,34.1c0.1,0.1,0.2,0.1,0.4,0.1c0.2,0,0.3,0,0.4,0v-1.5h-0.9v1C53.5,33.9,53.6,34.1,53.6,34.1z
		 M63.9,35.9c0.6,1.5,1,2.9,1.2,4.2c0,0.1,0,0.1,0,0.1c0,0.1-0.1,0.2-0.2,0.2l-1.1,0.3c-0.1,0-0.2,0-0.2,0c-0.1,0-0.1-0.1-0.2-0.2
		c0-0.2-0.1-0.5-0.2-0.8c-0.1-0.4-0.1-0.6-0.1-0.7c-1.5,0.4-3.1,0.9-4.9,1.3c-0.3,0.1-0.5,0.1-0.7,0.3c-0.1,0.1-0.2,0.1-0.3,0.1
		c-0.1,0-0.2-0.1-0.2-0.3c-0.2-0.6-0.3-1.2-0.4-1.9c0.6,0,1.3-0.1,2.2-0.3c0.3,0,0.7-0.1,1-0.2v-3.9h-1v0.7c0,0.1-0.1,0.2-0.2,0.2
		h-1.3c-0.1,0-0.2-0.1-0.2-0.2l0-2.2v-3.6l0-2.1c0-0.1,0-0.2,0-0.2s0.1,0,0.2,0l2.2,0h0.4v-1.3c0-1.1,0-2-0.1-2.6
		c0.8,0,1.5,0.1,1.9,0.1c0.2,0,0.3,0.1,0.3,0.2c0,0.1,0,0.1,0,0.3c0,0.1-0.1,0.2-0.1,0.2c-0.1,0.3-0.1,0.9-0.1,1.7v1.3h0.5l2.2,0
		c0.1,0,0.2,0,0.2,0c0,0,0,0.1,0,0.2l0,1.9v3.7l0,2.1c0,0.1,0,0.2,0,0.2s-0.1,0-0.2,0h-1.3c-0.1,0-0.2,0-0.2,0c0,0,0-0.1,0-0.2v-0.5
		h-1.1v3.5l1.1-0.2c-0.1-0.3-0.2-0.7-0.4-1.3c0-0.1,0-0.1,0-0.1c0-0.1,0.1-0.1,0.3-0.2l1-0.3c0.1,0,0.1,0,0.2,0
		C63.8,35.7,63.8,35.7,63.9,35.9z M58.7,32.6h1.1v-4.2h-1.1V32.6z M62.7,28.5h-1.1v4.2h1.1V28.5z"/>
	<path class="st8" d="M70.3,27.5c0.6,0.4,1.1,0.7,1.5,1c0.2,0.1,0.2,0.3,0.2,0.4c0,0.1,0,0.2-0.1,0.2c-0.2,0.1-0.3,0.3-0.4,0.5
		c-0.4,0.6-0.7,1-0.9,1.3v7.7l0,2.5c0,0.1,0,0.2,0,0.2c0,0-0.1,0-0.2,0h-1.7c-0.1,0-0.2,0-0.2,0s0-0.1,0-0.2l0-2.5v-2.9
		c0-0.1,0-0.9,0.1-2.5c-0.6,0.5-1.1,1-1.5,1.4c-0.2,0.2-0.4,0.3-0.4,0.3c-0.1,0-0.2-0.1-0.3-0.4c-0.2-0.6-0.5-1.1-0.7-1.4
		c1.7-1.3,3.1-2.7,4.2-4.4C70,28.2,70.2,27.8,70.3,27.5z M70.3,22.8c0.6,0.3,1.2,0.6,1.6,1c0.2,0.1,0.3,0.3,0.3,0.4
		c0,0.1-0.1,0.2-0.3,0.3c-0.1,0.1-0.3,0.3-0.5,0.6c-1.1,1.3-2.4,2.4-3.9,3.4c-0.2,0.1-0.3,0.2-0.4,0.2c-0.1,0-0.2-0.2-0.4-0.5
		c-0.2-0.5-0.5-0.9-0.9-1.2c1.6-1,2.9-2.1,3.9-3.2C69.9,23.5,70.1,23.2,70.3,22.8z M75.4,30.9l-2.7,0c-0.1,0-0.2,0-0.2,0
		c0,0,0-0.1,0-0.2v-1.6c0-0.1,0-0.2,0-0.2c0,0,0.1,0,0.2,0l2.7,0h5.7l2.7,0c0.1,0,0.2,0,0.2,0s0,0.1,0,0.2v1.6c0,0.1,0,0.2,0,0.2
		s-0.1,0-0.2,0l-2.7,0h-0.4v3.8l0.1,3.8c0,1-0.2,1.6-0.7,2c-0.2,0.2-0.6,0.3-1.1,0.4c-0.4,0-1.1,0.1-2.1,0.1c-0.3,0-0.5,0-0.6-0.1
		c-0.1-0.1-0.1-0.2-0.2-0.5c-0.2-0.7-0.4-1.2-0.6-1.5c0.7,0.1,1.4,0.1,2.2,0.1c0.4,0,0.6-0.1,0.7-0.2c0.1-0.1,0.2-0.3,0.2-0.5v-7.3
		H75.4z M76.2,26l-2.5,0c-0.1,0-0.2,0-0.2,0s0-0.1,0-0.2v-1.6c0-0.1,0-0.2,0-0.2s0.1,0,0.2,0l2.5,0h4.2l2.5,0c0.1,0,0.2,0,0.2,0
		c0,0,0,0.1,0,0.2v1.6c0,0.1,0,0.2,0,0.2c0,0-0.1,0-0.2,0l-2.5,0H76.2z"/>
	<path class="st8" d="M91.3,26.5H91v3.8h0.4l1.4,0c0.1,0,0.2,0,0.2,0c0,0,0,0.1,0,0.2v0.2c1.2-1.6,2-3.5,2.6-5.8
		c0.2-1,0.3-1.7,0.3-2.1c0.7,0.1,1.4,0.3,1.9,0.4c0.3,0.1,0.4,0.2,0.4,0.3c0,0.1,0,0.2-0.1,0.3c-0.1,0.2-0.3,0.5-0.4,1
		c-0.2,0.7-0.3,1.2-0.4,1.6h3l2.6,0c0.1,0,0.2,0.1,0.2,0.2V28c0,0.1-0.1,0.2-0.2,0.2l-1.3,0c-0.2,2.9-1,5.5-2.3,7.6
		c1,1.1,2.4,2.2,4.2,3.2c-0.4,0.4-0.8,0.9-1,1.5c-0.1,0.3-0.2,0.5-0.4,0.5c-0.1,0-0.3-0.1-0.5-0.2c-1.5-1-2.7-2.1-3.6-3.3
		c-1.2,1.3-2.8,2.4-4.7,3.4c-0.3,0.1-0.4,0.2-0.4,0.2c-0.1,0-0.2-0.2-0.4-0.5c-0.2-0.4-0.6-0.8-1-1.2c2.3-0.9,4.1-2.1,5.4-3.6
		c-0.8-1.4-1.4-2.9-1.8-4.6c-0.1,0.1-0.3,0.5-0.6,1c-0.2,0.3-0.3,0.4-0.4,0.4c-0.1,0-0.2-0.1-0.3-0.3c-0.2-0.3-0.5-0.6-0.7-0.9V32
		c0,0.1,0,0.2,0,0.2c0,0-0.1,0-0.2,0l-1.4,0H91v4.2c1.1-0.3,2.1-0.7,3-1.1c0,0.5-0.1,0.9-0.1,1.3c0,0.3,0,0.5-0.1,0.6
		s-0.2,0.1-0.5,0.3c-2,0.7-4.3,1.4-6.9,2.1c-0.4,0.1-0.6,0.2-0.8,0.3c-0.2,0.1-0.3,0.2-0.4,0.2c-0.1,0-0.2-0.1-0.3-0.3
		c-0.2-0.6-0.4-1.3-0.6-2c0.3,0,0.8-0.1,1.2-0.2v-6.1c0-0.8,0-1.4-0.1-1.9c0.8,0,1.4,0.1,2,0.1c0.2,0,0.3,0.1,0.3,0.2
		c0,0.1,0,0.2-0.1,0.3c-0.1,0.1-0.1,0.5-0.1,1.2v5.7l1.3-0.3V26.5h-1.4l-2.4,0c-0.1,0-0.2-0.1-0.2-0.2v-1.5c0-0.1,0.1-0.2,0.2-0.2
		l2.4,0h3.8l2.4,0c0.1,0,0.2,0,0.2,0s0,0.1,0,0.2v1.5c0,0.1,0,0.2,0,0.2s-0.1,0-0.2,0L91.3,26.5z M99.4,28.2h-2.9
		c0,0.1-0.1,0.3-0.2,0.5c0.3,2.1,0.9,3.9,1.7,5.3C98.7,32.5,99.2,30.5,99.4,28.2z"/>
	<path class="st8" d="M106.7,28.2l-2.5,0c-0.1,0-0.2,0-0.2,0c0,0,0-0.1,0-0.2v-1.6c0-0.1,0-0.2,0-0.2c0,0,0.1,0,0.2,0l2.5,0h4.9
		v-1.3c0-0.9,0-1.5-0.1-2c0.7,0,1.4,0,2.2,0.1c0.2,0,0.3,0.1,0.3,0.2c0,0.1,0,0.2-0.1,0.4c-0.1,0.2-0.1,0.5-0.1,1.2v1.4h5.3l2.5,0
		c0.1,0,0.1,0,0.2,0c0,0,0,0.1,0,0.2V28c0,0.1,0,0.2,0,0.2c0,0-0.1,0-0.2,0l-2.5,0H112c0,0.8-0.1,1.6-0.2,2.5h4.9l2.4,0
		c0.2,0,0.2,0.1,0.2,0.3c0,0.3-0.1,0.8-0.1,1.6c-0.1,2.7-0.4,4.7-0.7,5.9c-0.2,1-0.6,1.7-1.1,2c-0.5,0.3-1.2,0.5-2.1,0.5
		c-0.6,0-1.1,0-1.6,0c-0.3,0-0.5-0.1-0.5-0.2c0-0.1-0.1-0.3-0.1-0.6c-0.1-0.7-0.2-1.2-0.4-1.5c0.9,0.1,1.7,0.2,2.5,0.2
		c0.6,0,1-0.3,1.2-1c0.3-1,0.5-2.7,0.6-5.1h-5.4c-0.4,2-1.1,3.6-2.1,4.9c-0.9,1.1-2.1,2.2-3.7,3.1c-0.3,0.1-0.4,0.2-0.5,0.2
		c-0.1,0-0.2-0.1-0.4-0.4c-0.3-0.5-0.7-0.9-1.2-1.2c2.4-1.2,4.1-2.7,5-4.5c0.8-1.6,1.2-3.8,1.2-6.6H106.7z"/>
	<path class="st8" d="M126.6,22.9c0.6,0.1,1.2,0.2,1.9,0.3c0.2,0,0.3,0.1,0.3,0.2s-0.1,0.2-0.3,0.4c0.8,1.1,2,2.1,3.5,3.1
		c-0.3,0.3-0.6,0.6-0.9,1.1c-0.2,0.3-0.3,0.4-0.4,0.4c-0.1,0-0.3-0.1-0.5-0.3v1.3c0,0.1,0,0.2,0,0.2c0,0-0.1,0-0.2,0l-1.7,0v1.5h0.3
		l2.2,0c0.1,0,0.2,0,0.2,0c0,0,0,0.1,0,0.2v1.3c0,0.1,0,0.2,0,0.2c0,0-0.1,0-0.2,0l-2.2,0h-0.3v5.1c1.4-0.3,2.5-0.6,3.2-0.8
		c-0.1,0.4-0.1,0.8-0.1,1.1c0,0.3,0,0.5-0.1,0.6c-0.1,0-0.2,0.1-0.5,0.2c-1.5,0.4-3.5,0.9-6,1.4c-0.3,0.1-0.5,0.1-0.7,0.2
		c-0.1,0.1-0.2,0.1-0.3,0.1c-0.1,0-0.3-0.1-0.3-0.3c-0.1-0.3-0.3-0.9-0.5-1.7c0.7-0.1,1.3-0.1,2-0.3l1.5-0.3v-5.4h-0.8l-2.3,0
		c-0.1,0-0.2,0-0.2,0s0-0.1,0-0.2v-1.3c0-0.1,0-0.2,0-0.2s0.1,0,0.2,0l2.3,0h0.8v-1.5l-1.6,0c-0.1,0-0.2,0-0.2,0s0-0.1,0-0.2v-0.9
		l-0.7,0.5c-0.2,0.1-0.3,0.2-0.4,0.2c-0.1,0-0.2-0.2-0.3-0.5c-0.2-0.5-0.4-0.9-0.7-1.3c1.6-1,2.8-2.2,3.6-3.6
		C126.4,23.5,126.5,23.2,126.6,22.9z M124.9,33.9c0.4,1,0.7,2,0.9,3c0,0,0,0.1,0,0.1c0,0.1-0.1,0.2-0.3,0.2l-0.9,0.3
		c-0.1,0-0.2,0-0.2,0c-0.1,0-0.1-0.1-0.1-0.2c-0.2-1.1-0.5-2.1-0.8-2.9c0-0.1,0-0.1,0-0.2c0-0.1,0.1-0.1,0.3-0.2l0.8-0.3
		c0.1,0,0.2-0.1,0.2-0.1C124.8,33.7,124.9,33.8,124.9,33.9z M125.2,28c0.2,0,0.6,0,1.4,0h1.7l1.7,0c-1.1-0.9-1.9-1.7-2.6-2.6
		C126.9,26.3,126.1,27.2,125.2,28z M128.8,36.6c0.3-0.8,0.6-1.5,0.8-2.3c0.1-0.2,0.1-0.4,0.1-0.7c0.6,0.2,1.1,0.4,1.5,0.6
		c0.1,0.1,0.2,0.1,0.2,0.2s0,0.1-0.1,0.2c-0.1,0.1-0.2,0.3-0.3,0.5c-0.2,0.6-0.4,1.1-0.6,1.6c-0.2,0.3-0.3,0.5-0.4,0.5
		c-0.1,0-0.2-0.1-0.5-0.2C129.3,36.7,129.1,36.6,128.8,36.6z M134.8,23c0.9,0,1.6,0.1,2.2,0.1c0.2,0,0.3,0.1,0.3,0.2
		c0,0.1,0,0.2-0.1,0.4c-0.1,0.2-0.1,0.9-0.1,2.2v3.6h1.2l2.5,0c0.1,0,0.2,0,0.2,0s0,0.1,0,0.2v1.6c0,0.1,0,0.2,0,0.2s-0.1,0-0.2,0
		l-2.5,0H137v6l0,3.5c0,0.1,0,0.2,0,0.2s-0.1,0-0.2,0h-1.8c-0.1,0-0.2,0-0.2,0c0,0,0-0.1,0-0.2l0-3.5v-6.1H134l-2.5,0
		c-0.1,0-0.2,0-0.2,0c0,0,0-0.1,0-0.2v-1.6c0-0.1,0-0.2,0-0.2c0,0,0.1,0,0.2,0l2.5,0h0.9V26C134.9,24.7,134.9,23.7,134.8,23z"/>
</g>
</svg>
