<svg width="750" height="560" viewBox="0 0 750 560" fill="none" xmlns="http://www.w3.org/2000/svg">
<path d="M252.196 194.529C252.051 194.529 251.903 194.506 251.758 194.46C249.593 193.773 247.289 192.563 244.954 190.962C244.294 190.51 244.128 189.608 244.581 188.949C244.862 188.541 245.316 188.321 245.777 188.321C246.059 188.321 246.345 188.403 246.595 188.577C248.751 190.058 250.845 191.138 252.633 191.702C253.395 191.942 253.819 192.757 253.577 193.518C253.381 194.133 252.81 194.529 252.196 194.529ZM259.018 193.653C258.612 193.653 258.209 193.485 257.922 193.155C257.399 192.55 257.465 191.636 258.069 191.112C258.673 190.591 259.277 189.851 259.844 188.919C260.412 187.987 260.941 186.863 261.41 185.596C261.628 185.014 262.181 184.651 262.769 184.651C262.937 184.651 263.107 184.682 263.272 184.743C264.023 185.019 264.407 185.852 264.129 186.603C263.605 188.01 263.007 189.294 262.322 190.423C261.635 191.549 260.861 192.525 259.967 193.298C259.693 193.536 259.355 193.653 259.018 193.653ZM240.181 186.618C239.82 186.618 239.457 186.483 239.176 186.212C237.426 184.529 235.739 182.665 234.193 180.673C233.703 180.042 233.819 179.133 234.451 178.643C234.716 178.438 235.028 178.339 235.338 178.339C235.771 178.339 236.199 178.533 236.484 178.901C237.94 180.777 239.536 182.54 241.186 184.128C241.763 184.682 241.78 185.599 241.225 186.176C240.94 186.47 240.561 186.618 240.181 186.618ZM264.568 180.543C264.488 180.543 264.408 180.537 264.327 180.525C263.537 180.392 263.004 179.646 263.136 178.857C263.507 176.64 263.745 174.268 263.836 171.842C263.865 171.061 264.508 170.45 265.284 170.45C265.301 170.45 265.32 170.45 265.339 170.45C266.139 170.478 266.762 171.153 266.732 171.949C266.637 174.493 266.388 176.985 265.995 179.335C265.876 180.042 265.263 180.543 264.568 180.543ZM231.372 175.182C230.856 175.182 230.356 174.906 230.094 174.421C228.875 172.159 227.89 169.812 227.236 167.429C227.025 166.658 227.478 165.861 228.25 165.652C228.378 165.616 228.507 165.598 228.634 165.598C229.271 165.598 229.855 166.022 230.03 166.663C230.615 168.798 231.514 170.951 232.646 173.047C233.025 173.752 232.761 174.628 232.057 175.009C231.838 175.126 231.604 175.182 231.372 175.182ZM265.124 166.109C264.378 166.109 263.745 165.537 263.682 164.778C263.485 162.391 263.137 160.041 262.632 157.83C262.455 157.051 262.943 156.275 263.723 156.098C263.831 156.073 263.94 156.06 264.046 156.06C264.707 156.06 265.305 156.517 265.457 157.186C265.998 159.548 266.363 162.031 266.57 164.541C266.636 165.34 266.043 166.04 265.244 166.104C265.205 166.106 265.165 166.109 265.124 166.109ZM227.859 161.339C227.822 161.339 227.785 161.336 227.748 161.333C226.951 161.275 226.352 160.58 226.412 159.781C226.571 157.674 227.085 155.59 228.022 153.606C228.23 153.167 228.458 152.732 228.703 152.306C228.971 151.841 229.458 151.581 229.959 151.581C230.205 151.581 230.453 151.645 230.682 151.775C231.375 152.173 231.614 153.059 231.214 153.751C231.007 154.112 230.817 154.474 230.643 154.842C229.866 156.489 229.437 158.213 229.303 159.998C229.244 160.759 228.61 161.339 227.859 161.339ZM261.759 152.102C261.215 152.102 260.693 151.793 260.447 151.267C259.403 149.037 258.124 147.186 256.641 145.855C256.047 145.322 255.998 144.407 256.534 143.812C256.82 143.496 257.215 143.332 257.611 143.332C257.957 143.332 258.303 143.457 258.58 143.705C260.434 145.37 261.904 147.551 263.071 150.041C263.41 150.764 263.097 151.627 262.372 151.964C262.174 152.058 261.965 152.102 261.759 152.102ZM234.648 149.007C234.235 149.007 233.825 148.83 233.538 148.491C233.024 147.878 233.103 146.964 233.716 146.45C235.665 144.816 237.875 143.45 240.192 142.421C240.383 142.336 240.582 142.295 240.779 142.295C241.334 142.295 241.864 142.615 242.105 143.156C242.429 143.886 242.099 144.742 241.369 145.066C239.3 145.983 237.311 147.214 235.58 148.67C235.307 148.897 234.977 149.007 234.648 149.007ZM254.823 144.359C254.617 144.359 254.407 144.315 254.208 144.221C252.79 143.554 251.137 143.23 249.346 143.23C248.864 143.23 248.375 143.253 247.878 143.299C247.831 143.302 247.786 143.307 247.742 143.307C247.001 143.307 246.369 142.742 246.3 141.994C246.226 141.197 246.811 140.49 247.608 140.416C248.191 140.362 248.77 140.334 249.346 140.334C251.484 140.334 253.567 140.722 255.442 141.601C256.165 141.943 256.476 142.804 256.136 143.526C255.889 144.052 255.368 144.359 254.823 144.359Z" fill="#EBE8FA"/>
<path d="M195.394 233.42C195.384 233.42 195.375 233.42 195.365 233.42C192.887 233.372 190.42 233.206 187.994 232.912C187.199 232.817 186.633 232.095 186.73 231.302C186.819 230.566 187.444 230.027 188.167 230.027C188.225 230.027 188.284 230.032 188.343 230.039C190.665 230.319 193.035 230.478 195.422 230.526C196.222 230.542 196.858 231.202 196.842 232.002C196.827 232.791 196.181 233.42 195.394 233.42ZM202.637 233.232C201.883 233.232 201.247 232.648 201.193 231.886C201.137 231.088 201.738 230.397 202.536 230.341C204.923 230.172 207.292 229.901 209.612 229.533C209.688 229.521 209.764 229.517 209.84 229.517C210.54 229.517 211.156 230.025 211.269 230.739C211.394 231.528 210.854 232.268 210.064 232.394C207.663 232.772 205.212 233.054 202.74 233.228C202.706 233.23 202.671 233.232 202.637 233.232ZM181.046 231.632C180.931 231.632 180.814 231.62 180.697 231.592C178.238 230.984 175.861 230.217 173.606 229.274C172.867 228.966 172.519 228.118 172.828 227.382C173.06 226.827 173.598 226.492 174.165 226.492C174.351 226.492 174.541 226.527 174.723 226.603C176.827 227.484 179.063 228.206 181.392 228.781C182.169 228.973 182.643 229.756 182.452 230.533C182.288 231.193 181.697 231.632 181.046 231.632ZM216.937 230.97C216.288 230.97 215.699 230.53 215.533 229.873C215.338 229.099 215.809 228.311 216.585 228.118C218.96 227.52 221.237 226.824 223.368 226.046C223.534 225.986 223.702 225.955 223.867 225.955C224.458 225.955 225.013 226.321 225.227 226.907C225.503 227.658 225.116 228.489 224.365 228.764C222.131 229.581 219.76 230.305 217.291 230.925C217.172 230.953 217.053 230.97 216.937 230.97ZM167.788 225.977C167.508 225.977 167.225 225.896 166.976 225.725C164.861 224.293 162.938 222.634 161.267 220.73C160.739 220.129 160.799 219.215 161.4 218.688C161.675 218.446 162.016 218.327 162.355 218.327C162.758 218.327 163.159 218.495 163.445 218.821C164.941 220.523 166.673 222.021 168.603 223.332C169.265 223.78 169.438 224.68 168.988 225.343C168.708 225.753 168.252 225.977 167.788 225.977ZM230.49 225.927C229.973 225.927 229.473 225.649 229.212 225.16C228.834 224.455 229.101 223.579 229.806 223.201C232.048 222.002 233.978 220.699 235.507 219.338C235.783 219.094 236.127 218.973 236.47 218.973C236.869 218.973 237.266 219.136 237.553 219.457C238.085 220.055 238.031 220.969 237.434 221.501C235.689 223.052 233.575 224.469 231.173 225.753C230.955 225.87 230.722 225.927 230.49 225.927ZM240.625 216.048C240.475 216.048 240.322 216.024 240.171 215.974C239.412 215.725 238.999 214.906 239.25 214.146C239.526 213.303 239.66 212.432 239.66 211.517C239.66 210.383 239.452 209.184 239.051 207.935C238.808 207.173 239.226 206.358 239.989 206.114C240.136 206.066 240.284 206.045 240.432 206.045C241.045 206.045 241.614 206.437 241.812 207.052C242.287 208.535 242.558 210.031 242.558 211.517C242.558 212.714 242.381 213.901 242.001 215.053C241.801 215.663 241.235 216.048 240.625 216.048ZM158.373 215.202C157.838 215.202 157.323 214.906 157.071 214.393C155.974 212.158 155.124 209.768 154.527 207.294C154.339 206.515 154.818 205.734 155.596 205.549C155.71 205.52 155.824 205.508 155.937 205.508C156.591 205.508 157.184 205.952 157.344 206.617C157.894 208.894 158.675 211.088 159.673 213.118C160.025 213.835 159.729 214.704 159.01 215.055C158.805 215.155 158.587 215.202 158.373 215.202ZM237.117 202.533C236.657 202.533 236.205 202.317 235.924 201.911C234.665 200.097 233.141 198.276 231.452 196.507C230.9 195.928 230.922 195.012 231.502 194.461C231.783 194.195 232.142 194.062 232.501 194.062C232.884 194.062 233.267 194.214 233.551 194.511C235.321 196.367 236.94 198.295 238.305 200.261C238.761 200.919 238.599 201.821 237.941 202.277C237.689 202.45 237.401 202.533 237.117 202.533ZM154.958 201.242C154.181 201.242 153.539 200.627 153.511 199.846C153.495 199.404 153.487 198.962 153.487 198.518C153.487 196.443 153.66 194.371 154.013 192.338C154.136 191.635 154.748 191.139 155.439 191.139C155.522 191.139 155.605 191.146 155.689 191.161C156.477 191.296 157.006 192.046 156.869 192.834C156.545 194.696 156.385 196.605 156.385 198.518C156.385 198.927 156.393 199.335 156.407 199.744C156.435 200.544 155.81 201.213 155.01 201.242C154.993 201.242 154.975 201.242 154.958 201.242ZM227.229 191.984C226.895 191.984 226.559 191.871 226.287 191.638C224.448 190.064 222.55 188.582 220.682 187.236C220.033 186.766 219.888 185.861 220.357 185.213C220.64 184.821 221.083 184.615 221.532 184.615C221.827 184.615 222.124 184.703 222.38 184.888C224.309 186.282 226.268 187.811 228.172 189.439C228.779 189.959 228.85 190.873 228.33 191.481C228.043 191.814 227.637 191.984 227.229 191.984ZM157.485 187.11C157.293 187.11 157.098 187.072 156.91 186.991C156.176 186.671 155.839 185.819 156.157 185.087C157.173 182.744 158.489 180.543 160.123 178.577C160.41 178.23 160.823 178.052 161.239 178.052C161.565 178.052 161.893 178.162 162.163 178.387C162.779 178.898 162.864 179.809 162.353 180.424C160.909 182.162 159.732 184.126 158.816 186.236C158.579 186.783 158.046 187.11 157.485 187.11ZM215.48 183.518C215.226 183.518 214.971 183.451 214.739 183.314C214.494 183.169 214.254 183.026 214.016 182.889C213.669 182.689 212.927 182.26 211.849 181.68C210.771 181.101 209.36 180.37 207.692 179.579C206.969 179.235 206.662 178.371 207.006 177.649C207.254 177.129 207.773 176.823 208.315 176.823C208.524 176.823 208.736 176.868 208.937 176.965C210.656 177.779 212.109 178.532 213.223 179.133C214.336 179.731 215.115 180.18 215.467 180.384C215.716 180.529 215.968 180.676 216.222 180.828C216.91 181.236 217.135 182.124 216.726 182.813C216.454 183.266 215.972 183.518 215.48 183.518ZM201.653 176.858C201.48 176.858 201.304 176.827 201.134 176.761C199.024 175.954 196.75 175.177 194.385 174.515C193.614 174.299 193.165 173.501 193.381 172.732C193.56 172.093 194.142 171.673 194.775 171.673C194.905 171.673 195.037 171.692 195.167 171.73C197.634 172.418 199.991 173.223 202.172 174.059C202.919 174.346 203.292 175.182 203.006 175.93C202.784 176.504 202.235 176.858 201.653 176.858ZM166.665 176.2C166.181 176.2 165.708 175.961 165.434 175.519C165.011 174.84 165.218 173.947 165.898 173.525C168.119 172.143 170.497 171.177 172.95 170.547C173.071 170.517 173.192 170.502 173.311 170.502C173.957 170.502 174.546 170.937 174.713 171.592C174.912 172.366 174.445 173.154 173.67 173.354C171.472 173.916 169.379 174.769 167.43 175.982C167.192 176.132 166.927 176.2 166.665 176.2ZM187.702 173.019C187.629 173.019 187.554 173.012 187.48 173.002C185.332 172.672 183.168 172.482 181.036 172.482C180.858 172.482 180.68 172.485 180.502 172.487C180.495 172.487 180.487 172.487 180.48 172.487C179.69 172.487 179.043 171.853 179.032 171.063C179.019 170.262 179.659 169.605 180.459 169.593C180.651 169.591 180.844 169.588 181.036 169.588C183.339 169.588 185.648 169.79 187.92 170.139C188.711 170.26 189.254 171.001 189.132 171.791C189.022 172.506 188.405 173.019 187.702 173.019Z" fill="#EBE8FA"/>
<path d="M213.914 471.498C213.115 471.497 212.467 470.851 212.465 470.052C212.463 469.253 213.111 468.603 213.911 468.602C216.257 468.597 218.659 468.563 221.117 468.495C221.132 468.493 221.145 468.493 221.159 468.493C221.94 468.493 222.585 469.115 222.607 469.9C222.628 470.699 221.998 471.365 221.198 471.388C218.715 471.456 216.289 471.492 213.917 471.498C213.915 471.498 213.915 471.498 213.914 471.498ZM206.671 471.408C206.658 471.408 206.645 471.408 206.632 471.408C204.141 471.342 201.715 471.238 199.353 471.1C198.554 471.052 197.944 470.368 197.991 469.57C198.036 468.802 198.675 468.207 199.436 468.207C199.465 468.207 199.494 468.208 199.522 468.21C201.853 468.346 204.248 468.448 206.71 468.515C207.509 468.535 208.141 469.201 208.119 470C208.098 470.786 207.454 471.408 206.671 471.408ZM192.223 470.555C192.178 470.555 192.132 470.552 192.086 470.547C189.594 470.314 187.179 470.038 184.839 469.724C184.046 469.618 183.489 468.89 183.596 468.097C183.693 467.37 184.315 466.842 185.03 466.842C185.094 466.842 185.159 466.846 185.225 466.855C187.526 467.163 189.902 467.435 192.357 467.666C193.154 467.741 193.739 468.447 193.664 469.243C193.594 469.993 192.962 470.555 192.223 470.555ZM177.886 468.619C177.8 468.619 177.714 468.612 177.627 468.596C175.15 468.152 172.765 467.661 170.47 467.128C169.69 466.947 169.205 466.169 169.386 465.39C169.542 464.721 170.138 464.27 170.796 464.27C170.905 464.27 171.016 464.283 171.126 464.309C173.373 464.83 175.709 465.311 178.14 465.748C178.928 465.889 179.452 466.642 179.31 467.428C179.184 468.129 178.573 468.619 177.886 468.619ZM163.802 465.333C163.666 465.333 163.529 465.315 163.393 465.274C160.961 464.561 158.642 463.796 156.433 462.987C155.682 462.712 155.295 461.881 155.571 461.13C155.786 460.544 156.341 460.18 156.931 460.18C157.097 460.18 157.265 460.21 157.43 460.271C159.578 461.056 161.836 461.8 164.21 462.497C164.978 462.723 165.417 463.526 165.192 464.293C165.006 464.924 164.428 465.333 163.802 465.333ZM150.237 460.346C150.036 460.346 149.833 460.304 149.638 460.216C147.311 459.16 145.126 458.053 143.075 456.902C142.377 456.512 142.129 455.63 142.521 454.932C142.787 454.459 143.279 454.193 143.786 454.193C144.026 454.193 144.269 454.253 144.494 454.378C146.472 455.488 148.582 456.558 150.836 457.58C151.565 457.91 151.887 458.768 151.557 459.496C151.314 460.03 150.788 460.346 150.237 460.346ZM137.655 453.258C137.369 453.258 137.08 453.172 136.827 452.997C134.712 451.524 132.775 450.006 131.002 448.458C130.399 447.931 130.338 447.018 130.864 446.416C131.151 446.089 131.553 445.921 131.956 445.921C132.294 445.921 132.634 446.038 132.909 446.278C134.602 447.756 136.455 449.209 138.485 450.622C139.141 451.079 139.303 451.981 138.845 452.638C138.563 453.041 138.113 453.258 137.655 453.258ZM126.802 443.748C126.405 443.748 126.01 443.586 125.724 443.268C123.981 441.331 122.458 439.38 121.128 437.446C120.674 436.788 120.841 435.886 121.501 435.434C121.752 435.262 122.037 435.18 122.32 435.18C122.781 435.18 123.235 435.398 123.516 435.806C124.777 437.639 126.222 439.491 127.879 441.332C128.415 441.927 128.366 442.842 127.77 443.378C127.493 443.625 127.147 443.748 126.802 443.748ZM118.637 431.852C118.107 431.852 117.596 431.56 117.341 431.054C116.134 428.653 115.199 426.343 114.474 424.189C114.219 423.431 114.627 422.61 115.386 422.355C115.539 422.305 115.695 422.28 115.848 422.28C116.453 422.28 117.017 422.662 117.221 423.267C117.905 425.301 118.789 427.484 119.931 429.755C120.29 430.468 120.002 431.34 119.287 431.699C119.078 431.803 118.856 431.852 118.637 431.852ZM114.049 418.16C113.359 418.16 112.748 417.664 112.624 416.962C112.072 413.829 112 411.552 112 410.574C112 410.249 112.008 410.067 112.009 410.045L112.01 410.021L112.012 409.996C112.03 409.78 112.049 409.564 112.069 409.349C112.14 408.599 112.771 408.038 113.51 408.038C113.556 408.038 113.602 408.041 113.648 408.045C114.445 408.12 115.03 408.826 114.954 409.621C114.936 409.815 114.919 410.007 114.903 410.2C114.903 410.214 114.902 410.236 114.901 410.265C114.9 410.332 114.898 410.434 114.898 410.574C114.898 411.41 114.96 413.521 115.478 416.46C115.617 417.247 115.09 417.999 114.302 418.136C114.217 418.152 114.132 418.16 114.049 418.16ZM643.979 409.804C644.48 408.99 644.974 408.194 645.463 407.411C645.789 408.09 645.542 408.915 644.877 409.294C644.576 409.465 644.276 409.634 643.979 409.804ZM650.432 405.88C649.93 405.88 649.446 405.62 649.178 405.157C648.777 404.465 649.011 403.58 649.705 403.179C651.753 401.996 653.838 400.788 655.97 399.557C656.2 399.425 656.446 399.362 656.693 399.362C657.194 399.362 657.679 399.623 657.951 400.085C658.352 400.779 658.114 401.663 657.42 402.063C655.289 403.293 653.207 404.5 651.159 405.684C650.929 405.817 650.679 405.88 650.432 405.88ZM114.716 403.808C114.604 403.808 114.489 403.794 114.375 403.766C113.597 403.58 113.118 402.797 113.306 402.021C113.882 399.638 114.619 397.279 115.5 394.944C115.718 394.364 116.27 394.007 116.856 394.007C117.025 394.007 117.198 394.037 117.366 394.099C118.115 394.381 118.494 395.216 118.212 395.965C117.37 398.195 116.669 400.442 116.123 402.7C115.963 403.363 115.37 403.808 114.716 403.808ZM662.975 398.659C662.469 398.659 661.98 398.395 661.712 397.926C661.315 397.231 661.558 396.348 662.256 395.953C664.308 394.783 666.414 393.598 668.575 392.397C668.797 392.272 669.039 392.213 669.277 392.213C669.787 392.213 670.28 392.482 670.544 392.959C670.932 393.656 670.682 394.538 669.984 394.927C667.831 396.122 665.737 397.304 663.689 398.467C663.464 398.596 663.217 398.659 662.975 398.659ZM675.626 391.634C675.112 391.634 674.615 391.359 674.351 390.873C673.971 390.169 674.234 389.292 674.936 388.913C677.018 387.791 679.153 386.658 681.352 385.516C681.565 385.404 681.795 385.352 682.021 385.352C682.543 385.352 683.049 385.636 683.308 386.131C683.676 386.84 683.4 387.715 682.689 388.084C680.508 389.218 678.384 390.344 676.316 391.46C676.094 391.578 675.86 391.634 675.626 391.634ZM119.764 390.279C119.546 390.279 119.325 390.23 119.117 390.126C118.401 389.768 118.111 388.899 118.469 388.183C119.554 386.017 120.754 383.872 122.052 381.754C122.325 381.308 122.801 381.062 123.289 381.062C123.547 381.062 123.808 381.132 124.044 381.275C124.727 381.693 124.941 382.583 124.523 383.265C123.265 385.319 122.106 387.39 121.062 389.479C120.807 389.985 120.295 390.279 119.764 390.279ZM688.453 384.917C687.939 384.917 687.437 384.64 687.178 384.154C686.798 383.45 687.061 382.572 687.767 382.194C689.891 381.054 691.964 379.867 693.986 378.638C694.221 378.495 694.484 378.426 694.739 378.426C695.228 378.426 695.704 378.674 695.976 379.123C696.394 379.805 696.176 380.696 695.495 381.111C693.426 382.368 691.307 383.579 689.138 384.744C688.921 384.862 688.687 384.917 688.453 384.917ZM127.293 377.928C127.002 377.928 126.707 377.84 126.452 377.658C125.801 377.193 125.65 376.29 126.115 375.639C127.523 373.672 129.007 371.729 130.557 369.813C130.844 369.46 131.263 369.276 131.685 369.276C132.005 369.276 132.327 369.38 132.595 369.597C133.218 370.099 133.315 371.01 132.812 371.632C131.295 373.508 129.845 375.406 128.473 377.322C128.191 377.717 127.745 377.928 127.293 377.928ZM700.828 377.396C700.364 377.396 699.909 377.176 699.629 376.766C699.177 376.106 699.345 375.206 700.005 374.754C701.999 373.392 703.929 371.991 705.806 370.551C706.069 370.35 706.379 370.251 706.688 370.251C707.123 370.251 707.553 370.447 707.837 370.817C708.326 371.451 708.205 372.36 707.574 372.847C705.656 374.319 703.679 375.752 701.643 377.143C701.392 377.313 701.108 377.396 700.828 377.396ZM712.309 368.583C711.904 368.583 711.498 368.412 711.214 368.079C710.692 367.473 710.759 366.559 711.365 366.036C713.195 364.465 714.963 362.858 716.664 361.221C716.944 360.95 717.308 360.816 717.667 360.816C718.048 360.816 718.428 360.965 718.712 361.259C719.268 361.835 719.251 362.751 718.675 363.307C716.932 364.981 715.126 366.624 713.254 368.232C712.982 368.467 712.644 368.583 712.309 368.583ZM136.381 366.658C136.037 366.658 135.692 366.536 135.416 366.29C134.819 365.757 134.767 364.842 135.3 364.246C136.916 362.44 138.581 360.66 140.285 358.908C140.569 358.616 140.947 358.47 141.325 358.47C141.689 358.47 142.053 358.606 142.334 358.878C142.908 359.435 142.921 360.351 142.364 360.924C140.685 362.651 139.048 364.401 137.461 366.174C137.176 366.494 136.779 366.658 136.381 366.658ZM722.737 358.542C722.386 358.542 722.035 358.414 721.755 358.157C721.166 357.615 721.132 356.699 721.676 356.112C723.314 354.339 724.881 352.54 726.373 350.719C726.658 350.368 727.076 350.188 727.493 350.188C727.815 350.188 728.141 350.294 728.413 350.514C729.031 351.021 729.123 351.933 728.614 352.551C727.088 354.418 725.483 356.261 723.803 358.077C723.519 358.386 723.126 358.542 722.737 358.542ZM146.471 356.264C146.09 356.262 145.709 356.113 145.425 355.818C144.871 355.24 144.89 354.324 145.468 353.771C147.224 352.089 149.009 350.435 150.811 348.812C151.088 348.562 151.435 348.44 151.781 348.44C152.177 348.44 152.572 348.601 152.857 348.918C153.393 349.512 153.346 350.426 152.752 350.962C150.97 352.567 149.207 354.201 147.473 355.86C147.193 356.129 146.831 356.264 146.471 356.264ZM731.903 347.342C731.61 347.342 731.313 347.253 731.059 347.07C730.411 346.603 730.26 345.699 730.728 345.049C732.137 343.085 733.462 341.105 734.703 339.115C734.975 338.673 735.447 338.432 735.932 338.432C736.195 338.432 736.458 338.501 736.697 338.649C737.378 339.071 737.583 339.963 737.165 340.643C735.89 342.688 734.532 344.722 733.081 346.738C732.797 347.132 732.354 347.342 731.903 347.342ZM739.53 335.047C739.305 335.047 739.075 334.994 738.857 334.881C738.151 334.509 737.875 333.635 738.251 332.927C739.376 330.783 740.4 328.637 741.319 326.499C741.553 325.949 742.088 325.62 742.652 325.62C742.841 325.62 743.033 325.658 743.221 325.738C743.956 326.053 744.295 326.904 743.982 327.638C743.033 329.85 741.975 332.064 740.813 334.273C740.559 334.765 740.053 335.047 739.53 335.047ZM745.21 321.749C745.064 321.749 744.909 321.726 744.759 321.676C744.002 321.428 743.584 320.611 743.835 319.851C744.592 317.55 745.219 315.267 745.712 313.015C745.862 312.339 746.46 311.877 747.125 311.877C747.229 311.877 747.334 311.889 747.438 311.912C748.22 312.083 748.713 312.856 748.546 313.636C748.023 315.988 747.371 318.363 746.59 320.753C746.389 321.362 745.821 321.749 745.21 321.749ZM748.278 307.633C748.232 307.633 748.182 307.631 748.136 307.625C747.338 307.545 746.757 306.836 746.836 306.041C747.012 304.277 747.104 302.541 747.104 300.839C747.104 300.226 747.091 299.618 747.066 299.013C747.037 298.214 747.659 297.542 748.458 297.512C748.479 297.51 748.495 297.51 748.516 297.51C749.29 297.51 749.933 298.122 749.962 298.903C749.987 299.544 750 300.189 750 300.839C750 302.643 749.904 304.474 749.72 306.329C749.645 307.076 749.018 307.633 748.278 307.633ZM747.664 293.226C746.991 293.226 746.385 292.754 746.247 292.069C745.77 289.752 745.093 287.532 744.22 285.421C743.911 284.683 744.262 283.837 745.001 283.53C745.185 283.455 745.369 283.418 745.557 283.418C746.126 283.418 746.665 283.754 746.895 284.311C747.848 286.601 748.575 289.001 749.085 291.487C749.243 292.271 748.738 293.036 747.956 293.197C747.856 293.217 747.76 293.226 747.664 293.226ZM742.109 279.986C741.649 279.986 741.198 279.771 740.918 279.367C739.576 277.442 738.059 275.738 736.375 274.2C735.786 273.66 735.744 272.745 736.283 272.155C736.571 271.843 736.96 271.684 737.353 271.684C737.704 271.684 738.055 271.81 738.331 272.065C740.161 273.736 741.825 275.605 743.296 277.712C743.752 278.368 743.593 279.27 742.932 279.727C742.682 279.903 742.393 279.986 742.109 279.986ZM731.581 270.244C731.322 270.244 731.054 270.173 730.816 270.024C728.881 268.817 726.804 267.723 724.597 266.702C723.87 266.366 723.556 265.505 723.891 264.78C724.137 264.252 724.66 263.941 725.207 263.941C725.408 263.941 725.617 263.984 725.813 264.075C728.108 265.136 730.294 266.285 732.354 267.569V267.568C733.031 267.992 733.236 268.885 732.814 269.562C732.538 270.002 732.066 270.244 731.581 270.244ZM718.52 264.062C718.349 264.062 718.173 264.032 718.006 263.968C715.828 263.147 713.567 262.354 711.227 261.561C710.466 261.303 710.065 260.481 710.32 259.724C710.525 259.122 711.089 258.743 711.691 258.743C711.845 258.743 712.004 258.768 712.159 258.819C714.516 259.618 716.806 260.422 719.03 261.26C719.778 261.542 720.158 262.377 719.874 263.126C719.653 263.705 719.105 264.062 718.52 264.062ZM621.974 168.732C621.43 168.732 620.908 168.427 620.661 167.904C619.654 165.777 618.559 163.664 617.381 161.566C616.992 160.869 617.238 159.987 617.936 159.597C618.162 159.47 618.405 159.411 618.647 159.411C619.153 159.411 619.646 159.677 619.909 160.152C621.117 162.304 622.241 164.476 623.282 166.665C623.625 167.388 623.315 168.251 622.592 168.593C622.392 168.688 622.179 168.732 621.974 168.732ZM614.91 156.108C614.434 156.108 613.97 155.873 613.694 155.444C612.411 153.46 611.061 151.492 609.64 149.543C609.172 148.897 609.314 147.991 609.962 147.52C610.221 147.334 610.518 147.244 610.81 147.244C611.258 147.244 611.701 147.451 611.985 147.841C613.435 149.832 614.818 151.844 616.127 153.876C616.561 154.548 616.369 155.444 615.696 155.876C615.454 156.033 615.182 156.108 614.91 156.108ZM606.401 144.398C605.979 144.398 605.561 144.215 605.273 143.862C603.785 142.02 602.234 140.198 600.629 138.399C600.094 137.798 600.148 136.883 600.746 136.353C601.022 136.107 601.369 135.986 601.707 135.986C602.109 135.986 602.506 136.153 602.79 136.474C604.424 138.307 606.008 140.164 607.525 142.041C608.031 142.663 607.935 143.574 607.312 144.077C607.045 144.293 606.723 144.398 606.401 144.398ZM596.771 133.585C596.395 133.585 596.019 133.439 595.735 133.147C594.076 131.439 592.37 129.761 590.619 128.1C590.038 127.548 590.013 126.634 590.565 126.054C590.849 125.753 591.229 125.603 591.614 125.603C591.973 125.603 592.333 125.732 592.613 126C594.393 127.682 596.128 129.394 597.812 131.126C598.368 131.702 598.355 132.617 597.783 133.172C597.503 133.447 597.135 133.585 596.771 133.585ZM586.26 123.62C585.921 123.62 585.579 123.499 585.303 123.257C583.514 121.687 581.679 120.138 579.811 118.614C579.193 118.109 579.101 117.195 579.606 116.577C579.895 116.226 580.308 116.047 580.731 116.047C581.052 116.047 581.374 116.151 581.646 116.372C583.539 117.917 585.399 119.487 587.217 121.082C587.819 121.612 587.878 122.526 587.351 123.127C587.063 123.453 586.665 123.62 586.26 123.62ZM575.034 114.46C574.729 114.46 574.419 114.364 574.16 114.164C572.255 112.719 570.319 111.3 568.355 109.906C567.703 109.442 567.548 108.54 568.012 107.889C568.297 107.493 568.744 107.28 569.195 107.28C569.484 107.28 569.78 107.367 570.035 107.547C572.025 108.958 573.985 110.394 575.912 111.859C576.551 112.344 576.672 113.254 576.187 113.888C575.903 114.264 575.473 114.46 575.034 114.46ZM563.227 106.086C562.951 106.086 562.675 106.006 562.429 105.844C560.435 104.524 558.412 103.23 556.368 101.969C555.691 101.548 555.478 100.654 555.9 99.974C556.176 99.5314 556.648 99.2893 557.133 99.2893C557.396 99.2893 557.656 99.3603 557.894 99.5064C559.963 100.784 562.011 102.095 564.029 103.43C564.698 103.873 564.878 104.771 564.435 105.439C564.159 105.86 563.695 106.086 563.227 106.086ZM550.914 98.471C550.667 98.471 550.417 98.4085 550.191 98.2749C548.11 97.0767 546.011 95.9077 543.897 94.768C543.19 94.3881 542.927 93.5114 543.307 92.81C543.566 92.3215 544.068 92.046 544.582 92.046C544.816 92.046 545.05 92.1003 545.268 92.2213C547.412 93.3694 549.535 94.5551 551.641 95.77C552.335 96.1707 552.569 97.0558 552.168 97.7447C551.9 98.2122 551.416 98.471 550.914 98.471ZM538.142 91.6034C537.924 91.6034 537.703 91.5534 537.494 91.449C535.972 90.6892 534.447 89.9461 532.909 89.2196C532.119 88.1592 531.312 87.1072 530.497 86.0676C530.773 85.7462 531.178 85.5625 531.601 85.5625C531.805 85.5625 532.01 85.6042 532.207 85.6961C534.413 86.7147 536.608 87.771 538.789 88.8606C539.508 89.2197 539.797 90.088 539.437 90.8019C539.186 91.3112 538.672 91.6034 538.142 91.6034Z" fill="#EBE8FA"/>
<path d="M252.853 505.787C204.322 445.1 99.5743 335.077 192.71 290.48C192.71 290.48 198.843 288.614 208.172 284.62V348.107H336.088V273.938H229.827C262.975 255.288 305.465 219.826 299.524 162.331C299.524 162.331 297.043 149.182 297.043 130.889C297.043 89.0586 310.019 20.3262 395.213 20.3262C397.149 20.3262 399.108 20.3594 401.119 20.4341C452.241 22.2634 499.592 46.6178 530.498 86.0677C531.312 87.1089 532.118 88.1626 532.911 89.2204C534.29 91.0664 535.631 92.9497 536.939 94.8579C560.727 129.616 595.844 170.743 628.822 170.743C637.344 170.743 645.72 168 653.723 161.691C660.201 156.583 668.183 153.79 676.289 153.79C679.446 153.79 682.614 154.212 685.729 155.087C713.786 162.959 745.663 203.714 661.127 384.248C661.127 384.248 654.267 393.332 645.462 407.411C644.972 408.194 644.478 408.99 643.976 409.804C640.919 414.774 637.663 420.297 634.407 426.21C621.87 448.992 609.274 479.146 607.779 504.34C605.898 504.289 603.979 504.237 602.023 504.182C594.345 503.155 580.852 502.226 563.044 501.455C549.273 500.857 532.928 500.355 514.692 499.973C515.685 498.554 516.482 496.812 516.972 494.677C516.972 494.677 518.596 482.228 502.902 477.982C524.294 469.514 522.026 458.791 522.026 458.791C522.113 457.91 522.159 457.073 522.176 456.28C522.196 456.158 523.293 450.111 518.239 445.191C518.197 445.132 517.915 444.732 517.192 444.264C513.513 441.288 507.242 438.931 496.59 438.931C495.219 438.931 493.774 438.97 492.254 439.052L499.464 436.633C504.376 434.986 507.74 431.876 508.342 428.325C508.886 425.165 508.542 420.665 505.984 414.394L501.15 390.708C501.15 390.708 503.118 376.733 494.588 367.333C490.273 360.531 457.308 351.487 457.308 351.487C457.291 351.499 457.275 351.51 457.257 351.522L451.483 339.503L450.67 339.501L448.956 336.737L427.309 339.455L424.231 339.449C425.222 341.4 425.698 342.076 425.535 343.228L424.121 346.24C424.121 346.24 424.205 346.373 424.366 346.605C424.357 346.625 424.35 346.646 424.342 346.666C424.046 347.776 423.564 349.025 423 350.34C422.934 350.296 422.869 350.252 422.804 350.209C422.804 350.209 420.413 350.862 416.831 351.953C407.048 354.938 388.395 361.169 385.454 366.155C374.434 375.4 376.717 391.621 376.717 391.621L371.882 415.308C369.326 421.578 368.984 426.08 369.523 429.239C370.129 432.79 373.494 435.899 378.404 437.546L386.542 440.277L380.278 439.5C380.278 439.5 367.907 435.741 356.827 435.741C353.016 435.741 349.357 436.187 346.408 437.382C342.596 438.438 340.747 440.988 340.07 444.132C339.704 445.562 339.606 447.215 339.831 449.119C340.151 453.028 341.441 457.119 342.609 460.156C343.79 463.226 346.302 466.018 349.844 468.205C376.479 484.656 406.911 494.086 428.16 499.155C369.874 499.193 318.386 500.33 286.556 502.064C280.407 502.397 274.992 502.755 270.401 503.131C260.549 503.936 254.505 504.829 253.188 505.77C253.076 505.775 252.963 505.781 252.853 505.787ZM509.426 211.802V298.518H658.976V211.802H509.426ZM462.818 486.387C462.804 486.387 462.789 486.387 462.774 486.386C462.787 486.384 462.801 486.383 462.815 486.382C462.816 486.383 462.818 486.384 462.818 486.387ZM462.251 450.706L424.891 445.032L408.398 442.987H408.393L400.373 441.992L401.991 426.939L399.538 422.387L436.37 422.778L477.395 423.209L475.878 426.026L477.799 443.903L474.118 445.513L462.251 450.706Z" fill="#EBE8FA"/>
<path d="M431.072 513.17C375.554 513.17 325.968 512.171 293.295 510.605C285.77 510.245 279.142 509.854 273.546 509.438C269.859 509.165 266.621 508.88 263.868 508.586C256.783 507.832 252.915 507.016 252.915 506.163C252.915 506.031 253.006 505.901 253.188 505.771C291.635 503.827 336.323 500.867 430.939 500.867C432.541 500.867 434.135 500.868 435.73 500.87C447.502 503.391 454.999 504.322 454.999 504.322C454.73 504.205 454.475 504.08 454.24 503.952L455.108 504.251L455.404 502.67L465.543 503.659C465.49 503.733 465.434 503.804 465.374 503.875C464.698 504.682 465.64 505.659 467.059 505.661C467.059 505.661 467.062 505.661 467.065 505.661L496.756 505.598C496.756 505.598 498.51 505.952 501.003 505.952C504.538 505.952 509.552 505.241 513.126 501.799C547.028 502.517 577.315 503.497 602.021 504.183C606.713 504.811 609.23 505.475 609.23 506.163C609.23 510.032 529.467 513.17 431.072 513.17Z" fill="#D9D9D9"/>
<path d="M253.188 505.769C254.506 504.828 260.549 503.935 270.402 503.13C274.992 502.754 280.407 502.396 286.557 502.063C318.386 500.329 369.874 499.192 428.16 499.154C430.839 499.794 433.372 500.363 435.73 500.868C434.137 500.866 432.541 500.865 430.941 500.865C336.324 500.865 291.636 503.825 253.188 505.769ZM602.022 504.181C577.314 503.495 547.025 502.515 513.128 501.797C513.691 501.258 514.214 500.652 514.692 499.972C532.928 500.354 549.273 500.856 563.043 501.454C580.854 502.225 594.347 503.154 602.022 504.181Z" fill="#CBCED8"/>
<path d="M455.108 504.249L454.24 503.95C453.412 503.491 452.798 502.959 452.364 502.373L455.405 502.669L455.108 504.249Z" fill="#4B4B4B"/>
<path d="M377.864 475.528C377.864 475.528 363.798 473.684 360.72 482.053C360.72 482.053 360.502 502.903 369.292 504.321C369.292 504.321 376.764 505.172 381.597 501.484L409.728 497.94L428.848 496.521L377.864 475.528Z" fill="#040C2B"/>
<path d="M462.362 485.528C462.362 485.528 469.745 498.656 465.375 503.874C464.699 504.682 465.64 505.663 467.066 505.66L496.757 505.598C496.757 505.598 513.678 509.002 516.975 494.677C516.975 494.677 518.953 479.499 497.415 476.946C475.879 474.393 497.197 476.095 497.197 476.095C497.197 476.095 472.142 478.081 462.362 485.528Z" fill="#040C2B"/>
<path d="M474.119 486.162L474.037 487.002L472.361 504.317L441.045 501.268L451.351 486.354L451.483 486.162C474.119 486.73 474.119 486.162 474.119 486.162Z" fill="#EDAE8B"/>
<path d="M459.083 487.464C459.414 487.144 459.667 486.909 459.812 486.779C460.799 486.647 461.789 486.516 462.774 486.384C464.597 486.407 466.129 486.416 467.412 486.416C474.06 486.416 474.119 486.168 474.119 486.164L474.037 487.003L459.083 487.464Z" fill="#8B613D"/>
<path d="M522.175 456.283L485.705 464.116L437.857 474.395L399.851 464.613L339.836 449.168C337.095 426.383 380.278 439.502 380.278 439.502L408.395 442.989H408.398L424.891 445.034L462.251 450.708L474.119 445.514L488.185 439.36C526.095 435.743 522.175 456.283 522.175 456.283Z" fill="#E54E8D"/>
<path d="M426.003 470.212C419.703 464.118 406.826 457.522 396.071 452.651L408.393 442.986H408.399L424.892 445.031L462.252 450.705L474.12 445.512L477.749 451.34C477.747 451.342 477.747 451.342 477.747 451.343L477.752 451.345L478.745 452.94C470.857 453.012 436.1 467.3 436.1 467.3L426.003 470.212Z" fill="#BD4074"/>
<path d="M384.454 482.196L436.1 467.302C436.1 467.302 473.021 452.126 479.393 452.977C479.393 452.977 525.105 427.019 522.027 458.793C522.027 458.793 527.302 483.756 445.769 487.586L384.454 482.196Z" fill="#E54E8D"/>
<path d="M462.774 486.384C462.745 486.384 462.716 486.384 462.687 486.384C462.73 486.379 462.769 486.375 462.81 486.371C462.813 486.374 462.813 486.376 462.815 486.379C462.803 486.381 462.788 486.382 462.774 486.384Z" fill="#CFD3DD"/>
<path d="M462.816 486.382C462.813 486.379 462.813 486.376 462.811 486.373C462.893 486.366 462.973 486.357 463.053 486.35C462.976 486.36 462.896 486.37 462.816 486.382Z" fill="#030A25"/>
<path d="M459.811 486.782C459.898 486.704 459.944 486.664 459.944 486.664C459.857 486.666 459.77 486.668 459.68 486.668C459.668 486.668 459.659 486.668 459.646 486.668C460.679 486.577 461.687 486.484 462.685 486.387C462.717 486.387 462.746 486.387 462.775 486.387C461.788 486.519 460.8 486.651 459.811 486.782Z" fill="#795435"/>
<path d="M459.646 486.669C453.687 486.643 441.457 480.364 434.194 476.319C431.175 474.638 428.564 472.687 426.349 470.551C430.802 473.525 438.383 476.043 443.462 478.579C449.515 481.603 456.868 484.395 463.901 486.239C463.617 486.277 463.336 486.314 463.052 486.352C462.972 486.359 462.892 486.368 462.812 486.375C462.769 486.379 462.73 486.384 462.686 486.388C461.687 486.485 460.679 486.578 459.646 486.669Z" fill="#C9457C"/>
<path d="M459.945 486.659C459.945 486.659 444.892 499.92 454.999 504.317C454.999 504.317 396.578 497.067 349.844 468.202C346.304 466.014 343.792 463.222 342.611 460.152C338.329 449.022 332.416 423.702 378.522 445.312C378.522 445.312 414.335 458.766 426.138 470.341C428.399 472.557 431.08 474.579 434.193 476.313C441.58 480.426 454.103 486.852 459.945 486.659Z" fill="#E54E8D"/>
<path d="M424.231 339.447L451.485 339.501L460.274 357.798C460.274 357.798 443.133 386.451 418.519 360.918C419.612 356.806 423.249 350.776 424.342 346.664C426.1 342.409 425.881 342.693 424.231 339.447Z" fill="#EDAE8B"/>
<path d="M457.309 351.486C451.482 355.41 446.689 357.88 442.741 359.278C440.31 360.137 438.201 360.589 436.37 360.722C432.427 361.014 429.765 359.826 427.976 358.031C424.867 356.639 421.313 354.656 417.243 351.952C406.148 355.336 383.641 362.9 385.591 368.083L387.816 387.791L387.997 389.399L391.683 421.999L395.087 421.963C395.029 422.209 395 422.338 395 422.338L436.37 422.777L488.843 423.328L494.935 369.376C497.513 362.516 457.309 351.486 457.309 351.486Z" fill="#825BD3"/>
<path d="M442.566 359.313V421.459L394.673 421.966C395.49 418.453 401.684 391.315 399.425 389.858L387.587 389.402L387.405 387.794L385.176 368.086C383.229 362.903 405.737 355.339 416.832 351.955C420.414 350.863 422.804 350.211 422.804 350.211C427.138 353.133 430.902 355.243 434.172 356.709C437.326 358.121 440.023 358.934 442.328 359.281C442.406 359.29 442.488 359.303 442.566 359.313Z" fill="#825BD3"/>
<path d="M401.993 426.939L400.069 444.816L378.405 437.546C373.495 435.899 370.129 432.79 369.524 429.239C368.985 426.08 369.328 421.578 371.884 415.308L376.719 391.621C376.719 391.621 374.413 375.238 385.62 366.018C385.62 366.018 389.687 393.181 396.937 397.72L398.476 420.414L401.993 426.939Z" fill="#825BD3"/>
<path d="M400.124 426.302C400.124 426.302 392.084 420.628 382.437 420.061C382.437 420.061 383.389 419.493 385.771 419.493C386.963 419.493 388.51 419.635 390.478 420.061C390.478 420.061 386.694 417.959 381.831 417.959C380.904 417.959 379.939 418.036 378.953 418.217C378.953 418.217 381.15 417.465 384.318 417.465C388.809 417.465 395.249 418.978 400.124 426.302Z" fill="#6E4DB2"/>
<path d="M397.047 397.648C397.047 397.648 396.187 396.935 394.885 395.764C393.665 394.194 392.555 392.02 391.564 389.555L392.545 389.592L397.047 397.648Z" fill="#6E4DB2"/>
<path d="M392.545 389.594L391.562 389.556C390.964 388.071 390.409 386.482 389.897 384.855H389.899L392.545 389.594Z" fill="#6E4DB2"/>
<path d="M394.883 395.764C390.81 392.096 382.428 383.941 382.76 379.21C382.76 379.21 386.716 384.742 387.814 385.735C387.814 385.735 382.322 378.217 384.519 375.238C384.519 375.238 387.586 384.679 389.897 384.853C390.409 386.48 390.964 388.069 391.562 389.554C392.554 392.019 393.663 394.193 394.883 395.764Z" fill="#6E4DB2"/>
<path d="M397.156 397.576C397.156 397.576 395.528 394.047 393.652 389.633L393.997 389.647C394.9 391.981 395.945 394.613 397.156 397.576Z" fill="#7451BD"/>
<path d="M393.998 389.647L393.653 389.633C390.652 382.577 387.014 373.257 388.365 372.471C388.365 372.471 388.688 375.891 393.998 389.647Z" fill="#6E4DB2"/>
<path d="M475.878 426.027L477.801 443.904L499.465 436.634C504.377 434.987 507.741 431.878 508.346 428.326C508.886 425.166 508.543 420.666 505.986 414.396L501.152 390.709C501.152 390.709 503.459 374.325 492.252 365.105C492.252 365.105 488.186 392.269 480.933 396.807L479.394 419.502L475.878 426.027Z" fill="#825BD3"/>
<path d="M424.365 346.603C424.203 346.371 424.119 346.238 424.119 346.238L425.534 343.226C425.429 343.983 425.049 344.942 424.365 346.603ZM450.669 339.499L427.308 339.452L448.954 336.734L450.669 339.499Z" fill="#CFD3DD"/>
<path d="M438.455 355.219C430.808 355.217 425.534 348.288 424.366 346.605C425.052 344.945 425.43 343.985 425.536 343.228L427.308 339.455H427.31L450.671 339.501L454.269 345.301C448.398 352.768 443.008 355.22 438.455 355.219Z" fill="#C99476"/>
<path d="M418.52 309.999C418.52 309.999 443.574 294.822 453.682 308.155C453.682 308.155 474.56 331.558 442.033 352.552C442.033 352.552 420.935 362.905 418.52 309.999Z" fill="#EDAE8B"/>
<path d="M421.236 332.118L416.955 320.063C415.458 317.292 416.761 307.925 416.955 304.992C417.56 295.806 434.717 288.548 449.505 292.268C449.505 292.268 463.632 294.944 461.592 322.339L456.538 334.536C456.538 334.536 457.197 312.552 449.505 311.417C449.505 311.417 431.924 315.672 420.497 315.388C420.497 315.388 420.165 330.494 421.236 332.118Z" fill="black"/>
<path d="M477.746 425.39C481.743 418.066 487.027 416.553 490.71 416.553C493.304 416.553 495.107 417.304 495.107 417.304C494.298 417.122 493.506 417.047 492.747 417.047C488.758 417.047 485.659 419.148 485.659 419.148C487.27 418.723 488.538 418.581 489.514 418.581C491.468 418.581 492.25 419.148 492.25 419.148C484.338 419.716 477.746 425.39 477.746 425.39Z" fill="#6E4DB2"/>
<path d="M392.256 450.915C392.256 450.915 384.081 445.276 368.818 441.145C366.261 440.162 363.915 439.366 361.765 438.738C368.8 439.941 379.304 442.507 393.575 447.936L392.256 450.915Z" fill="#BD4074"/>
<path d="M368.818 441.15C363.6 439.737 357.553 438.503 350.719 437.729C350.719 437.729 351.023 437.707 351.64 437.707C353.135 437.707 356.467 437.839 361.765 438.743C363.913 439.371 366.261 440.167 368.818 441.15Z" fill="#BD4074"/>
<path d="M518.239 445.193C517.917 444.879 517.569 444.568 517.194 444.266C517.917 444.735 518.201 445.134 518.239 445.193Z" fill="#CFD3DD"/>
<path d="M480.899 452.158L477.75 451.345V451.34C493.756 444.454 503.598 442.588 509.56 442.588C513.76 442.588 516.038 443.514 517.193 444.263C517.568 444.565 517.916 444.876 518.238 445.19C518.241 445.195 518.244 445.198 518.244 445.198C516.004 443.496 513.054 442.824 509.791 442.824C502.635 442.824 493.976 446.052 488.044 448.718C484.945 450.077 482.405 451.362 480.899 452.158Z" fill="#BD4074"/>
<path d="M477.752 451.347L477.747 451.345C477.747 451.343 477.747 451.343 477.749 451.342L477.752 451.347Z" fill="#962C12"/>
<path d="M481.042 452.193L480.901 452.157C482.408 451.361 484.947 450.076 488.044 448.717C483.869 450.594 481.042 452.193 481.042 452.193Z" fill="#D63E1A"/>
<path d="M480.821 396.734L487.969 383.939C486.608 388.265 484.939 392.333 482.982 394.85C481.683 396.021 480.821 396.734 480.821 396.734Z" fill="#6E4DB2"/>
<path d="M482.983 394.854C484.939 392.336 486.609 388.269 487.968 383.943C490.283 383.769 493.347 374.328 493.347 374.328C495.546 377.307 490.053 384.824 490.053 384.824C491.15 383.831 495.106 378.299 495.106 378.299C495.439 383.031 487.057 391.186 482.983 394.854Z" fill="#6E4DB3"/>
<path d="M480.712 396.662C489.065 376.238 489.503 371.557 489.503 371.557C491.701 372.833 480.712 396.662 480.712 396.662Z" fill="#6E4DB2"/>
<path d="M389.235 407.855L479.907 406.608C480.471 406.6 480.933 407.055 480.933 407.621V451.142C480.933 451.696 480.488 452.147 479.932 452.155L391.152 453.246C390.603 453.253 390.15 452.825 390.127 452.278L388.236 408.912C388.211 408.341 388.663 407.864 389.235 407.855Z" fill="#ACBCF8"/>
<path d="M516.052 206.494C516.052 207.355 515.316 208.054 514.408 208.054C513.503 208.054 512.767 207.355 512.767 206.494C512.767 205.633 513.503 204.934 514.408 204.934C515.316 204.934 516.052 205.633 516.052 206.494Z" fill="white"/>
<path d="M520.844 206.494C520.844 207.356 520.109 208.054 519.202 208.054C518.295 208.054 517.558 207.356 517.558 206.494C517.558 205.632 518.295 204.934 519.202 204.934C520.109 204.934 520.844 205.632 520.844 206.494Z" fill="white"/>
<path d="M525.634 206.496C525.634 207.356 524.9 208.057 523.992 208.057C523.086 208.057 522.349 207.356 522.349 206.496C522.349 205.634 523.086 204.938 523.992 204.938C524.9 204.938 525.634 205.634 525.634 206.496Z" fill="white"/>
<path d="M556.094 260.032L546.619 276.384L539.85 274.991L535.06 268.553L538.167 261.006C540.684 260.566 541.554 258.387 541.811 256.399C542.05 254.563 541.766 252.893 541.766 252.893L549.235 252.371C549.606 253.243 550.012 254.022 550.44 254.718C552.948 258.821 556.094 260.032 556.094 260.032Z" fill="#CC8B5B"/>
<path d="M545.416 258.445C543.803 258.445 542.544 257.291 541.811 256.4C541.829 256.276 541.841 256.152 541.853 256.028C541.853 256.019 541.856 256.008 541.856 255.996C541.859 255.975 541.859 255.951 541.862 255.934C541.906 255.491 541.906 255.181 541.906 255.107C541.906 255.019 541.906 254.933 541.906 254.851C541.906 253.72 541.767 252.897 541.767 252.897L549.236 252.375C549.464 252.906 549.703 253.405 549.954 253.871C550.064 254.225 550.191 254.561 550.332 254.877C548.501 257.566 546.825 258.445 545.416 258.445Z" fill="#AE764D"/>
<path d="M565.812 278.893C565.797 279.209 565.785 279.529 565.77 279.854L565.736 279.883C564.074 281.367 562.259 282.661 560.323 283.73C560.253 283.77 560.186 283.807 560.119 283.844L560.103 283.852C559.594 284.126 559.079 284.385 558.554 284.628H558.551L558.548 284.629C558.276 284.651 557.993 284.673 557.7 284.692H557.694C557.642 284.696 557.587 284.7 557.532 284.702C556.065 284.802 554.351 284.874 552.366 284.912C545.233 285.05 544.281 281.054 545.721 276.201C547.788 269.23 554.769 260.494 555.413 259.699C555.446 259.659 555.462 259.638 555.462 259.638C555.462 259.638 555.312 259.595 555.056 259.488L555.05 259.486C554.842 259.401 554.559 259.271 554.236 259.096C552.915 258.368 550.875 256.819 549.954 253.871C549.954 253.871 552.281 250.198 553.089 245.241C553.089 245.241 548.731 239.057 541.606 236.407C541.606 236.407 539.401 243.063 538.191 245.241C538.191 245.241 538.596 252.061 541.905 255.089C541.905 255.089 541.914 255.422 541.863 255.933C541.86 255.953 541.86 255.975 541.857 255.997C541.853 256.037 541.85 256.075 541.844 256.115C541.841 256.151 541.838 256.188 541.832 256.225C541.686 257.337 541.271 259.027 540.075 260.145L540.054 260.162C539.645 260.537 539.145 260.848 538.535 261.045C538.398 261.09 538.255 261.129 538.108 261.161H538.105C537.947 261.197 537.779 261.225 537.605 261.246L532.826 263.25C532.826 263.25 533.403 232.45 542.595 228.968C542.595 228.968 553.388 225.056 555.62 242.542C555.62 242.542 557.054 255.422 560.466 260.476C561.601 262.151 562.574 263.934 563.37 265.794V265.8C564.635 268.763 565.446 271.925 565.724 275.175C565.739 275.334 565.751 275.493 565.764 275.652C565.84 276.724 565.855 277.808 565.812 278.893Z" fill="black"/>
<path d="M536.573 285.331C535.382 284.868 534.231 284.326 533.117 283.707C533.08 283.687 533.045 283.668 533.008 283.646C531.53 282.82 530.124 281.86 528.806 280.788L528.99 277.068L529.153 273.732L532.282 274.474L532.661 274.562L533.151 274.68L534.104 274.905L536.573 285.331Z" fill="#DE995F"/>
<path d="M532.826 263.252C532.826 263.252 529.856 263.901 528.771 276.867L533.337 281.173L532.826 263.252Z" fill="white"/>
<path d="M561.177 263.337C561.177 263.337 561.128 267.542 560.433 272.627C560.134 274.801 559.717 277.135 559.134 279.37L559.125 279.398C559.032 279.768 558.947 280.104 558.868 280.414L558.865 280.424C558.841 280.524 558.814 280.622 558.79 280.718C558.763 280.824 558.739 280.926 558.711 281.026C558.56 281.608 558.418 282.11 558.231 282.62C558.044 283.132 557.896 283.668 557.787 284.217C557.757 284.374 557.723 284.533 557.702 284.693C557.687 284.775 557.675 284.856 557.663 284.939V284.952C557.657 284.979 557.654 285.005 557.654 285.033L557.624 285.046L557.612 285.051L557.588 285.06L557.56 285.071C555.66 285.869 553.666 286.464 551.6 286.827C550.017 287.108 548.394 287.253 546.739 287.253C545.086 287.253 543.461 287.108 541.881 286.827C540.059 286.508 538.289 286.005 536.591 285.342L536.573 285.334C535.383 284.871 534.232 284.329 533.117 283.71C533.081 283.69 533.044 283.671 533.008 283.649C532.945 283.205 532.878 282.724 532.815 282.21C532.797 282.061 532.779 281.908 532.76 281.753C532.745 281.631 532.733 281.508 532.718 281.384C532.688 281.099 532.655 280.805 532.627 280.501C532.624 280.481 532.621 280.456 532.621 280.433C532.591 280.129 532.564 279.818 532.534 279.497C532.525 279.381 532.516 279.266 532.507 279.149C532.498 279.03 532.488 278.913 532.479 278.794C532.476 278.748 532.473 278.702 532.47 278.657C532.461 278.518 532.452 278.378 532.44 278.236C532.428 278.055 532.419 277.874 532.404 277.69C532.398 277.564 532.392 277.437 532.383 277.309C532.359 276.869 532.337 276.416 532.322 275.956C532.316 275.856 532.313 275.755 532.31 275.654C532.307 275.541 532.304 275.426 532.301 275.313C532.298 275.205 532.295 275.095 532.292 274.986C532.286 274.815 532.283 274.646 532.28 274.477C532.277 274.313 532.277 274.148 532.274 273.985C532.271 273.769 532.268 273.549 532.268 273.329C532.268 273.167 532.265 273.003 532.268 272.84C532.268 272.39 532.271 271.931 532.28 271.463C532.289 270.957 532.304 270.44 532.322 269.916C532.337 269.449 532.359 268.972 532.386 268.487C532.389 268.421 532.392 268.356 532.398 268.289C532.425 267.753 532.461 267.208 532.504 266.655V266.654C532.588 265.551 532.694 264.416 532.827 263.251L537.606 261.247L538.168 261.011L538.636 260.813C538.636 260.813 538.621 260.849 538.588 260.918C538.576 260.951 538.558 260.996 538.534 261.046C537.948 262.452 535.198 269.784 540.615 272.298C540.615 272.298 546.059 273.678 554.237 259.097C554.255 259.06 554.276 259.021 554.301 258.984C554.313 258.956 554.328 258.927 554.343 258.9L556.086 260.032L556.095 260.038L560.76 263.068L560.763 263.07H560.766L560.983 263.213L561.177 263.337Z" fill="white"/>
<path d="M631.767 278.293H584.38C584.065 278.293 583.81 278.035 583.81 277.721V274.606C583.81 274.292 584.065 274.035 584.38 274.035H631.767C632.082 274.035 632.341 274.292 632.341 274.606V277.721C632.341 278.035 632.082 278.293 631.767 278.293Z" fill="#CDD7FB"/>
<path d="M628.503 243.163H609.447V232.027H628.503V243.163Z" fill="#CDD7FB"/>
<path d="M611.384 237.596L603.94 241.888V233.305L611.384 237.596Z" fill="#CDD7FB"/>
<path d="M629.899 239.024H628.474V236.17H629.899C630.689 236.17 631.328 236.81 631.328 237.597C631.328 238.386 630.689 239.024 629.899 239.024Z" fill="#CDD7FB"/>
<path d="M570.541 290.992H598.072C598.072 290.992 595.607 313.137 570.541 324.138C570.541 324.138 583.728 304.742 570.541 290.992Z" fill="white"/>
<path d="M271.857 309.201H215.253C214.938 309.201 214.682 308.942 214.682 308.628V306.13C214.682 305.814 214.938 305.559 215.253 305.559H271.857C272.172 305.559 272.431 305.814 272.431 306.13V308.628C272.431 308.942 272.172 309.201 271.857 309.201Z" fill="#CDD7FB"/>
<path d="M271.894 316.007H215.173C214.859 316.007 214.601 315.751 214.601 315.437V313.356C214.601 313.041 214.859 312.785 215.173 312.785H271.894C272.208 312.785 272.467 313.041 272.467 313.356V315.437C272.467 315.751 272.208 316.007 271.894 316.007Z" fill="#CDD7FB"/>
<path d="M271.857 323.521H215.252C214.938 323.521 214.681 323.264 214.681 322.951V320.451C214.681 320.136 214.938 319.879 215.252 319.879H271.857C272.171 319.879 272.43 320.136 272.43 320.451V322.951C272.43 323.264 272.171 323.521 271.857 323.521Z" fill="#CDD7FB"/>
<path d="M255.54 330.81H215.173C214.859 330.81 214.601 330.552 214.601 330.238V327.74C214.601 327.424 214.859 327.168 215.173 327.168H255.54C255.854 327.168 256.112 327.424 256.112 327.74V330.238C256.112 330.552 255.854 330.81 255.54 330.81Z" fill="#CDD7FB"/>
<path d="M248.882 295.998L255.246 299.669V292.328L248.882 295.998Z" fill="#CDD7FB"/>
<path d="M233.044 297.219H234.266V294.779H233.044C232.368 294.779 231.82 295.325 231.82 296C231.82 296.674 232.368 297.219 233.044 297.219Z" fill="#CDD7FB"/>
<path d="M278.687 311.021C278.687 319.448 282.212 326.985 287.762 332.022C290.036 334.085 292.65 335.729 295.501 336.839C295.786 336.951 296.074 337.055 296.364 337.157C296.594 337.236 296.825 337.311 297.058 337.383C299.315 338.092 301.703 338.469 304.173 338.469C306.113 338.469 308.003 338.236 309.821 337.792C309.965 337.757 310.106 337.723 310.248 337.685C311.883 337.254 313.456 336.653 314.95 335.903C315.705 335.521 316.441 335.102 317.154 334.648C317.165 334.64 317.179 334.631 317.194 334.623C317.293 334.558 317.39 334.494 317.487 334.43C318.584 333.705 319.629 332.893 320.608 332.002C326.145 326.965 329.659 319.436 329.659 311.021C329.659 295.861 318.249 283.572 304.173 283.572C290.098 283.572 278.687 295.861 278.687 311.021Z" fill="#DEE4FC"/>
<path d="M305.586 326.119C298.779 327.25 300.61 320.325 300.61 320.325L300.398 315.226L300.243 311.492L308.293 310.078C307.936 312.224 307.906 314.132 308.08 315.805C308.723 322.009 312.174 324.99 312.174 324.99C312.174 324.99 312.392 324.99 305.586 326.119Z" fill="#CC8B5B"/>
<path d="M304.611 317.767C302.794 317.767 301.268 316.294 300.398 315.224L300.243 311.49L308.293 310.076C308.072 311.403 307.977 312.635 307.977 313.779C307.977 314.488 308.013 315.164 308.08 315.804C306.875 317.243 305.692 317.767 304.611 317.767Z" fill="#AE764D"/>
<path d="M299.228 311.89C299.269 311.909 299.291 311.917 299.291 311.917C300.903 317.643 305.292 317.005 305.292 317.005C309.318 316.015 308.951 311.352 308.951 311.352C309.033 311.3 309.109 311.237 309.178 311.168C309.87 310.478 310.049 309.019 310.049 309.019C310.104 306.043 309.455 306.863 309.131 307.455C309.112 307.491 309.093 307.524 309.077 307.555C309.069 307.571 309.061 307.587 309.053 307.601C309.065 307.57 309.074 307.538 309.083 307.507C309.102 307.448 309.116 307.389 309.129 307.326V307.324C309.49 305.512 307.928 301.741 307.928 301.741L303.023 300.045L298.418 302.733L298.728 308.209L298.796 308.501V308.509L298.81 308.571C298.818 308.613 298.834 308.679 298.853 308.759L298.927 309.09C298.886 308.967 298.845 308.857 298.804 308.755L298.802 308.753C298.098 307.045 297.316 308.242 297.316 308.242C297.186 310.837 298.871 311.733 299.228 311.89Z" fill="#DE995F"/>
<path d="M308.951 307.817L308.283 304.502C308.242 304.119 307.467 302.849 307.087 302.731C306.516 302.557 306.393 302.57 305.612 302.321C304.877 302.086 304.101 301.992 303.327 302.045C302.92 302.073 302.591 302.158 302.317 302.254C300.975 302.726 299.892 303.824 299.355 305.23C298.924 306.362 298.644 307.8 298.926 309.443C298.926 309.443 298.421 307.437 297.612 307.945C297.612 307.945 296.625 299.994 300.902 297.994C300.902 297.994 304.995 296.453 307.985 299.512C309.01 300.562 309.617 302.394 309.629 303.859C309.64 305.276 309.589 307.367 308.951 307.817Z" fill="#020202"/>
<path d="M300.535 316.443L300.522 316.46L300.535 316.443Z" fill="#449092"/>
<path d="M314.951 335.905C315.706 335.523 316.44 335.104 317.153 334.65C317.167 334.641 317.179 334.632 317.194 334.624C317.292 334.561 317.391 334.496 317.488 334.431C318.585 333.706 319.628 332.894 320.608 332.002C320.479 329.983 320.333 328.7 320.333 328.7C319.987 325.021 318.57 323.957 317.987 323.673H317.986C317.972 323.667 317.961 323.66 317.948 323.655C317.816 323.595 317.734 323.578 317.734 323.578C314.316 321.886 314.317 329.251 314.951 335.905Z" fill="white"/>
<path d="M293.174 323.999L295.741 330.042L295.499 336.84C295.784 336.953 296.073 337.057 296.362 337.159C296.593 337.237 296.823 337.313 297.056 337.385C299.314 338.092 301.702 338.471 304.171 338.471C306.111 338.471 308.003 338.237 309.819 337.793C309.963 337.759 310.105 337.724 310.247 337.686C311.882 337.255 313.455 336.653 314.948 335.904C315.704 335.522 316.439 335.103 317.152 334.65L317.947 323.655L317.953 323.576C316.049 322.518 309.902 319.337 309.902 319.337L309.591 318.982L308.348 317.57L308.257 317.463C309.391 320.677 307.781 322.376 307.781 322.376L307.38 322.913L307.047 323.364C306.755 321.739 304.852 320.468 304.852 320.468C300.078 317.741 300.432 316.623 300.52 316.459L300.452 316.568L298.924 318.982L292.483 322.376L293.174 323.999Z" fill="white"/>
<path d="M317.986 323.671H317.985L317.991 323.611L317.986 323.671Z" fill="#BDC2D6"/>
<path d="M317.195 334.624L317.985 323.672H317.987L317.973 323.975L317.488 334.432C317.392 334.497 317.293 334.561 317.195 334.624Z" fill="#D9D9D9"/>
<path d="M297.057 337.387C296.824 337.314 296.594 337.239 296.363 337.161C296.073 337.058 295.785 336.954 295.5 336.841L295.742 330.044L293.175 324.001L294.255 323.639H294.256C297.389 326.795 297.379 333.47 297.057 337.387Z" fill="#D9D9D9"/>
<path d="M303.025 324C303.025 324 299.365 321.881 298.925 318.982C298.952 319.029 300.985 322.731 302.804 323.365L305.292 321.173C305.292 321.173 306.098 321.386 307.048 323.365L305.292 321.668L303.025 324Z" fill="#D9D9D9"/>
<path d="M311.105 324.471C310.921 324.471 310.71 324.353 310.489 323.999L309.538 322.657C309.538 322.657 308.916 323.013 308.102 323.013C307.874 323.013 307.631 322.986 307.382 322.915V322.913C307.421 322.913 309.323 322.854 309.757 321.455C309.757 321.455 310.27 323.787 311.221 323.999L309.592 318.982L311.734 323.999C311.734 323.999 311.473 324.471 311.105 324.471Z" fill="#D9D9D9"/>
<path d="M309.82 337.794C309.047 332.565 308.173 328.288 307.614 325.783C307.3 324.359 307.085 323.508 307.053 323.381C307.305 324.169 307.54 324.963 307.762 325.757C308.887 329.771 309.687 333.825 310.249 337.687C310.106 337.724 309.964 337.76 309.82 337.794Z" fill="#D9D9D9"/>
<path d="M287.76 332.024C290.035 334.088 292.649 335.731 295.5 336.841C295.785 336.954 296.073 337.058 296.363 337.159L296.583 335.45C296.583 335.45 297.405 327.185 294.255 323.639C293.765 323.087 293.181 322.652 292.484 322.377C292.484 322.377 288.388 323.154 287.947 331.281C287.947 331.281 287.878 331.55 287.76 332.024Z" fill="white"/>
<path d="M298.729 308.207L298.803 308.752L298.804 308.753L299.166 311.424C299.208 311.444 299.291 311.915 299.291 311.915C300.903 317.641 305.293 317.004 305.293 317.004C309.318 316.014 308.952 311.35 308.952 311.35C309.034 311.298 308.963 310.528 309.032 310.458L309.132 307.452L309.131 307.323V307.322L308.883 305.951C308.869 306.084 309.1 307.377 309.085 307.505C309.063 307.148 308.838 306.971 308.883 307.883C308.173 313.729 306.087 314.224 305.202 314.321C304.937 314.347 304.673 314.375 304.411 314.421C300.63 315.073 299.152 309.976 298.854 308.758C298.835 308.676 298.818 308.612 298.811 308.569C298.803 308.538 298.798 308.516 298.797 308.507L298.795 308.501L298.729 308.207Z" fill="#020202"/>
<path d="M283.815 341.67H260.266C260.266 341.67 262.374 360.612 283.815 370.021C283.815 370.021 272.536 353.432 283.815 341.67Z" fill="white"/>
<path d="M249 262C239.8 270 213.166 282.667 201 288C199.833 308.5 197.4 350 197 352C196.6 354 228.833 366.833 245 373L340.5 371L338.5 264.5C312.5 260.333 258.2 254 249 262Z" fill="#EBE8FA"/>
<path d="M504 202H674V326H504V202Z" fill="#EBE8FA"/>
<path opacity="0.4" d="M393.559 252.77L366.062 267.567C363.06 269.182 359.32 268.057 357.707 265.052L344.737 240.9C343.124 237.896 344.247 234.151 347.249 232.536L374.746 217.737C377.748 216.123 381.488 217.248 383.101 220.252L396.072 244.405C397.685 247.409 396.561 251.154 393.559 252.77Z" fill="#825BD3"/>
<path d="M361.866 240.801L357.877 239.55L358.424 237.809L362.412 239.062L374.73 232.631C374.856 232.565 374.996 232.529 375.138 232.527C375.28 232.525 375.42 232.556 375.548 232.618C375.676 232.679 375.788 232.77 375.875 232.883C375.961 232.996 376.02 233.127 376.047 233.266L377.483 240.744C377.52 240.937 377.494 241.136 377.409 241.313C377.324 241.49 377.184 241.634 377.01 241.725L367.105 246.896L367.949 248.513L376.839 243.871L377.683 245.487L367.985 250.551C367.771 250.663 367.521 250.685 367.29 250.613C367.059 250.54 366.867 250.379 366.755 250.165L361.866 240.801ZM370.077 253.572C369.755 253.74 369.38 253.774 369.034 253.665C368.688 253.556 368.4 253.315 368.232 252.993C368.064 252.672 368.031 252.297 368.139 251.951C368.248 251.605 368.49 251.316 368.811 251.148C369.133 250.98 369.508 250.947 369.854 251.056C370.2 251.164 370.488 251.406 370.656 251.727C370.824 252.049 370.857 252.424 370.749 252.77C370.64 253.116 370.398 253.405 370.077 253.572ZM379.775 248.509C379.453 248.677 379.078 248.71 378.732 248.602C378.386 248.493 378.097 248.251 377.93 247.93C377.762 247.608 377.728 247.233 377.837 246.887C377.946 246.541 378.187 246.252 378.509 246.085C378.83 245.917 379.205 245.883 379.551 245.992C379.897 246.101 380.186 246.342 380.354 246.664C380.522 246.985 380.555 247.36 380.447 247.706C380.338 248.052 380.096 248.341 379.775 248.509Z" fill="white"/>
<path opacity="0.4" d="M492.687 154.758L461.475 153.824C458.068 153.722 455.391 150.877 455.497 147.468L456.34 120.067C456.445 116.659 459.291 113.978 462.698 114.079L493.911 115.012C497.318 115.115 499.994 117.96 499.889 121.368L499.045 148.77C498.94 152.178 496.095 154.859 492.687 154.758Z" fill="#E54E8D"/>
<path d="M469.098 124.893L487.766 125.344C488.041 125.351 488.302 125.467 488.492 125.666C488.682 125.865 488.785 126.132 488.778 126.407L488.377 143.001C488.37 143.276 488.255 143.537 488.055 143.727C487.856 143.916 487.59 144.019 487.315 144.013L468.646 143.561C468.371 143.555 468.11 143.439 467.92 143.24C467.731 143.041 467.628 142.774 467.634 142.499L468.035 125.905C468.042 125.63 468.158 125.369 468.357 125.179C468.556 124.989 468.823 124.887 469.098 124.893ZM486.503 134.653L469.909 134.252L469.734 141.512L486.328 141.913L486.503 134.653ZM486.603 130.505L486.679 127.394L470.085 126.993L470.009 130.104L486.603 130.505Z" fill="white"/>
<path opacity="0.4" d="M624.537 329.394L586.729 328.263C582.601 328.14 579.359 324.694 579.487 320.564L580.509 287.373C580.636 283.244 584.083 279.996 588.21 280.119L626.019 281.249C630.145 281.374 633.388 284.82 633.26 288.948L632.238 322.141C632.111 326.269 628.664 329.518 624.537 329.394Z" fill="#825BD3"/>
<path opacity="0.4" d="M282.233 379.805L255.67 363.39C252.77 361.598 251.875 357.796 253.671 354.896L268.101 331.588C269.896 328.689 273.701 327.79 276.602 329.582L303.166 345.996C306.065 347.788 306.96 351.59 305.165 354.489L290.733 377.798C288.939 380.697 285.134 381.596 282.233 379.805Z" fill="#E54E8D"/>
<path d="M274.797 362.794C270.408 359.99 269.123 354.158 271.927 349.769C274.732 345.379 280.563 344.095 284.952 346.899C289.342 349.703 290.627 355.535 287.822 359.924C285.018 364.314 279.187 365.598 274.797 362.794ZM277.051 357.519L286.261 355.489L285.855 353.648L278.487 355.272L277.675 351.587L275.834 351.993L277.051 357.519Z" fill="white"/>
<path d="M600 308.369V306.289H607.306V308.369H600ZM600 311.853V310.033H608.606V311.853H600ZM602.184 314.999V296.539H608.58C609.464 296.539 610.244 296.712 610.92 297.059C611.613 297.388 612.203 297.839 612.688 298.411C613.173 298.966 613.537 299.598 613.78 300.309C614.04 301.002 614.17 301.713 614.17 302.441C614.17 303.446 613.962 304.408 613.546 305.327C613.13 306.228 612.515 306.965 611.7 307.537C610.903 308.092 609.915 308.369 608.736 308.369H604.524V314.999H602.184ZM604.524 306.289H608.606C609.421 306.289 610.062 306.116 610.53 305.769C610.998 305.422 611.327 304.954 611.518 304.365C611.709 303.776 611.804 303.134 611.804 302.441C611.804 301.713 611.683 301.063 611.44 300.491C611.215 299.902 610.851 299.442 610.348 299.113C609.845 298.784 609.204 298.619 608.424 298.619H604.524V306.289Z" fill="white"/>
<path d="M366.826 126.593C363.65 126.593 361.067 129.177 361.067 132.353C361.067 135.529 363.65 138.113 366.826 138.113C370.002 138.113 372.586 135.529 372.586 132.353C372.586 129.177 370.002 126.593 366.826 126.593ZM366.826 140.18C362.511 140.18 359 136.669 359 132.353C359 128.038 362.511 124.527 366.826 124.527C371.142 124.527 374.653 128.038 374.653 132.353C374.653 136.669 371.142 140.18 366.826 140.18Z" fill="#6A79A8" fill-opacity="0.5"/>
<path d="M493.827 215.068C490.651 215.068 488.067 217.651 488.067 220.828C488.067 224.006 490.651 226.589 493.827 226.589C497.003 226.589 499.586 224.006 499.586 220.828C499.586 217.651 497.003 215.068 493.827 215.068ZM493.827 228.655C489.511 228.655 486 225.142 486 220.828C486 216.515 489.511 213.002 493.827 213.002C498.142 213.002 501.653 216.515 501.653 220.828C501.653 225.142 498.142 228.655 493.827 228.655Z" fill="#6A79A8" fill-opacity="0.5"/>
<path d="M555.827 425.066C552.65 425.066 550.067 427.65 550.067 430.826C550.067 434.002 552.65 436.586 555.827 436.586C559.004 436.586 561.587 434.002 561.587 430.826C561.587 427.65 559.004 425.066 555.827 425.066ZM555.827 438.652C551.513 438.652 548 435.141 548 430.826C548 426.511 551.513 423 555.827 423C560.141 423 563.654 426.511 563.654 430.826C563.654 435.141 560.141 438.652 555.827 438.652Z" fill="#6A79A8" fill-opacity="0.5"/>
</svg>
