<svg width="750" height="560" viewBox="0 0 750 560" fill="none" xmlns="http://www.w3.org/2000/svg">
<path d="M389.366 117.32H166.685C158.612 117.32 152.008 110.716 152.008 102.643V96.7584C152.008 88.6866 158.612 82.082 166.685 82.082H389.366C397.438 82.082 404.042 88.6866 404.042 96.7584V102.643C404.042 110.716 397.438 117.32 389.366 117.32Z" fill="#DFF2FE"/>
<path d="M407.594 69.9111H318.316C310.586 69.9111 304.262 63.5876 304.262 55.8589C304.262 48.1301 310.586 41.8066 318.316 41.8066H407.594C415.324 41.8066 421.648 48.1301 421.648 55.8589C421.648 63.5876 415.324 69.9111 407.594 69.9111Z" fill="#DFF2FE"/>
<path d="M424.301 156.335H335.022C327.293 156.335 320.969 150.01 320.969 142.281C320.969 134.552 327.293 128.227 335.022 128.227H424.301C432.031 128.227 438.355 134.552 438.355 142.281C438.355 150.01 432.031 156.335 424.301 156.335Z" fill="#DFF2FE"/>
<path d="M377.402 129.346C373.049 129.346 369.521 126.654 369.521 123.333C369.521 120.012 373.049 117.32 377.402 117.32H343.016C347.368 117.32 350.897 120.012 350.897 123.333C350.897 126.654 347.368 129.346 343.016 129.346H377.402Z" fill="#DFF2FE"/>
<path d="M388.543 82.4692C383.999 82.4692 380.316 79.6592 380.316 76.1926C380.316 72.7261 383.999 69.9141 388.543 69.9141H352.648C357.192 69.9141 360.875 72.7261 360.875 76.1926C360.875 79.6592 357.192 82.4692 352.648 82.4692H388.543Z" fill="#DFF2FE"/>
<path d="M172.989 293.256H395.671C403.743 293.256 410.347 299.861 410.347 307.933V313.818C410.347 321.891 403.743 328.495 395.671 328.495H172.989C164.917 328.495 158.312 321.891 158.312 313.818V307.933C158.312 299.861 164.917 293.256 172.989 293.256Z" fill="#DFF2FE"/>
<path d="M154.76 340.66H244.04C251.769 340.66 258.093 346.984 258.093 354.713C258.093 362.443 251.769 368.767 244.04 368.767H154.76C147.031 368.767 140.707 362.443 140.707 354.713C140.707 346.984 147.031 340.66 154.76 340.66Z" fill="#DFF2FE"/>
<path d="M138.054 254.24H227.333C235.062 254.24 241.386 260.564 241.386 268.293C241.386 276.023 235.062 282.347 227.333 282.347H138.054C130.324 282.347 124 276.023 124 268.293C124 260.564 130.324 254.24 138.054 254.24Z" fill="#DFF2FE"/>
<path d="M184.949 281.229C189.302 281.229 192.83 283.921 192.83 287.242C192.83 290.563 189.302 293.255 184.949 293.255H219.336C214.983 293.255 211.455 290.563 211.455 287.242C211.455 283.921 214.983 281.229 219.336 281.229H184.949Z" fill="#DFF2FE"/>
<path d="M173.812 328.105C178.356 328.105 182.039 330.915 182.039 334.382C182.039 337.848 178.356 340.658 173.812 340.658H209.707C205.163 340.658 201.48 337.848 201.48 334.382C201.48 330.915 205.163 328.105 209.707 328.105H173.812Z" fill="#DFF2FE"/>
<path d="M447.059 161.826H669.738C677.813 161.826 684.416 168.43 684.416 176.502V182.388C684.416 190.46 677.813 197.064 669.738 197.064H447.059C438.987 197.064 432.383 190.46 432.383 182.388V176.502C432.383 168.43 438.987 161.826 447.059 161.826Z" fill="#DFF2FE"/>
<path d="M428.827 209.234H518.106C525.836 209.234 532.16 215.558 532.16 223.287C532.16 231.017 525.836 237.341 518.106 237.341H428.827C421.097 237.341 414.773 231.017 414.773 223.287C414.773 215.558 421.097 209.234 428.827 209.234Z" fill="#DFF2FE"/>
<path d="M412.124 122.812H501.403C509.133 122.812 515.457 129.137 515.457 136.867C515.457 144.596 509.133 150.919 501.403 150.919H412.124C404.394 150.919 398.07 144.596 398.07 136.867C398.07 129.137 404.394 122.812 412.124 122.812Z" fill="#DFF2FE"/>
<path d="M459.02 149.801C463.372 149.801 466.901 152.493 466.901 155.814C466.901 159.135 463.372 161.827 459.02 161.827H493.406C489.054 161.827 485.525 159.135 485.525 155.814C485.525 152.493 489.054 149.801 493.406 149.801H459.02Z" fill="#DFF2FE"/>
<path d="M447.879 196.68C452.422 196.68 456.106 199.49 456.106 202.957C456.106 206.423 452.422 209.233 447.879 209.233H483.773C479.229 209.233 475.546 206.423 475.546 202.957C475.546 199.49 479.229 196.68 483.773 196.68H447.879Z" fill="#DFF2FE"/>
<path d="M588.792 427.478H366.11C358.038 427.478 351.434 420.873 351.434 412.801V406.915C351.434 398.843 358.038 392.238 366.11 392.238H588.792C596.862 392.238 603.47 398.843 603.47 406.915V412.801C603.47 420.873 596.862 427.478 588.792 427.478Z" fill="#DFF2FE"/>
<path d="M607.026 380.074H517.745C510.015 380.074 503.691 373.75 503.691 366.02C503.691 358.291 510.015 351.967 517.745 351.967H607.026C614.754 351.967 621.078 358.291 621.078 366.02C621.078 373.75 614.754 380.074 607.026 380.074Z" fill="#DFF2FE"/>
<path d="M623.726 466.493H534.448C526.719 466.493 520.395 460.17 520.395 452.441C520.395 444.707 526.719 438.385 534.448 438.385H623.726C631.455 438.385 637.778 444.707 637.778 452.441C637.778 460.17 631.455 466.493 623.726 466.493Z" fill="#DFF2FE"/>
<path d="M576.832 439.503C572.479 439.503 568.951 436.811 568.951 433.49C568.951 430.169 572.479 427.477 576.832 427.477H542.445C546.798 427.477 550.327 430.169 550.327 433.49C550.327 436.811 546.798 439.503 542.445 439.503H576.832Z" fill="#DFF2FE"/>
<path d="M587.968 392.623C583.425 392.623 579.742 389.813 579.742 386.347C579.742 382.88 583.425 380.07 587.968 380.07H552.074C556.617 380.07 560.301 382.88 560.301 386.347C560.301 389.813 556.617 392.623 552.074 392.623H587.968Z" fill="#DFF2FE"/>
<path d="M406.443 203.939H183.762C175.69 203.939 169.086 197.335 169.086 189.263V183.377C169.086 175.305 175.69 168.701 183.762 168.701H406.443C414.516 168.701 421.12 175.305 421.12 183.377V189.263C421.12 197.335 414.516 203.939 406.443 203.939Z" fill="#DFF2FE"/>
<path d="M424.676 156.535H335.397C327.668 156.535 321.344 150.211 321.344 142.482C321.344 134.752 327.668 128.428 335.397 128.428H424.676C432.406 128.428 438.73 134.752 438.73 142.482C438.73 150.211 432.406 156.535 424.676 156.535Z" fill="#DFF2FE"/>
<path d="M441.38 242.955H352.101C344.371 242.955 338.047 236.631 338.047 228.901C338.047 221.172 344.371 214.848 352.101 214.848H441.38C449.109 214.848 455.433 221.172 455.433 228.901C455.433 236.631 449.109 242.955 441.38 242.955Z" fill="#DFF2FE"/>
<path d="M394.48 215.967C390.128 215.967 386.599 213.275 386.599 209.954C386.599 206.633 390.128 203.941 394.48 203.941H360.094C364.446 203.941 367.975 206.633 367.975 209.954C367.975 213.275 364.446 215.967 360.094 215.967H394.48Z" fill="#DFF2FE"/>
<path d="M405.621 169.089C401.078 169.089 397.395 166.278 397.395 162.812C397.395 159.346 401.078 156.535 405.621 156.535H369.727C374.27 156.535 377.953 159.346 377.953 162.812C377.953 166.278 374.27 169.089 369.727 169.089H405.621Z" fill="#DFF2FE"/>
<path d="M465.454 253.957H688.135C696.205 253.957 702.813 260.561 702.813 268.633V274.519C702.813 282.591 696.205 289.195 688.135 289.195H465.454C457.382 289.195 450.777 282.591 450.777 274.519V268.633C450.777 260.561 457.382 253.957 465.454 253.957Z" fill="#DFF2FE"/>
<path d="M447.222 301.363H536.501C544.23 301.363 550.554 307.687 550.554 315.416C550.554 323.146 544.23 329.47 536.501 329.47H447.222C439.492 329.47 433.168 323.146 433.168 315.416C433.168 307.687 439.492 301.363 447.222 301.363Z" fill="#DFF2FE"/>
<path d="M430.518 214.945H519.798C527.527 214.945 533.851 221.269 533.851 228.998C533.851 236.728 527.527 243.052 519.798 243.052H430.518C422.789 243.052 416.465 236.728 416.465 228.998C416.465 221.269 422.789 214.945 430.518 214.945Z" fill="#DFF2FE"/>
<path d="M477.414 241.932C481.767 241.932 485.295 244.624 485.295 247.945C485.295 251.266 481.767 253.958 477.414 253.958H511.801C507.448 253.958 503.92 251.266 503.92 247.945C503.92 244.624 507.448 241.932 511.801 241.932H477.414Z" fill="#DFF2FE"/>
<path d="M466.273 288.811C470.817 288.811 474.5 291.621 474.5 295.088C474.5 298.554 470.817 301.364 466.273 301.364H502.168C497.624 301.364 493.941 298.554 493.941 295.088C493.941 291.621 497.624 288.811 502.168 288.811H466.273Z" fill="#DFF2FE"/>
<path d="M199.397 221.567C195.887 221.567 193.031 224.423 193.031 227.934C193.031 231.444 195.887 234.3 199.397 234.3C202.908 234.3 205.763 231.444 205.763 227.934C205.763 224.423 202.908 221.567 199.397 221.567ZM199.397 238.433C193.609 238.433 188.898 233.723 188.898 227.934C188.898 222.144 193.609 217.434 199.397 217.434C205.187 217.434 209.896 222.144 209.896 227.934C209.896 233.723 205.187 238.433 199.397 238.433Z" fill="#BBDFF5"/>
<path d="M628.51 108.533C624.997 108.533 622.145 111.389 622.145 114.9C622.145 118.41 624.997 121.265 628.51 121.265C632.017 121.265 634.874 118.41 634.874 114.9C634.874 111.389 632.017 108.533 628.51 108.533ZM628.51 125.398C622.718 125.398 618.012 120.688 618.012 114.9C618.012 109.11 622.718 104.4 628.51 104.4C634.296 104.4 639.007 109.11 639.007 114.9C639.007 120.688 634.296 125.398 628.51 125.398Z" fill="#BBDFF5"/>
<path d="M394.483 446.071C390.973 446.071 388.117 448.927 388.117 452.441C388.117 455.948 390.973 458.805 394.483 458.805C397.994 458.805 400.849 455.948 400.849 452.441C400.849 448.927 397.994 446.071 394.483 446.071ZM394.483 462.938C388.694 462.938 383.984 458.227 383.984 452.441C383.984 446.649 388.694 441.939 394.483 441.939C400.273 441.939 404.982 446.649 404.982 452.441C404.982 458.227 400.273 462.938 394.483 462.938Z" fill="#BBDFF5"/>
<path d="M431.513 222.424L437.646 222.425V222.268L517.194 222.428L517.199 222.429C517.342 222.425 517.486 222.426 517.629 222.434H517.249L518.486 222.553L519.788 222.993L520.812 223.592L521.915 224.602L522.519 225.427L522.911 226.186L523.282 227.416V385.187L522.811 386.883L521.768 388.506L520.456 389.766L519.036 390.745L516.778 391.42L442.95 391.428C440.64 391.455 438.233 390.106 437.746 386.437H437.646V227.415H426.309C426.795 223.747 429.203 222.398 431.513 222.424Z" fill="#BBDFF5"/>
<path d="M438.025 381.97C437.455 381.97 436.992 381.507 436.992 380.936V227.044C436.992 226.473 437.455 226.01 438.025 226.01C438.596 226.01 439.059 226.473 439.059 227.044V380.936C439.059 381.507 438.596 381.97 438.025 381.97Z" fill="#6A79A8"/>
<path d="M523.686 382.891C523.115 382.891 522.652 382.428 522.652 381.857V227.041C522.652 226.471 523.115 226.008 523.686 226.008C524.256 226.008 524.719 226.471 524.719 227.041V381.857C524.719 382.428 524.256 382.891 523.686 382.891Z" fill="#6A79A8"/>
<path d="M523.685 228.075C523.176 228.075 522.732 227.699 522.662 227.179C522.17 223.516 519.609 223.131 518.506 223.161H432.369C431.798 223.161 431.336 222.698 431.336 222.128C431.336 221.557 431.798 221.095 432.369 221.095H518.494C518.519 221.094 518.545 221.094 518.569 221.094C521.17 221.094 524.135 222.617 524.711 226.905C524.786 227.47 524.39 227.99 523.824 228.066C523.777 228.072 523.73 228.075 523.685 228.075Z" fill="#6A79A8"/>
<path d="M426.713 232.034C426.703 232.034 426.691 232.034 426.68 232.034C426.11 232.015 425.662 231.538 425.68 230.967C425.693 230.596 425.693 230.226 425.693 229.858C425.695 228.227 425.697 226.54 426.635 224.834C427.692 222.913 429.699 221.509 431.872 221.169C433.515 220.913 435.194 221.314 436.487 222.272C437.881 223.304 438.767 224.903 439.048 226.894C439.128 227.459 438.735 227.982 438.17 228.061C437.602 228.14 437.082 227.748 437.002 227.183C436.8 225.752 436.197 224.628 435.257 223.932C434.405 223.302 433.287 223.039 432.192 223.211C430.636 223.454 429.201 224.458 428.446 225.829C427.763 227.072 427.762 228.364 427.76 229.861C427.759 230.25 427.759 230.64 427.746 231.034C427.728 231.593 427.269 232.034 426.713 232.034Z" fill="#6A79A8"/>
<path d="M515.543 391.428H516.214C515.991 391.44 515.767 391.438 515.543 391.428Z" fill="white"/>
<path d="M383.102 181.792C383.732 177.103 386.851 175.378 389.843 175.412L397.787 175.413V175.213L500.833 175.417L500.839 175.418C501.025 175.413 501.211 175.414 501.396 175.424H500.904L502.506 175.577L504.193 176.139L505.519 176.905L506.948 178.195L507.731 179.251L508.239 180.22L508.719 181.793V385.063H509.13C509.737 389.357 512.653 391.304 515.541 391.431L404.658 391.443C401.667 391.476 398.548 389.752 397.918 385.063H397.787V181.792H383.102Z" fill="white"/>
<path d="M508.997 187.967C508.442 187.967 507.983 187.526 507.965 186.967C507.948 186.459 507.948 185.955 507.947 185.454C507.945 183.551 507.943 181.753 507.018 180.071C505.993 178.208 504.045 176.846 501.932 176.515C500.428 176.279 498.893 176.642 497.722 177.509C496.434 178.462 495.609 179.993 495.334 181.934C495.263 182.444 494.826 182.822 494.312 182.822H383.1C382.802 182.822 382.518 182.694 382.322 182.469C382.126 182.245 382.036 181.947 382.075 181.652C382.804 176.231 386.57 174.33 389.852 174.376C390.423 174.382 390.88 174.85 390.874 175.42C390.867 175.991 390.399 176.436 389.829 176.442C388.463 176.422 385.379 176.845 384.352 180.756H493.45C493.921 178.667 494.962 176.982 496.492 175.849C498.105 174.654 500.204 174.152 502.252 174.474C504.983 174.901 507.503 176.664 508.829 179.075C510.009 181.222 510.011 183.372 510.014 185.451C510.014 185.931 510.015 186.414 510.03 186.9C510.049 187.47 509.601 187.948 509.031 187.966C509.019 187.966 509.008 187.967 508.997 187.967Z" fill="#6A79A8"/>
<path d="M501.398 176.443H389.537C388.966 176.443 388.504 175.98 388.504 175.41C388.504 174.839 388.966 174.377 389.537 174.377H501.398C501.969 174.377 502.432 174.839 502.432 175.41C502.432 175.98 501.969 176.443 501.398 176.443Z" fill="#6A79A8"/>
<path d="M508.998 386.093C508.427 386.093 507.965 385.63 507.965 385.059V185.265C507.965 184.695 508.427 184.232 508.998 184.232C509.568 184.232 510.031 184.695 510.031 185.265V385.059C510.031 385.63 509.568 386.093 508.998 386.093Z" fill="#6A79A8"/>
<path d="M397.787 386.094C397.216 386.094 396.754 385.631 396.754 385.06V184.068C396.754 183.497 397.216 183.035 397.787 183.035C398.358 183.035 398.82 183.497 398.82 184.068V385.06C398.82 385.631 398.358 386.094 397.787 386.094Z" fill="#6A79A8"/>
<path d="M404.434 392.474C401.186 392.474 397.485 390.567 396.763 385.197C396.687 384.632 397.085 384.111 397.65 384.036C398.214 383.962 398.736 384.357 398.812 384.922C399.473 389.846 402.917 390.407 404.446 390.407C404.47 390.407 404.494 390.407 404.517 390.407H516.342C516.913 390.407 517.375 390.87 517.375 391.44C517.375 392.011 516.913 392.473 516.342 392.473H404.528C404.497 392.474 404.466 392.474 404.434 392.474Z" fill="#6A79A8"/>
<path d="M515.72 392.474C514.078 392.474 512.472 391.962 511.178 391.003C509.436 389.713 508.329 387.709 507.975 385.208C507.896 384.643 508.289 384.12 508.853 384.04C509.419 383.957 509.941 384.353 510.021 384.918C510.296 386.859 511.121 388.39 512.408 389.343C513.579 390.21 515.114 390.571 516.619 390.337C518.732 390.007 520.68 388.644 521.704 386.781C522.63 385.099 522.632 383.301 522.634 381.399C522.634 380.898 522.635 380.393 522.652 379.886C522.67 379.327 523.128 378.885 523.684 378.885C523.695 378.885 523.706 378.885 523.718 378.886C524.288 378.904 524.735 379.381 524.717 379.952C524.701 380.438 524.701 380.921 524.7 381.401C524.698 383.481 524.696 385.631 523.515 387.777C522.19 390.188 519.669 391.951 516.939 392.379C516.533 392.443 516.125 392.474 515.72 392.474Z" fill="#6A79A8"/>
<path d="M455.193 151.896L448.022 151.897V151.676L355.009 151.902L355.003 151.903C354.835 151.897 354.667 151.899 354.5 151.91H354.944L353.499 152.079L351.976 152.703L350.779 153.552L349.489 154.982L348.782 156.152L348.324 157.227L347.891 158.97V382.564L348.44 384.967L349.661 387.267L351.195 389.053L352.855 390.442L355.495 391.397L441.82 391.409C444.52 391.446 447.336 389.535 447.904 384.335H448.022V158.97H461.278C460.708 153.771 457.894 151.859 455.193 151.896Z" fill="#BBDFF5"/>
<path d="M447.58 377.571C447.009 377.571 446.547 377.109 446.547 376.538V158.441C446.547 157.87 447.009 157.408 447.58 157.408C448.151 157.408 448.613 157.87 448.613 158.441V376.538C448.613 377.109 448.151 377.571 447.58 377.571Z" fill="#6A79A8"/>
<path d="M347.42 378.878C346.849 378.878 346.387 378.415 346.387 377.845V158.439C346.387 157.869 346.849 157.406 347.42 157.406C347.99 157.406 348.453 157.869 348.453 158.439V377.845C348.453 378.415 347.99 378.878 347.42 378.878Z" fill="#6A79A8"/>
<path d="M347.421 159.473C347.383 159.473 347.345 159.471 347.306 159.466C346.739 159.403 346.331 158.893 346.393 158.326C347.038 152.508 350.427 150.441 353.416 150.441C353.446 150.441 353.475 150.442 353.505 150.442H454.194C454.765 150.442 455.228 150.904 455.228 151.475C455.228 152.046 454.765 152.508 454.194 152.508H353.491C350.759 152.482 348.871 154.731 348.447 158.553C348.388 159.082 347.941 159.473 347.421 159.473Z" fill="#6A79A8"/>
<path d="M460.81 165.085C460.252 165.085 459.792 164.64 459.777 164.079C459.763 163.528 459.762 162.98 459.761 162.435C459.759 160.324 459.758 158.331 458.902 156.444C457.98 154.412 456.254 152.932 454.398 152.579C453.258 152.363 452.106 152.632 451.149 153.336C450.186 154.043 448.964 155.523 448.61 158.555C448.544 159.123 448.024 159.53 447.464 159.462C446.897 159.396 446.492 158.883 446.558 158.316C446.997 154.545 448.632 152.62 449.925 151.67C451.351 150.624 453.075 150.225 454.783 150.55C457.289 151.025 459.588 152.957 460.784 155.59C461.824 157.883 461.826 160.196 461.828 162.433C461.828 162.961 461.829 163.491 461.843 164.024C461.858 164.595 461.408 165.069 460.837 165.084C460.829 165.085 460.819 165.085 460.81 165.085Z" fill="#6A79A8"/>
<path d="M356.945 391.408H356.16C356.421 391.424 356.682 391.421 356.945 391.408Z" fill="white"/>
<path d="M511.802 94.3085C511.065 87.6626 507.418 85.219 503.92 85.2665L494.63 85.268V84.9844L374.142 85.2742L374.136 85.2753C373.918 85.268 373.701 85.2701 373.484 85.2841H374.059L372.186 85.5005L370.213 86.2971L368.663 87.3831L366.993 89.2109L366.077 90.7071L365.483 92.0808L364.922 94.309V382.384H364.442C363.732 388.469 360.321 391.229 356.945 391.409L486.596 391.426C490.095 391.474 493.741 389.03 494.478 382.384H494.63V94.3085H511.802Z" fill="white"/>
<path d="M364.592 102.634C364.583 102.634 364.574 102.634 364.564 102.634C363.994 102.618 363.543 102.143 363.559 101.573C363.578 100.878 363.578 100.187 363.579 99.4993C363.582 96.6279 363.584 93.6583 364.907 90.7425C366.418 87.4133 369.318 84.9728 372.474 84.374C374.606 83.9695 376.76 84.467 378.541 85.7746C380.064 86.8936 381.963 89.0898 382.661 93.2765H510.619C509.511 86.239 506.145 86.2835 505.001 86.2995C504.429 86.2897 503.961 85.8511 503.953 85.2807C503.946 84.7098 504.402 84.2412 504.973 84.233C509.427 84.1798 512.087 87.5239 512.827 94.1961C512.859 94.488 512.766 94.7804 512.57 94.999C512.373 95.218 512.093 95.343 511.8 95.343H381.763C381.239 95.343 380.798 94.9504 380.737 94.4297C380.265 90.3824 378.617 88.3949 377.318 87.4402C376.005 86.4757 374.422 86.1078 372.859 86.4044C370.353 86.8802 368.027 88.8697 366.789 91.5965C365.651 94.1063 365.648 96.7271 365.645 99.5014C365.645 100.206 365.644 100.915 365.625 101.628C365.609 102.189 365.15 102.634 364.592 102.634Z" fill="#6A79A8"/>
<path d="M504.277 86.2989H373.482C372.912 86.2989 372.449 85.836 372.449 85.2657C372.449 84.6948 372.912 84.2324 373.482 84.2324H504.277C504.848 84.2324 505.311 84.6948 505.311 85.2657C505.311 85.836 504.848 86.2989 504.277 86.2989Z" fill="#6A79A8"/>
<path d="M364.592 383.417C364.021 383.417 363.559 382.954 363.559 382.384V99.2345C363.559 98.6641 364.021 98.2012 364.592 98.2012C365.163 98.2012 365.625 98.6641 365.625 99.2345V382.384C365.625 382.954 365.163 383.417 364.592 383.417Z" fill="#6A79A8"/>
<path d="M494.631 383.418C494.061 383.418 493.598 382.955 493.598 382.385V94.3087C493.598 93.7383 494.061 93.2754 494.631 93.2754C495.202 93.2754 495.664 93.7383 495.664 94.3087V382.385C495.664 382.955 495.202 383.418 494.631 383.418Z" fill="#6A79A8"/>
<path d="M486.841 392.46C486.804 392.46 486.768 392.46 486.732 392.459H356.006C355.436 392.459 354.973 391.997 354.973 391.426C354.973 390.855 355.436 390.393 356.006 390.393H486.746C486.776 390.393 486.807 390.393 486.837 390.393C490.515 390.393 493.036 387.365 493.601 382.27C493.664 381.703 494.179 381.299 494.742 381.357C495.309 381.42 495.718 381.931 495.655 382.498C494.84 389.848 490.589 392.46 486.841 392.46Z" fill="#6A79A8"/>
<path d="M356.753 392.462C356.271 392.462 355.786 392.416 355.302 392.324C352.146 391.726 349.247 389.285 347.735 385.956C346.412 383.04 346.41 380.07 346.407 377.198C346.407 376.512 346.406 375.82 346.387 375.125C346.373 374.555 346.823 374.08 347.393 374.065C347.952 374.052 348.438 374.5 348.453 375.071C348.472 375.783 348.473 376.492 348.474 377.196C348.476 379.971 348.478 382.592 349.618 385.102C350.855 387.829 353.181 389.819 355.687 390.294C357.25 390.592 358.833 390.223 360.146 389.258C361.445 388.304 363.093 386.317 363.566 382.269C363.632 381.702 364.141 381.293 364.712 381.362C365.279 381.428 365.685 381.941 365.619 382.508C365.06 387.295 362.999 389.727 361.369 390.924C359.992 391.935 358.393 392.462 356.753 392.462Z" fill="#6A79A8"/>
<path d="M373.801 216.283H370.701C370.131 216.283 369.668 215.82 369.668 215.25C369.668 214.679 370.131 214.217 370.701 214.217H373.801C374.372 214.217 374.834 214.679 374.834 215.25C374.834 215.82 374.372 216.283 373.801 216.283Z" fill="#6A79A8"/>
<path d="M386.836 216.283H380.318C379.748 216.283 379.285 215.82 379.285 215.25C379.285 214.679 379.748 214.217 380.318 214.217H386.836C387.406 214.217 387.869 214.679 387.869 215.25C387.869 215.82 387.406 216.283 386.836 216.283ZM399.87 216.283H393.353C392.783 216.283 392.32 215.82 392.32 215.25C392.32 214.679 392.783 214.217 393.353 214.217H399.87C400.441 214.217 400.903 214.679 400.903 215.25C400.903 215.82 400.441 216.283 399.87 216.283ZM412.905 216.283H406.387C405.817 216.283 405.354 215.82 405.354 215.25C405.354 214.679 405.817 214.217 406.387 214.217H412.905C413.475 214.217 413.938 214.679 413.938 215.25C413.938 215.82 413.475 216.283 412.905 216.283ZM425.939 216.283H419.421C418.851 216.283 418.388 215.82 418.388 215.25C418.388 214.679 418.851 214.217 419.421 214.217H425.939C426.51 214.217 426.972 214.679 426.972 215.25C426.972 215.82 426.51 216.283 425.939 216.283ZM438.973 216.283H432.456C431.886 216.283 431.423 215.82 431.423 215.25C431.423 214.679 431.886 214.217 432.456 214.217H438.973C439.544 214.217 440.006 214.679 440.006 215.25C440.006 215.82 439.544 216.283 438.973 216.283ZM452.008 216.283H445.49C444.92 216.283 444.457 215.82 444.457 215.25C444.457 214.679 444.92 214.217 445.49 214.217H452.008C452.579 214.217 453.041 214.679 453.041 215.25C453.041 215.82 452.579 216.283 452.008 216.283ZM465.042 216.283H458.525C457.954 216.283 457.492 215.82 457.492 215.25C457.492 214.679 457.954 214.217 458.525 214.217H465.042C465.613 214.217 466.075 214.679 466.075 215.25C466.075 215.82 465.613 216.283 465.042 216.283ZM478.076 216.283H471.559C470.989 216.283 470.526 215.82 470.526 215.25C470.526 214.679 470.989 214.217 471.559 214.217H478.076C478.647 214.217 479.109 214.679 479.109 215.25C479.109 215.82 478.647 216.283 478.076 216.283Z" fill="#6A79A8"/>
<path d="M487.692 216.283H484.592C484.021 216.283 483.559 215.82 483.559 215.25C483.559 214.679 484.021 214.217 484.592 214.217H487.692C488.262 214.217 488.725 214.679 488.725 215.25C488.725 215.82 488.262 216.283 487.692 216.283Z" fill="#6A79A8"/>
<path d="M373.801 346.164H370.701C370.131 346.164 369.668 345.702 369.668 345.131C369.668 344.561 370.131 344.098 370.701 344.098H373.801C374.372 344.098 374.834 344.561 374.834 345.131C374.834 345.702 374.372 346.164 373.801 346.164Z" fill="#6A79A8"/>
<path d="M386.836 346.164H380.318C379.748 346.164 379.285 345.702 379.285 345.131C379.285 344.561 379.748 344.098 380.318 344.098H386.836C387.406 344.098 387.869 344.561 387.869 345.131C387.869 345.702 387.406 346.164 386.836 346.164ZM399.87 346.164H393.353C392.783 346.164 392.32 345.702 392.32 345.131C392.32 344.561 392.783 344.098 393.353 344.098H399.87C400.441 344.098 400.903 344.561 400.903 345.131C400.903 345.702 400.441 346.164 399.87 346.164ZM412.905 346.164H406.387C405.817 346.164 405.354 345.702 405.354 345.131C405.354 344.561 405.817 344.098 406.387 344.098H412.905C413.475 344.098 413.938 344.561 413.938 345.131C413.938 345.702 413.475 346.164 412.905 346.164ZM425.939 346.164H419.421C418.851 346.164 418.388 345.702 418.388 345.131C418.388 344.561 418.851 344.098 419.421 344.098H425.939C426.51 344.098 426.972 344.561 426.972 345.131C426.972 345.702 426.51 346.164 425.939 346.164ZM438.973 346.164H432.456C431.886 346.164 431.423 345.702 431.423 345.131C431.423 344.561 431.886 344.098 432.456 344.098H438.973C439.544 344.098 440.006 344.561 440.006 345.131C440.006 345.702 439.544 346.164 438.973 346.164ZM452.008 346.164H445.49C444.92 346.164 444.457 345.702 444.457 345.131C444.457 344.561 444.92 344.098 445.49 344.098H452.008C452.579 344.098 453.041 344.561 453.041 345.131C453.041 345.702 452.579 346.164 452.008 346.164ZM465.042 346.164H458.525C457.954 346.164 457.492 345.702 457.492 345.131C457.492 344.561 457.954 344.098 458.525 344.098H465.042C465.613 344.098 466.075 344.561 466.075 345.131C466.075 345.702 465.613 346.164 465.042 346.164ZM478.076 346.164H471.559C470.989 346.164 470.526 345.702 470.526 345.131C470.526 344.561 470.989 344.098 471.559 344.098H478.076C478.647 344.098 479.109 344.561 479.109 345.131C479.109 345.702 478.647 346.164 478.076 346.164Z" fill="#6A79A8"/>
<path d="M487.692 346.164H484.592C484.021 346.164 483.559 345.702 483.559 345.131C483.559 344.561 484.021 344.098 484.592 344.098H487.692C488.262 344.098 488.725 344.561 488.725 345.131C488.725 345.702 488.262 346.164 487.692 346.164Z" fill="#6A79A8"/>
<path d="M587.308 181.415C587.308 196.885 574.767 209.425 559.299 209.425C543.829 209.425 531.289 196.885 531.289 181.415C531.289 165.946 543.829 153.406 559.299 153.406C574.767 153.406 587.308 165.946 587.308 181.415Z" fill="#BBDFF5"/>
<path d="M553.672 208.911C537.337 208.911 524.047 195.621 524.047 179.286C524.047 162.95 537.337 149.66 553.672 149.66C564.904 149.66 575.256 156.108 580.231 166.145H605.055C605.623 166.145 606.088 166.608 606.088 167.179C606.088 167.749 605.623 168.212 605.055 168.212H579.582C579.181 168.212 578.816 167.98 578.646 167.617C574.128 157.964 564.326 151.727 553.672 151.727C538.476 151.727 526.113 164.09 526.113 179.286C526.113 194.482 538.476 206.845 553.672 206.845C568.868 206.845 581.231 194.482 581.231 179.286C581.231 178.715 581.694 178.252 582.265 178.252H596.918C597.487 178.252 597.952 178.715 597.952 179.286C597.952 179.856 597.487 180.319 596.918 180.319H583.28C582.734 196.178 569.662 208.911 553.672 208.911Z" fill="#6A79A8"/>
<path d="M477.416 122.301H379.662C379.092 122.301 378.629 121.838 378.629 121.268C378.629 120.697 379.092 120.234 379.662 120.234H477.416C477.987 120.234 478.449 120.697 478.449 121.268C478.449 121.838 477.987 122.301 477.416 122.301Z" fill="#6A79A8"/>
<path d="M477.414 137.799H421.119C420.549 137.799 420.086 137.336 420.086 136.766C420.086 136.195 420.549 135.732 421.119 135.732H477.414C477.985 135.732 478.447 136.195 478.447 136.766C478.447 137.336 477.985 137.799 477.414 137.799Z" fill="#6A79A8"/>
<path d="M411.321 137.799H379.662C379.092 137.799 378.629 137.336 378.629 136.766C378.629 136.195 379.092 135.732 379.662 135.732H411.321C411.891 135.732 412.354 136.195 412.354 136.766C412.354 137.336 411.891 137.799 411.321 137.799Z" fill="#6A79A8"/>
<path d="M477.413 153.301H460.807C460.236 153.301 459.773 152.838 459.773 152.268C459.773 151.697 460.236 151.234 460.807 151.234H477.413C477.984 151.234 478.446 151.697 478.446 152.268C478.446 152.838 477.984 153.301 477.413 153.301Z" fill="#6A79A8"/>
<path d="M438.024 153.301H421.119C420.549 153.301 420.086 152.838 420.086 152.268C420.086 151.697 420.549 151.234 421.119 151.234H438.024C438.594 151.234 439.057 151.697 439.057 152.268C439.057 152.838 438.594 153.301 438.024 153.301Z" fill="#6A79A8"/>
<path d="M398.071 153.301H379.662C379.092 153.301 378.629 152.838 378.629 152.268C378.629 151.697 379.092 151.234 379.662 151.234H398.071C398.641 151.234 399.104 151.697 399.104 152.268C399.104 152.838 398.641 153.301 398.071 153.301Z" fill="#6A79A8"/>
<path d="M429.198 168.799H379.662C379.092 168.799 378.629 168.336 378.629 167.766C378.629 167.195 379.092 166.732 379.662 166.732H429.198C429.769 166.732 430.232 167.195 430.232 167.766C430.232 168.336 429.769 168.799 429.198 168.799Z" fill="#6A79A8"/>
<path d="M475.998 200.52C475.734 200.52 475.469 200.419 475.268 200.217L463.232 188.181C462.829 187.778 462.829 187.124 463.232 186.72C463.636 186.317 464.29 186.317 464.693 186.72L476.729 198.756C477.132 199.159 477.132 199.814 476.729 200.217C476.527 200.419 476.263 200.52 475.998 200.52Z" fill="#6A79A8"/>
<path d="M473.525 190.959C473.261 190.959 472.996 190.858 472.795 190.657C472.391 190.253 472.391 189.599 472.795 189.195L475.269 186.721C475.673 186.317 476.327 186.317 476.73 186.721C477.134 187.124 477.134 187.778 476.73 188.182L474.256 190.657C474.054 190.858 473.79 190.959 473.525 190.959Z" fill="#6A79A8"/>
<path d="M463.963 200.521C463.698 200.521 463.434 200.42 463.232 200.218C462.829 199.815 462.829 199.16 463.232 198.757L471 190.989C471.404 190.585 472.058 190.585 472.461 190.989C472.865 191.392 472.865 192.046 472.461 192.45L464.693 200.218C464.491 200.42 464.227 200.521 463.963 200.521Z" fill="#6A79A8"/>
<path d="M609.838 310.023C614.503 320.318 609.936 332.446 599.645 337.11C589.348 341.775 577.221 337.21 572.556 326.916C567.891 316.621 572.455 304.493 582.75 299.829C593.047 295.164 605.173 299.728 609.838 310.023Z" fill="#BBDFF5"/>
<path d="M644.403 332.575H601.786C601.388 332.575 601.032 332.351 600.856 331.998C600.681 331.643 600.727 331.222 600.965 330.91C605 325.692 606.188 318.848 604.147 312.603C604.044 312.288 604.101 311.943 604.292 311.676C604.488 311.407 604.798 311.248 605.129 311.248H616.164C616.732 311.248 617.197 311.711 617.197 312.282C617.197 312.852 616.732 313.315 616.164 313.315H606.508C608.017 319.18 607.02 325.398 603.77 330.509H644.403C644.976 330.509 645.436 330.971 645.436 331.542C645.436 332.112 644.976 332.575 644.403 332.575Z" fill="#6A79A8"/>
<path d="M585.274 340.684C582.667 340.684 580.054 340.213 577.541 339.268C572.06 337.205 567.711 333.13 565.295 327.796C562.877 322.462 562.682 316.506 564.745 311.025C566.807 305.544 570.881 301.196 576.215 298.779C584.63 294.965 594.508 296.833 600.94 303.412H632.697C633.265 303.412 633.73 303.875 633.73 304.446C633.73 305.017 633.265 305.478 632.697 305.478H600.501C600.211 305.478 599.943 305.361 599.747 305.154C593.929 298.956 584.816 297.152 577.068 300.661C572.237 302.85 568.547 306.789 566.679 311.753C564.811 316.717 564.987 322.112 567.176 326.943C569.366 331.774 573.306 335.465 578.269 337.334C583.234 339.203 588.629 339.025 593.459 336.835C594.343 336.434 595.2 335.969 596.011 335.45C596.177 335.344 596.368 335.287 596.569 335.287H608.932C609.5 335.287 609.965 335.749 609.965 336.32C609.965 336.89 609.5 337.352 608.932 337.352H596.869C596.053 337.859 595.195 338.319 594.312 338.718C591.424 340.027 588.35 340.684 585.274 340.684Z" fill="#6A79A8"/>
<path d="M310.29 303.549C313.386 310.382 310.357 318.43 303.524 321.526C296.691 324.622 288.642 321.594 285.546 314.761C282.45 307.928 285.479 299.879 292.312 296.783C299.145 293.687 307.194 296.716 310.29 303.549Z" fill="#BBDFF5"/>
<path d="M288.554 310.187H264.596C264.025 310.187 263.562 309.724 263.562 309.153C263.562 308.582 264.025 308.12 264.596 308.12H287.354C287.077 305.542 287.48 302.935 288.521 300.556H274.799C274.228 300.556 273.766 300.094 273.766 299.523C273.766 298.952 274.228 298.49 274.799 298.49H290.204C290.574 298.49 290.916 298.687 291.1 299.009C291.285 299.33 291.283 299.725 291.097 300.044C289.52 302.742 288.977 305.907 289.568 308.957C289.627 309.26 289.547 309.573 289.351 309.81C289.155 310.049 288.862 310.187 288.554 310.187Z" fill="#6A79A8"/>
<path d="M302.174 321.429C298.301 321.429 294.493 319.92 291.645 317.077H275.963C275.392 317.077 274.929 316.614 274.929 316.044C274.929 315.473 275.392 315.011 275.963 315.011H292.082C292.367 315.011 292.639 315.128 292.834 315.335C296.593 319.321 302.474 320.48 307.469 318.218C313.914 315.297 316.781 307.678 313.861 301.233C310.941 294.788 303.323 291.921 296.876 294.84C296.742 294.901 296.597 294.932 296.45 294.932H262.014C261.443 294.932 260.98 294.47 260.98 293.899C260.98 293.329 261.443 292.866 262.014 292.866H296.231C303.668 289.629 312.384 292.967 315.743 300.38C319.134 307.863 315.804 316.709 308.322 320.099C306.346 320.995 304.25 321.429 302.174 321.429Z" fill="#6A79A8"/>
<path d="M454.247 263.13C454.247 274.772 444.809 284.21 433.166 284.21C421.524 284.21 412.086 274.772 412.086 263.13C412.086 251.487 421.524 242.049 433.166 242.049C444.809 242.049 454.247 251.487 454.247 263.13Z" fill="#BBDFF5"/>
<path d="M477.416 295.898H379.662C379.092 295.898 378.629 295.436 378.629 294.865C378.629 294.294 379.092 293.832 379.662 293.832H477.416C477.987 293.832 478.449 294.294 478.449 294.865C478.449 295.436 477.987 295.898 477.416 295.898Z" fill="#6A79A8"/>
<path d="M411.321 311.396H379.662C379.092 311.396 378.629 310.934 378.629 310.363C378.629 309.793 379.092 309.33 379.662 309.33H411.321C411.891 309.33 412.354 309.793 412.354 310.363C412.354 310.934 411.891 311.396 411.321 311.396Z" fill="#6A79A8"/>
<path d="M475.998 336.916C475.734 336.916 475.469 336.815 475.268 336.613L463.232 324.578C462.829 324.174 462.829 323.52 463.232 323.117C463.636 322.713 464.29 322.713 464.693 323.117L476.729 335.152C477.132 335.556 477.132 336.21 476.729 336.613C476.527 336.815 476.263 336.916 475.998 336.916Z" fill="#6A79A8"/>
<path d="M473.525 327.357C473.261 327.357 472.996 327.257 472.795 327.055C472.391 326.651 472.391 325.997 472.795 325.594L475.269 323.119C475.673 322.716 476.327 322.716 476.73 323.119C477.134 323.522 477.134 324.177 476.73 324.58L474.256 327.055C474.054 327.257 473.79 327.357 473.525 327.357Z" fill="#6A79A8"/>
<path d="M463.963 336.917C463.698 336.917 463.434 336.816 463.232 336.614C462.829 336.211 462.829 335.557 463.232 335.153L471 327.385C471.404 326.981 472.058 326.981 472.461 327.385C472.865 327.788 472.865 328.442 472.461 328.846L464.693 336.614C464.491 336.816 464.227 336.917 463.963 336.917Z" fill="#6A79A8"/>
<path d="M477.414 383.728H421.119C420.549 383.728 420.086 383.266 420.086 382.695C420.086 382.125 420.549 381.662 421.119 381.662H477.414C477.985 381.662 478.447 382.125 478.447 382.695C478.447 383.266 477.985 383.728 477.414 383.728Z" fill="#6A79A8"/>
<path d="M411.321 383.728H379.662C379.092 383.728 378.629 383.266 378.629 382.695C378.629 382.125 379.092 381.662 379.662 381.662H411.321C411.891 381.662 412.354 382.125 412.354 382.695C412.354 383.266 411.891 383.728 411.321 383.728Z" fill="#6A79A8"/>
<path d="M269.475 134.422C266.299 134.422 263.715 137.005 263.715 140.181C263.715 143.357 266.299 145.941 269.475 145.941C272.651 145.941 275.235 143.357 275.235 140.181C275.235 137.005 272.651 134.422 269.475 134.422ZM269.475 148.008C265.159 148.008 261.648 144.497 261.648 140.181C261.648 135.866 265.159 132.355 269.475 132.355C273.79 132.355 277.301 135.866 277.301 140.181C277.301 144.497 273.79 148.008 269.475 148.008Z" fill="#6A79A8"/>
<path d="M558.397 56.8946C555.221 56.8946 552.637 59.4778 552.637 62.655C552.637 65.8323 555.221 68.4154 558.397 68.4154C561.573 68.4154 564.157 65.8323 564.157 62.655C564.157 59.4778 561.573 56.8946 558.397 56.8946ZM558.397 70.4819C554.081 70.4819 550.57 66.9689 550.57 62.655C550.57 58.3412 554.081 54.8281 558.397 54.8281C562.712 54.8281 566.223 58.3412 566.223 62.655C566.223 66.9689 562.712 70.4819 558.397 70.4819Z" fill="#6A79A8"/>
<path d="M628.51 397.003C625.333 397.003 622.75 399.587 622.75 402.763C622.75 405.939 625.333 408.522 628.51 408.522C631.688 408.522 634.271 405.939 634.271 402.763C634.271 399.587 631.688 397.003 628.51 397.003ZM628.51 410.589C624.197 410.589 620.684 407.078 620.684 402.763C620.684 398.447 624.197 394.936 628.51 394.936C632.824 394.936 636.337 398.447 636.337 402.763C636.337 407.078 632.824 410.589 628.51 410.589Z" fill="#6A79A8"/>
<path d="M278.026 385.54C274.85 385.54 272.266 388.124 272.266 391.3C272.266 394.476 274.85 397.059 278.026 397.059C281.202 397.059 283.785 394.476 283.785 391.3C283.785 388.124 281.202 385.54 278.026 385.54ZM278.026 399.126C273.71 399.126 270.199 395.615 270.199 391.3C270.199 386.984 273.71 383.473 278.026 383.473C282.341 383.473 285.852 386.984 285.852 391.3C285.852 395.615 282.341 399.126 278.026 399.126Z" fill="#6A79A8"/>
<path d="M273.686 36.5645C270.51 36.5645 267.926 39.1476 267.926 42.3249C267.926 45.5021 270.51 48.0853 273.686 48.0853C276.862 48.0853 279.446 45.5021 279.446 42.3249C279.446 39.1476 276.862 36.5645 273.686 36.5645ZM273.686 50.1518C269.37 50.1518 265.859 46.6387 265.859 42.3249C265.859 38.011 269.37 34.498 273.686 34.498C278.001 34.498 281.512 38.011 281.512 42.3249C281.512 46.6387 278.001 50.1518 273.686 50.1518Z" fill="#6A79A8"/>
<path d="M443.502 189.095C443.502 198.093 436.209 205.386 427.212 205.386C418.216 205.386 410.922 198.093 410.922 189.095C410.922 180.098 418.216 172.805 427.212 172.805C436.209 172.805 443.502 180.098 443.502 189.095Z" fill="#6A79A8"/>
<path d="M376.003 384.505C376.003 395.031 367.47 403.563 356.945 403.563C346.419 403.563 337.887 395.031 337.887 384.505C337.887 373.98 346.419 365.447 356.945 365.447C367.47 365.447 376.003 373.98 376.003 384.505Z" fill="#A756B9"/>
<path d="M353.783 395.617C353.519 395.617 353.255 395.516 353.053 395.314L343.76 386.022C343.356 385.618 343.356 384.964 343.76 384.56C344.163 384.157 344.817 384.157 345.221 384.56L353.783 393.123L371.048 375.858C371.452 375.454 372.106 375.454 372.509 375.858C372.913 376.261 372.913 376.915 372.509 377.319L354.514 395.314C354.312 395.516 354.048 395.617 353.783 395.617Z" fill="white"/>
<path d="M620.553 173.553H588.909C588.336 173.553 587.875 173.09 587.875 172.519C587.875 171.949 588.336 171.486 588.909 171.486H620.553C621.121 171.486 621.586 171.949 621.586 172.519C621.586 173.09 621.121 173.553 620.553 173.553Z" fill="#6A79A8"/>
<path d="M660.077 218.825C656.9 218.825 654.317 221.409 654.317 224.585C654.317 227.761 656.9 230.345 660.077 230.345C663.249 230.345 665.837 227.761 665.837 224.585C665.837 221.409 663.249 218.825 660.077 218.825ZM660.077 232.411C655.758 232.411 652.25 228.9 652.25 224.585C652.25 220.269 655.758 216.758 660.077 216.758C664.391 216.758 667.904 220.269 667.904 224.585C667.904 228.9 664.391 232.411 660.077 232.411Z" fill="#6A79A8"/>
<path d="M274.111 254.993C273.541 254.993 273.078 254.53 273.078 253.96V213.978C273.078 210.045 276.278 206.846 280.21 206.846H347.42C347.99 206.846 348.453 207.309 348.453 207.879C348.453 208.45 347.99 208.912 347.42 208.912H280.21C277.417 208.912 275.145 211.184 275.145 213.978V253.96C275.145 254.53 274.682 254.993 274.111 254.993Z" fill="#6A79A8"/>
<path d="M347.593 221.297H289.029C288.458 221.297 287.996 220.834 287.996 220.264C287.996 219.693 288.458 219.23 289.029 219.23H347.593C348.163 219.23 348.626 219.693 348.626 220.264C348.626 220.834 348.163 221.297 347.593 221.297Z" fill="#6A79A8"/>
<path d="M347.591 236.796H313.865C313.294 236.796 312.832 236.334 312.832 235.763C312.832 235.192 313.294 234.729 313.865 234.729H347.591C348.162 234.729 348.624 235.192 348.624 235.763C348.624 236.334 348.162 236.796 347.591 236.796Z" fill="#6A79A8"/>
<path d="M307.996 236.796H289.029C288.458 236.796 287.996 236.334 287.996 235.763C287.996 235.192 288.458 234.729 289.029 234.729H307.996C308.566 234.729 309.029 235.192 309.029 235.763C309.029 236.334 308.566 236.796 307.996 236.796Z" fill="#6A79A8"/>
<path d="M300.057 252.294H289.029C288.458 252.294 287.996 251.832 287.996 251.261C287.996 250.69 288.458 250.227 289.029 250.227H300.057C300.628 250.227 301.09 250.69 301.09 251.261C301.09 251.832 300.628 252.294 300.057 252.294Z" fill="#6A79A8"/>
<path d="M318.706 267.796H289.029C288.458 267.796 287.996 267.333 287.996 266.763C287.996 266.192 288.458 265.729 289.029 265.729H318.706C319.277 265.729 319.739 266.192 319.739 266.763C319.739 267.333 319.277 267.796 318.706 267.796Z" fill="#6A79A8"/>
<path d="M274.111 270.38C273.541 270.38 273.078 269.917 273.078 269.347V259.875C273.078 259.304 273.541 258.842 274.111 258.842C274.682 258.842 275.145 259.304 275.145 259.875V269.347C275.145 269.917 274.682 270.38 274.111 270.38Z" fill="#6A79A8"/>
<path d="M427.98 311.396H417.131C416.56 311.396 416.098 310.934 416.098 310.363C416.098 309.793 416.56 309.33 417.131 309.33H427.98C428.55 309.33 429.013 309.793 429.013 310.363C429.013 310.934 428.55 311.396 427.98 311.396Z" fill="#6A79A8"/>
<path d="M581.297 324.903L580.479 323.232L587.942 319.578L588.76 321.248L581.297 324.903ZM582.893 328.163L582.168 326.681L591.14 322.288L591.866 323.77L582.893 328.163ZM587.125 330.801L577.758 311.671L584.332 308.452C585.212 308.021 586.086 307.805 586.954 307.803C587.821 307.801 588.643 307.978 589.418 308.333C590.202 308.662 590.896 309.124 591.499 309.719C592.112 310.288 592.598 310.94 592.959 311.677C593.469 312.719 593.737 313.812 593.764 314.957C593.781 316.084 593.517 317.138 592.973 318.117C592.446 319.088 591.598 319.859 590.431 320.43L585.554 322.818L589.011 329.878L587.125 330.801ZM584.736 321.148L589.505 318.813C590.385 318.382 590.994 317.828 591.33 317.151C591.685 316.465 591.825 315.728 591.751 314.94C591.677 314.153 591.451 313.373 591.073 312.6C590.686 311.81 590.177 311.157 589.546 310.642C588.934 310.118 588.238 309.813 587.461 309.726C586.693 309.612 585.886 309.762 585.042 310.175L580.462 312.418L584.736 321.148Z" fill="#6A79A8"/>
<path d="M546 184.306V182.012H556.249V184.306H546ZM546 188.783V186.748H558.321V188.783H546ZM549.256 194V167.73H558.284C559.493 167.73 560.578 167.965 561.54 168.433C562.502 168.902 563.316 169.543 563.982 170.357C564.673 171.147 565.191 172.035 565.536 173.021C565.906 173.983 566.091 174.97 566.091 175.981C566.091 177.412 565.795 178.769 565.203 180.051C564.611 181.309 563.748 182.333 562.613 183.122C561.503 183.912 560.146 184.306 558.543 184.306H551.846V194H549.256ZM551.846 182.012H558.395C559.604 182.012 560.578 181.729 561.318 181.161C562.083 180.594 562.638 179.854 562.983 178.941C563.328 178.029 563.501 177.042 563.501 175.981C563.501 174.896 563.291 173.897 562.872 172.984C562.477 172.072 561.873 171.356 561.059 170.838C560.27 170.296 559.295 170.024 558.136 170.024H551.846V182.012Z" fill="#6A79A8"/>
<path d="M418 264.211V261.421H430.465V264.211H418ZM418 269.656V267.181H432.985V269.656H418ZM421.96 276.001V244.051H432.94C434.41 244.051 435.73 244.336 436.9 244.906C438.07 245.476 439.06 246.256 439.87 247.246C440.71 248.206 441.34 249.286 441.76 250.486C442.21 251.656 442.435 252.856 442.435 254.086C442.435 255.826 442.075 257.476 441.355 259.036C440.635 260.566 439.585 261.811 438.205 262.771C436.855 263.731 435.205 264.211 433.255 264.211H425.11V276.001H421.96ZM425.11 261.421H433.075C434.545 261.421 435.73 261.076 436.63 260.386C437.56 259.696 438.235 258.796 438.655 257.686C439.075 256.576 439.285 255.376 439.285 254.086C439.285 252.766 439.03 251.551 438.52 250.441C438.04 249.331 437.305 248.461 436.315 247.831C435.355 247.171 434.17 246.841 432.76 246.841H425.11V261.421Z" fill="#6A79A8"/>
<path d="M309 254.3V253.125H315.85V254.3H309ZM309 257.025V255.975H317.375V257.025H309ZM311.3 261V243.25H317.35C318.15 243.25 318.858 243.408 319.475 243.725C320.108 244.042 320.65 244.467 321.1 245C321.567 245.517 321.917 246.1 322.15 246.75C322.4 247.4 322.525 248.067 322.525 248.75C322.525 249.7 322.325 250.6 321.925 251.45C321.525 252.283 320.95 252.967 320.2 253.5C319.45 254.033 318.558 254.3 317.525 254.3H312.575V261H311.3ZM312.575 253.125H317.475C318.325 253.125 319.025 252.917 319.575 252.5C320.142 252.083 320.558 251.542 320.825 250.875C321.108 250.208 321.25 249.5 321.25 248.75C321.25 247.967 321.083 247.25 320.75 246.6C320.433 245.933 319.975 245.4 319.375 245C318.792 244.6 318.1 244.4 317.3 244.4H312.575V253.125Z" fill="#6A79A8"/>
<path d="M298.878 310.916L298.258 309.842L303.056 307.072L303.676 308.146L298.878 310.916ZM300.088 313.012L299.538 312.059L305.306 308.729L305.856 309.682L300.088 313.012ZM303.023 314.574L295.923 302.276L300.149 299.836C300.715 299.51 301.286 299.326 301.863 299.285C302.44 299.245 302.994 299.325 303.526 299.526C304.063 299.709 304.545 299.985 304.974 300.353C305.407 300.703 305.76 301.115 306.033 301.589C306.42 302.258 306.648 302.974 306.718 303.734C306.781 304.483 306.653 305.195 306.335 305.872C306.029 306.541 305.501 307.092 304.75 307.526L301.615 309.336L304.235 313.874L303.023 314.574ZM300.995 308.262L304.061 306.492C304.627 306.165 305.006 305.769 305.199 305.304C305.404 304.831 305.464 304.335 305.379 303.814C305.294 303.294 305.108 302.785 304.821 302.289C304.528 301.781 304.16 301.37 303.717 301.056C303.285 300.735 302.809 300.564 302.288 300.541C301.772 300.5 301.242 300.637 300.7 300.95L297.755 302.65L300.995 308.262Z" fill="#6A79A8"/>
</svg>
